<?xml version="1.0" standalone="no"?>
<!DOCTYPE svg PUBLIC "-//W3C//DTD SVG 20010904//EN"
 "http://www.w3.org/TR/2001/REC-SVG-20010904/DTD/svg10.dtd">
<svg version="1.0" xmlns="http://www.w3.org/2000/svg"
 width="700.000000pt" height="700.000000pt" viewBox="0 0 700.000000 700.000000"
 preserveAspectRatio="xMidYMid meet">
<metadata>
Created by potrace 1.14, written by Peter Selinger 2001-2017
</metadata>
<g transform="translate(0.000000,700.000000) scale(0.100000,-0.100000)"
fill="#000000" stroke="none">
<path d="M3278 6995 c-1 -1 -42 -5 -89 -9 -47 -4 -95 -8 -105 -10 -10 -2 -48
-7 -84 -12 -36 -4 -67 -8 -70 -9 -3 -1 -25 -5 -50 -9 -112 -20 -352 -80 -462
-117 -539 -180 -1000 -462 -1391 -853 -497 -498 -829 -1121 -962 -1806 -25
-131 -34 -189 -41 -255 -2 -22 -7 -76 -11 -120 -15 -156 -8 -596 12 -705 2
-14 7 -45 9 -70 41 -374 196 -840 402 -1212 375 -679 975 -1221 1690 -1526
166 -71 372 -142 486 -168 10 -2 26 -6 36 -8 9 -2 35 -9 57 -15 35 -9 124 -27
230 -46 17 -2 50 -7 75 -11 25 -3 56 -7 70 -10 157 -25 682 -25 841 1 13 2 47
6 74 10 28 3 57 8 65 10 8 2 31 6 50 9 112 17 197 37 385 92 1014 294 1861
1065 2255 2054 73 184 157 466 185 625 25 141 35 208 40 255 3 30 8 73 11 95
9 67 12 546 3 615 -4 36 -10 90 -13 120 -4 30 -8 66 -10 80 -2 14 -7 50 -11
80 -4 30 -9 58 -11 61 -2 4 -6 24 -10 45 -10 67 -71 305 -104 404 -208 631
-578 1178 -1085 1605 -97 82 -346 265 -360 265 -2 0 -36 20 -74 45 -92 59
-328 179 -466 237 -245 102 -543 187 -785 224 -25 3 -53 8 -62 10 -9 1 -43 6
-75 9 -32 4 -76 9 -98 12 -44 5 -541 13 -547 8z m527 -119 c22 -3 62 -8 88
-11 216 -25 440 -74 648 -141 106 -34 237 -82 284 -104 11 -5 68 -31 126 -58
386 -179 821 -507 1094 -827 33 -38 66 -76 72 -83 40 -43 193 -257 257 -359
78 -125 172 -302 220 -413 16 -36 36 -83 46 -105 62 -141 152 -448 186 -630 9
-49 17 -97 19 -105 1 -8 6 -40 10 -70 4 -30 9 -64 11 -75 18 -94 24 -502 11
-670 -9 -106 -11 -129 -22 -197 -4 -24 -8 -55 -11 -70 -88 -581 -381 -1215
-759 -1648 -160 -183 -267 -287 -459 -448 -200 -168 -485 -339 -796 -479 -215
-97 -615 -208 -865 -239 -22 -3 -53 -7 -70 -9 -178 -26 -562 -26 -790 -1 -225
25 -494 88 -721 167 -1135 397 -1979 1370 -2208 2544 -15 79 -18 96 -32 185
-7 49 -9 64 -20 190 -15 156 -9 566 11 680 2 14 9 61 15 105 7 44 14 89 16
100 30 156 28 147 59 262 264 999 974 1825 1922 2239 229 100 526 191 748 229
99 17 249 36 326 41 52 4 96 8 97 9 5 5 441 -4 487 -9z"/>
<path d="M3486 6671 c-6 -10 -42 -217 -51 -296 -3 -27 -8 -60 -10 -71 -3 -12
-12 -73 -20 -135 -18 -128 -23 -163 -30 -199 -3 -14 -7 -42 -10 -64 -7 -63
-15 -118 -25 -176 -5 -30 -12 -75 -15 -100 -3 -25 -7 -56 -10 -70 -4 -23 -8
-53 -20 -132 -13 -99 -27 -192 -30 -211 -2 -12 -16 -103 -30 -202 -27 -185
-32 -222 -40 -265 -2 -14 -7 -46 -10 -72 -2 -26 -7 -58 -9 -70 -3 -13 -8 -43
-11 -68 -3 -25 -7 -57 -10 -72 -3 -16 -7 -40 -10 -54 -2 -15 -6 -29 -9 -31 -4
-5 -150 101 -439 318 -57 43 -612 456 -842 626 -55 41 -107 80 -115 86 -8 7
-67 50 -130 97 -63 47 -119 89 -125 93 -54 44 -177 132 -206 147 -82 43 -61 6
159 -290 96 -129 262 -352 368 -495 287 -384 581 -780 706 -949 115 -154 118
-164 58 -167 -14 0 -34 -2 -45 -4 -11 -2 -56 -9 -100 -15 -44 -7 -87 -13 -95
-15 -18 -3 -105 -16 -140 -20 -23 -3 -246 -36 -345 -50 -22 -3 -65 -10 -95
-15 -30 -5 -75 -12 -100 -15 -25 -3 -56 -8 -70 -10 -14 -2 -43 -7 -65 -10 -22
-3 -67 -10 -100 -15 -33 -5 -82 -11 -110 -15 -27 -3 -75 -10 -105 -15 -30 -5
-75 -12 -100 -15 -25 -3 -70 -10 -100 -15 -30 -5 -75 -11 -100 -14 -25 -4 -56
-8 -69 -11 -14 -2 -47 -7 -75 -10 -28 -3 -58 -8 -66 -10 -8 -2 -37 -7 -65 -10
-27 -3 -61 -7 -75 -10 -23 -4 -67 -11 -140 -21 -45 -6 -90 -24 -90 -35 0 -13
41 -27 97 -34 50 -6 203 -28 308 -45 33 -5 76 -12 95 -14 19 -3 114 -17 210
-31 96 -14 193 -28 215 -31 22 -3 69 -10 105 -15 36 -6 81 -12 100 -15 19 -2
46 -6 60 -9 14 -3 41 -7 60 -9 33 -5 219 -32 520 -76 74 -11 153 -22 175 -25
22 -4 51 -8 65 -10 14 -3 59 -9 100 -15 41 -6 92 -13 113 -16 21 -3 46 -7 55
-9 9 -2 20 -4 24 -4 4 -1 -53 -81 -126 -178 -118 -159 -258 -347 -779 -1048
-81 -110 -157 -211 -167 -225 -134 -177 -290 -392 -304 -418 -16 -32 -16 -32
6 -32 14 0 123 75 278 190 140 104 363 270 495 369 132 98 395 294 585 435
190 141 352 262 360 269 8 6 27 20 41 29 14 9 33 23 40 30 24 22 78 58 87 58
4 0 8 -10 9 -22 0 -19 18 -141 38 -268 2 -14 6 -43 9 -65 3 -22 15 -103 26
-180 12 -77 23 -152 25 -166 4 -32 25 -176 30 -209 6 -34 36 -240 40 -265 19
-141 27 -196 31 -225 3 -19 7 -46 9 -60 8 -46 15 -86 19 -123 3 -20 7 -52 10
-69 3 -18 8 -49 10 -68 3 -19 12 -84 21 -145 9 -60 18 -123 20 -138 10 -71 16
-113 20 -127 2 -8 7 -38 10 -67 3 -28 11 -66 19 -83 11 -27 14 -29 25 -16 12
14 44 184 57 301 3 28 11 88 19 135 8 47 17 108 20 135 3 28 10 75 15 105 5
30 12 73 15 95 17 116 47 324 51 354 2 19 6 46 9 60 2 14 14 91 25 171 25 170
29 197 35 230 2 14 7 44 10 68 3 23 7 61 10 85 3 23 8 53 10 67 7 38 13 75 30
195 9 61 18 121 20 135 9 59 18 126 19 143 0 9 4 17 9 17 5 0 104 -71 220
-157 117 -87 312 -232 434 -323 121 -91 313 -233 425 -316 111 -83 328 -244
480 -358 277 -206 322 -236 335 -222 15 15 40 -18 -965 1331 -135 182 -284
381 -330 443 -46 62 -82 115 -79 118 4 5 80 18 222 39 167 24 236 35 275 40
42 6 141 20 200 30 72 11 148 22 220 30 30 4 57 8 60 10 3 2 30 6 60 10 30 3
62 7 70 10 8 2 38 6 65 10 61 7 94 12 210 30 50 8 110 16 135 20 25 3 56 8 70
10 39 7 56 10 280 41 19 2 62 9 95 14 33 5 78 11 100 15 160 23 225 37 231 47
12 20 -15 31 -106 44 -19 2 -64 9 -100 15 -36 6 -81 13 -100 15 -19 3 -123 18
-230 34 -107 16 -215 31 -240 35 -25 3 -70 10 -100 15 -30 5 -77 12 -105 15
-27 3 -61 8 -75 10 -14 3 -43 7 -65 10 -22 3 -51 8 -65 10 -26 5 -51 9 -133
20 -27 4 -56 8 -65 10 -10 1 -39 6 -67 9 -80 11 -318 47 -340 51 -11 2 -42 7
-70 10 -27 3 -59 8 -70 10 -11 2 -42 7 -70 10 -27 3 -57 8 -65 10 -8 2 -37 6
-65 10 -27 3 -78 10 -112 16 l-62 11 148 196 c144 193 323 433 756 1017 119
160 225 301 235 315 137 179 250 338 250 353 0 40 -18 29 -295 -177 -225 -167
-474 -353 -965 -718 -135 -101 -334 -249 -442 -330 -109 -81 -198 -142 -199
-135 0 7 -2 19 -4 27 -1 8 -6 35 -10 60 -3 25 -8 56 -10 70 -2 14 -7 45 -10
70 -3 25 -8 52 -10 60 -2 8 -7 40 -10 70 -3 30 -8 62 -10 70 -2 8 -6 38 -10
65 -3 28 -7 61 -10 75 -2 14 -7 43 -10 65 -3 22 -8 54 -10 70 -8 50 -65 437
-70 475 -3 19 -7 46 -10 60 -2 14 -7 48 -10 75 -3 28 -8 57 -10 65 -2 8 -6 38
-10 65 -9 70 -15 116 -20 145 -3 14 -7 41 -10 60 -2 19 -13 96 -24 170 -11 74
-23 155 -26 180 -3 25 -9 70 -15 100 -5 30 -12 75 -15 100 -10 76 -33 118 -49
91z m183 -2521 c132 -37 225 -91 315 -184 228 -237 250 -610 53 -871 -98 -130
-255 -227 -409 -255 -105 -19 -251 -12 -328 17 -8 3 -19 7 -25 9 -68 17 -179
88 -250 159 -71 72 -120 150 -159 250 -28 75 -30 88 -30 215 0 133 2 147 25
219 70 220 278 408 495 447 16 3 31 7 33 10 2 2 50 4 105 4 71 0 123 -6 175
-20z"/>
<path d="M3452 3710 c-94 -21 -164 -111 -164 -209 0 -124 90 -214 213 -213
124 1 214 91 212 214 -3 138 -128 238 -261 208z"/>
<path d="M4609 6483 c-165 -175 -219 -237 -216 -247 5 -14 275 -119 291 -113
15 6 15 419 0 424 -6 2 -39 -27 -75 -64z"/>
<path d="M2176 6338 c4 -84 8 -171 9 -193 2 -22 3 -50 4 -62 1 -29 8 -29 83 6
35 15 92 41 128 56 36 16 71 34 78 40 11 10 -16 41 -134 159 -81 80 -153 146
-160 146 -12 0 -13 -27 -8 -152z"/>
<path d="M6337 4823 c-1 -1 -63 -4 -137 -6 -74 -3 -136 -6 -138 -6 -9 -2 108
-275 126 -293 11 -11 305 279 299 296 -3 9 -142 17 -150 9z"/>
<path d="M457 4682 c-7 -10 -8 -16 0 -20 6 -4 57 -50 114 -103 168 -156 184
-169 194 -166 10 4 115 262 115 284 0 16 9 15 -223 17 -146 1 -191 -2 -200
-12z"/>
<path d="M6211 2568 c-53 -124 -94 -250 -84 -256 9 -6 353 -8 411 -3 22 2 12
19 -40 68 -28 26 -84 78 -123 115 -92 87 -128 118 -138 118 -4 0 -16 -19 -26
-42z"/>
<path d="M657 2344 c-81 -80 -147 -153 -147 -160 0 -12 23 -14 133 -9 72 3
167 7 210 9 42 2 80 6 83 9 7 7 -103 266 -120 285 -10 10 -41 -16 -159 -134z"/>
<path d="M4745 919 c-82 -39 -195 -89 -204 -89 -5 0 -14 -6 -20 -14 -9 -11 17
-42 135 -160 81 -80 153 -146 160 -146 12 0 13 26 8 143 -8 193 -12 271 -13
280 -2 11 -23 7 -66 -14z"/>
<path d="M2308 868 c-3 -11 -2 -382 1 -410 2 -12 18 -9 33 6 54 56 221 237
243 264 16 19 24 37 19 42 -11 11 -264 110 -280 110 -7 0 -14 -6 -16 -12z"/>
</g>
</svg>
