<svg id="Layer_1" data-name="Layer 1" xmlns="http://www.w3.org/2000/svg" viewBox="0 0 277.33 85"><defs><style>.cls-1{fill:#2f1a47;}</style></defs><path class="cls-1" d="M92.34,41.37V15.08h9.37a10.35,10.35,0,0,1,5.08,1.12,7.31,7.31,0,0,1,3,3,9.24,9.24,0,0,1,1,4.35,9.19,9.19,0,0,1-1,4.36,7.32,7.32,0,0,1-3,3.06,10.42,10.42,0,0,1-5.07,1.12H96.31v9.24Zm4-12.6h5a5.33,5.33,0,0,0,4.2-1.47,5.47,5.47,0,0,0,1.28-3.71,5.29,5.29,0,0,0-1.29-3.67,5.46,5.46,0,0,0-4.24-1.44h-5Z"/><path class="cls-1" d="M113.58,41.37V21.65h3.71v3.14h.21a4.75,4.75,0,0,1,1.9-2.51,5.41,5.41,0,0,1,3.1-.92l.86,0c.33,0,.59,0,.77.07v3.67q-.22-.06-.81-.15a9.39,9.39,0,0,0-1.19-.08,4.75,4.75,0,0,0-3.37,1.25,4.18,4.18,0,0,0-1.34,3.19v12Z"/><path class="cls-1" d="M133.5,41.77a9.06,9.06,0,0,1-4.84-1.27,8.64,8.64,0,0,1-3.2-3.56,11.73,11.73,0,0,1-1.15-5.34,11.79,11.79,0,0,1,1.15-5.36,8.54,8.54,0,0,1,3.2-3.57,9.88,9.88,0,0,1,9.69,0,8.54,8.54,0,0,1,3.2,3.57,11.92,11.92,0,0,1,1.15,5.36,11.86,11.86,0,0,1-1.15,5.34,8.64,8.64,0,0,1-3.2,3.56A9,9,0,0,1,133.5,41.77Zm0-3.22a4.61,4.61,0,0,0,3-.95,5.69,5.69,0,0,0,1.75-2.54,10.88,10.88,0,0,0,0-7,5.72,5.72,0,0,0-1.75-2.55,5.16,5.16,0,0,0-6,0,5.66,5.66,0,0,0-1.76,2.55,10.7,10.7,0,0,0,0,7,5.63,5.63,0,0,0,1.76,2.54A4.62,4.62,0,0,0,133.52,38.55Z"/><path class="cls-1" d="M161.59,21.65l-7.15,19.72h-4.11l-7.16-19.72h4.12l5,15.18h.21l5-15.18Z"/><path class="cls-1" d="M165.58,18.61a2.38,2.38,0,0,1-1.71-.67,2.2,2.2,0,0,1,0-3.24,2.38,2.38,0,0,1,1.71-.67,2.41,2.41,0,0,1,1.71.67,2.18,2.18,0,0,1,0,3.24A2.41,2.41,0,0,1,165.58,18.61Zm-1.94,22.76V21.65h3.84V41.37Z"/><path class="cls-1" d="M178.47,41.76a7.61,7.61,0,0,1-4.25-1.22A8.3,8.3,0,0,1,171.29,37a12.94,12.94,0,0,1-1.06-5.48,12.68,12.68,0,0,1,1.07-5.47,8.18,8.18,0,0,1,2.95-3.48,7.66,7.66,0,0,1,4.24-1.2,6.15,6.15,0,0,1,3,.61,5.39,5.39,0,0,1,1.75,1.42,12.1,12.1,0,0,1,1,1.42h.23V15.08h3.84V41.37h-3.75V38.3h-.32a9.78,9.78,0,0,1-1,1.44,5.57,5.57,0,0,1-1.77,1.41A6.13,6.13,0,0,1,178.47,41.76Zm.85-3.28a4.33,4.33,0,0,0,3.81-1.93,8.7,8.7,0,0,0,1.33-5,8.55,8.55,0,0,0-1.31-5,4.38,4.38,0,0,0-3.83-1.88,4.55,4.55,0,0,0-2.89.9A5.45,5.45,0,0,0,174.69,28a9.86,9.86,0,0,0-.59,3.51,10.18,10.18,0,0,0,.59,3.56,5.68,5.68,0,0,0,1.76,2.5A4.48,4.48,0,0,0,179.32,38.48Z"/><path class="cls-1" d="M200.65,41.77a9.61,9.61,0,0,1-5-1.26A8.42,8.42,0,0,1,192.4,37a11.73,11.73,0,0,1-1.13-5.33,11.92,11.92,0,0,1,1.13-5.34,8.49,8.49,0,0,1,8-4.9,9.39,9.39,0,0,1,4.23,1,7.79,7.79,0,0,1,3.25,3.17,11.54,11.54,0,0,1,1.25,5.75v1.36h-14a6.22,6.22,0,0,0,1.61,4.39,5.37,5.37,0,0,0,4,1.54,5.52,5.52,0,0,0,2.84-.71,3.93,3.93,0,0,0,1.7-2.1l3.64.65A6.71,6.71,0,0,1,206,40.31,9.47,9.47,0,0,1,200.65,41.77Zm-5.55-12h10.25A5.41,5.41,0,0,0,204,26.05a4.61,4.61,0,0,0-3.58-1.48,5.07,5.07,0,0,0-2.72.72,5.37,5.37,0,0,0-1.84,1.92A6,6,0,0,0,195.1,29.79Z"/><path class="cls-1" d="M215.67,29.66V41.37h-3.84V21.65h3.68v3.21h.25a5.58,5.58,0,0,1,2.13-2.51,6.58,6.58,0,0,1,3.68-1,6.51,6.51,0,0,1,4.87,1.88,7.64,7.64,0,0,1,1.85,5.55V41.37h-3.84V29.29a4.75,4.75,0,0,0-1.12-3.36,4,4,0,0,0-3.07-1.21A4.5,4.5,0,0,0,217,26,4.94,4.94,0,0,0,215.67,29.66Z"/><path class="cls-1" d="M240.17,41.77a9.07,9.07,0,0,1-4.92-1.3,8.61,8.61,0,0,1-3.17-3.6A12.14,12.14,0,0,1,231,31.6a11.92,11.92,0,0,1,1.13-5.31,8.72,8.72,0,0,1,3.19-3.6,8.89,8.89,0,0,1,4.83-1.29,9.33,9.33,0,0,1,4,.82A7.37,7.37,0,0,1,247,24.54,7.06,7.06,0,0,1,248.27,28h-3.73a4.57,4.57,0,0,0-1.41-2.39,4.21,4.21,0,0,0-2.93-1,4.69,4.69,0,0,0-3.87,1.86,7.85,7.85,0,0,0-1.47,5,8.2,8.2,0,0,0,1.45,5.12,4.64,4.64,0,0,0,3.89,1.89,4.48,4.48,0,0,0,2.81-.9,4.19,4.19,0,0,0,1.53-2.49h3.73A7.32,7.32,0,0,1,247,38.55a7.2,7.2,0,0,1-2.78,2.36A9.15,9.15,0,0,1,240.17,41.77Z"/><path class="cls-1" d="M259.34,41.77a9.56,9.56,0,0,1-5-1.26A8.42,8.42,0,0,1,251.09,37,11.73,11.73,0,0,1,250,31.64a11.92,11.92,0,0,1,1.14-5.34,8.47,8.47,0,0,1,8-4.9,9.39,9.39,0,0,1,4.23,1,7.71,7.71,0,0,1,3.24,3.17,11.42,11.42,0,0,1,1.26,5.75v1.36h-14a6.21,6.21,0,0,0,1.6,4.39,5.4,5.4,0,0,0,4,1.54,5.47,5.47,0,0,0,2.84-.71,3.9,3.9,0,0,0,1.71-2.1l3.63.65a6.69,6.69,0,0,1-2.82,3.87A9.49,9.49,0,0,1,259.34,41.77Zm-5.55-12H264a5.36,5.36,0,0,0-1.36-3.74,4.58,4.58,0,0,0-3.58-1.48,5,5,0,0,0-2.71.72,5.29,5.29,0,0,0-1.84,1.92A5.77,5.77,0,0,0,253.79,29.79Z"/><path class="cls-1" d="M92.34,70.54V44.24h4V55.67h13.1V44.24h4v26.3h-4V59.07H96.31V70.54Z"/><path class="cls-1" d="M125.8,70.93a9.55,9.55,0,0,1-5-1.26,8.21,8.21,0,0,1-3.24-3.53,11.8,11.8,0,0,1-1.14-5.34,11.92,11.92,0,0,1,1.14-5.34,8.58,8.58,0,0,1,3.18-3.6,8.7,8.7,0,0,1,4.79-1.3,9.27,9.27,0,0,1,4.23,1A7.68,7.68,0,0,1,133,54.73a11.39,11.39,0,0,1,1.25,5.74v1.36h-14a6.21,6.21,0,0,0,1.6,4.39,5.36,5.36,0,0,0,4,1.54,5.49,5.49,0,0,0,2.84-.7A4,4,0,0,0,130.39,65l3.63.66a6.71,6.71,0,0,1-2.82,3.86A9.42,9.42,0,0,1,125.8,70.93Zm-5.54-12H130.5a5.42,5.42,0,0,0-1.36-3.75,4.63,4.63,0,0,0-3.58-1.48,5,5,0,0,0-2.72.73A5.32,5.32,0,0,0,121,56.37,5.77,5.77,0,0,0,120.26,59Z"/><path class="cls-1" d="M142.72,71a8,8,0,0,1-3.38-.69,5.62,5.62,0,0,1-2.4-2,5.8,5.8,0,0,1-.88-3.28,5.32,5.32,0,0,1,.65-2.76,4.78,4.78,0,0,1,1.73-1.7,8.73,8.73,0,0,1,2.43-1,25.08,25.08,0,0,1,2.75-.48l2.87-.34a4.26,4.26,0,0,0,1.6-.44,1.08,1.08,0,0,0,.51-1V57.2a3.49,3.49,0,0,0-.94-2.61,3.9,3.9,0,0,0-2.81-.92,5,5,0,0,0-3,.84,4.58,4.58,0,0,0-1.53,1.9l-3.61-.82a6.68,6.68,0,0,1,3.22-3.86,10.5,10.5,0,0,1,4.92-1.17,11.82,11.82,0,0,1,2.5.28,7.44,7.44,0,0,1,2.5,1,5.53,5.53,0,0,1,1.91,2.09,7.16,7.16,0,0,1,.74,3.5v13.1H148.7v-2.7h-.15a6.09,6.09,0,0,1-2,2.12A6.58,6.58,0,0,1,142.72,71Zm.84-3.08a5.51,5.51,0,0,0,2.73-.63A4.51,4.51,0,0,0,148,65.61a4.33,4.33,0,0,0,.59-2.19V60.88a2.62,2.62,0,0,1-1.18.48c-.6.13-1.25.25-1.92.34l-1.65.23a8,8,0,0,0-2.85.88A2.33,2.33,0,0,0,139.82,65a2.45,2.45,0,0,0,1.05,2.15A4.66,4.66,0,0,0,143.56,67.89Z"/><path class="cls-1" d="M159.84,44.24v26.3H156V44.24Z"/><path class="cls-1" d="M172.65,50.82V53.9h-4V64.75c0,1.11.24,1.82.71,2.15a2.91,2.91,0,0,0,1.65.48,3.88,3.88,0,0,0,.81-.07l.54-.1.69,3.17a6.33,6.33,0,0,1-.95.26,8.1,8.1,0,0,1-1.54.15,6.71,6.71,0,0,1-2.83-.54,4.78,4.78,0,0,1-2.11-1.74,5.14,5.14,0,0,1-.81-3V53.9h-2.89V50.82h2.89V46.09h3.84v4.73Z"/><path class="cls-1" d="M179.59,58.83V70.54h-3.84V44.24h3.78V54h.25a5.61,5.61,0,0,1,2.12-2.54,6.7,6.7,0,0,1,3.72-.93,6.63,6.63,0,0,1,4.9,1.87A7.63,7.63,0,0,1,192.37,58V70.54h-3.84V58.46a4.77,4.77,0,0,0-1.11-3.37,4,4,0,0,0-3.11-1.2,4.68,4.68,0,0,0-3.39,1.29A4.83,4.83,0,0,0,179.59,58.83Z"/><path class="cls-1" d="M193.32,47.66V44.24h20.35v3.42h-8.21V70.54h-4V47.66Z"/><path class="cls-1" d="M221.91,70.93a9.56,9.56,0,0,1-5-1.26,8.33,8.33,0,0,1-3.24-3.53,11.8,11.8,0,0,1-1.14-5.34,11.92,11.92,0,0,1,1.14-5.34,8.51,8.51,0,0,1,8-4.9,9.27,9.27,0,0,1,4.23,1,7.65,7.65,0,0,1,3.24,3.17,11.38,11.38,0,0,1,1.26,5.74v1.36h-14a6.21,6.21,0,0,0,1.6,4.39,5.36,5.36,0,0,0,4,1.54,5.46,5.46,0,0,0,2.84-.7A3.92,3.92,0,0,0,226.49,65l3.63.66a6.67,6.67,0,0,1-2.82,3.86A9.41,9.41,0,0,1,221.91,70.93Zm-5.55-12H226.6a5.37,5.37,0,0,0-1.36-3.75,4.62,4.62,0,0,0-3.58-1.48,5,5,0,0,0-2.71.73,5.26,5.26,0,0,0-1.84,1.91A5.77,5.77,0,0,0,216.36,59Z"/><path class="cls-1" d="M241.39,70.93a9,9,0,0,1-4.92-1.3A8.54,8.54,0,0,1,233.3,66a12.1,12.1,0,0,1-1.1-5.26,12,12,0,0,1,1.13-5.32,8.63,8.63,0,0,1,3.19-3.59,8.81,8.81,0,0,1,4.83-1.3,9.33,9.33,0,0,1,4,.83,7.2,7.2,0,0,1,2.84,2.32,7.06,7.06,0,0,1,1.29,3.47h-3.73a4.51,4.51,0,0,0-1.41-2.38,4.17,4.17,0,0,0-2.93-1,4.68,4.68,0,0,0-3.87,1.85,7.88,7.88,0,0,0-1.47,5,8.18,8.18,0,0,0,1.45,5.11,4.65,4.65,0,0,0,3.89,1.9,4.48,4.48,0,0,0,2.81-.9,4.19,4.19,0,0,0,1.53-2.49h3.73a7.32,7.32,0,0,1-1.24,3.41,7.2,7.2,0,0,1-2.78,2.36A9,9,0,0,1,241.39,70.93Z"/><path class="cls-1" d="M255.9,58.83V70.54h-3.84V44.24h3.78V54h.25a5.61,5.61,0,0,1,2.12-2.54,6.7,6.7,0,0,1,3.72-.93,6.63,6.63,0,0,1,4.9,1.87A7.63,7.63,0,0,1,268.68,58V70.54h-3.84V58.46a4.77,4.77,0,0,0-1.11-3.37,4,4,0,0,0-3.11-1.2,4.68,4.68,0,0,0-3.39,1.29A4.83,4.83,0,0,0,255.9,58.83Z"/><path class="cls-1" d="M51.47,5.42A37.64,37.64,0,1,1,7.91,36,37.64,37.64,0,0,1,51.47,5.42m.33-1.88A39.55,39.55,0,0,0,6.45,51.39,39.54,39.54,0,0,0,84,49.31,39.51,39.51,0,0,0,51.8,3.54Z"/><path class="cls-1" d="M61.25,16.27a.26.26,0,0,1,.41.25l-.53,2.77-.58,3.05a.26.26,0,0,1-.39.17l-1.83-1.15L56.5,20.2a.25.25,0,0,1,0-.42L59,17.94Zm-3.78,8.82L60,23.26a.26.26,0,0,0,0-.43l-1.83-1.15-1.83-1.16a.26.26,0,0,0-.39.17l-.58,3-.53,2.77a.26.26,0,0,0,.41.26Z"/><path class="cls-1" d="M28.73,68.73a.26.26,0,0,1-.41-.25l.53-2.77.58-3a.26.26,0,0,1,.39-.17l1.83,1.15,1.83,1.16a.25.25,0,0,1,0,.42L31,67.06Zm3.78-8.82L30,61.74a.26.26,0,0,0,0,.43l1.83,1.15,1.83,1.16a.26.26,0,0,0,.39-.17l.58-3.05.53-2.77a.26.26,0,0,0-.41-.26Z"/><path class="cls-1" d="M18.76,26.24a.26.26,0,0,1,.25-.41l2.78.53,3,.58a.26.26,0,0,1,.17.39l-1.15,1.83L22.69,31a.25.25,0,0,1-.42,0l-1.84-2.5ZM27.58,30l-1.83-2.5a.26.26,0,0,0-.43,0l-1.15,1.83L23,31.2a.26.26,0,0,0,.17.39l3.05.58L29,32.7a.26.26,0,0,0,.26-.41Z"/><path class="cls-1" d="M71.22,58.76a.26.26,0,0,1-.25.41l-2.77-.53-3-.58a.26.26,0,0,1-.17-.39l1.16-1.83L67.29,54a.25.25,0,0,1,.42,0l1.84,2.5ZM62.4,55l1.83,2.5a.26.26,0,0,0,.43,0l1.15-1.83L67,53.8a.26.26,0,0,0-.17-.39l-3-.58L61,52.3a.26.26,0,0,0-.26.41Z"/><path class="cls-1" d="M37.94,12.45a.26.26,0,0,1,.47-.11L40,14.68l1.75,2.57a.25.25,0,0,1-.16.39l-2.11.48-2.11.48a.25.25,0,0,1-.31-.29l.47-3.07Zm3.57,8.92L42,18.3a.25.25,0,0,0-.31-.29l-2.11.48L37.44,19a.25.25,0,0,0-.15.39L39,21.93l1.59,2.33a.25.25,0,0,0,.46-.1Z"/><path class="cls-1" d="M52,72.55a.26.26,0,0,1-.47.11L50,70.32l-1.74-2.57a.25.25,0,0,1,.15-.39l2.11-.48,2.11-.48a.25.25,0,0,1,.31.29l-.46,3.07Zm-3.57-8.92L48,66.7a.25.25,0,0,0,.31.29l2.11-.48L52.54,66a.25.25,0,0,0,.15-.39L51,63.07l-1.58-2.33a.26.26,0,0,0-.47.1Z"/><path class="cls-1" d="M14.94,49.55a.26.26,0,0,1-.11-.47l2.34-1.58,2.57-1.75a.25.25,0,0,1,.39.16L20.61,48l.48,2.11a.25.25,0,0,1-.29.31L17.73,50ZM23.86,46l-3.07-.46a.25.25,0,0,0-.29.31L21,47.94l.48,2.11a.25.25,0,0,0,.39.15l2.57-1.74,2.33-1.59a.25.25,0,0,0-.1-.46Z"/><path class="cls-1" d="M75,35.45a.26.26,0,0,1,.11.47L72.81,37.5l-2.57,1.75a.26.26,0,0,1-.39-.16L69.37,37l-.48-2.11a.25.25,0,0,1,.29-.31l3.07.46ZM66.12,39l3.07.46a.25.25,0,0,0,.29-.31L69,37.06,68.52,35a.25.25,0,0,0-.39-.15l-2.57,1.74-2.33,1.59a.25.25,0,0,0,.1.46Z"/><path class="cls-1" d="M78.88,48,63.62,43,55.2,40.23l6.47-6.13L73.36,23c1-1,.83-1.25-.43-.61L58.55,29.66l-8,4,.24-8.87.44-16.06c0-1.41-.3-1.47-.74-.13l-5,15.26-2.78,8.42-6.13-6.47L25.52,14.13c-1-1-1.25-.83-.61.43l7.24,14.38,4,8-8.87-.24-16.06-.44c-1.41,0-1.47.3-.13.74l15.26,5,8.42,2.78L28.31,50.9,16.62,62c-1,1-.83,1.25.44.61l14.37-7.24,8-4-.24,8.87-.44,16.06c0,1.41.3,1.47.74.13l5-15.26,2.78-8.42,6.13,6.47L64.46,70.87c1,1,1.25.83.61-.43L57.83,56.06l-4-8,8.87.24,16.06.44C80.16,48.82,80.22,48.48,78.88,48ZM43.7,49.87a7.48,7.48,0,1,1,8.66-6.08A7.48,7.48,0,0,1,43.7,49.87Z"/><path class="cls-1" d="M56.43,9.1a.13.13,0,0,1,.23.08l.06,1.43.06,1.57a.13.13,0,0,1-.17.12l-1-.35-1-.36a.13.13,0,0,1-.06-.21l1-1.19Z"/><path class="cls-1" d="M33.55,75.9a.13.13,0,0,1-.23-.08l-.06-1.43-.06-1.57a.13.13,0,0,1,.17-.12l1,.35,1,.36a.13.13,0,0,1,.06.21l-1,1.19Z"/><path class="cls-1" d="M78.39,53.94a.13.13,0,0,1-.08.23l-1.43.06-1.57.06a.13.13,0,0,1-.12-.17l.36-1,.35-1a.13.13,0,0,1,.21-.06l1.19,1Z"/><path class="cls-1" d="M11.59,31.06a.13.13,0,0,1,.08-.23l1.43-.06,1.57-.06a.13.13,0,0,1,.12.17l-.35,1-.36,1a.13.13,0,0,1-.21.06l-1.19-1Z"/><path class="cls-1" d="M76.69,27a.13.13,0,0,1,.11.22l-1,1-1.06,1.15a.13.13,0,0,1-.21,0l-.48-1-.48-1a.13.13,0,0,1,.11-.18l1.56-.12Z"/><path class="cls-1" d="M13.29,58a.13.13,0,0,1-.11-.22l1-1.05,1.06-1.15a.13.13,0,0,1,.21,0l.48,1,.48,1a.13.13,0,0,1-.11.18l-1.56.12Z"/><path class="cls-1" d="M60.52,74.2a.13.13,0,0,1-.22.11l-1-1L58.1,72.28a.13.13,0,0,1,0-.21l1-.48,1-.48a.13.13,0,0,1,.18.11l.12,1.56Z"/><path class="cls-1" d="M29.47,10.8a.13.13,0,0,1,.21-.11l1.05,1,1.15,1.06a.12.12,0,0,1,0,.21l-1,.48-1,.48a.13.13,0,0,1-.18-.11l-.12-1.56Z"/><path class="cls-1" d="M68.37,16.05a.13.13,0,0,1,.18.16l-.49,1.34L67.51,19a.12.12,0,0,1-.2.05l-.82-.72-.82-.73a.13.13,0,0,1,0-.21l1.4-.71Z"/><path class="cls-1" d="M21.61,69a.13.13,0,0,1-.18-.16l.49-1.34L22.47,66a.13.13,0,0,1,.21,0l.81.72.82.73a.13.13,0,0,1,0,.21l-1.4.71Z"/><path class="cls-1" d="M71.44,65.88a.13.13,0,0,1-.16.18l-1.34-.49L68.47,65a.12.12,0,0,1,0-.2l.72-.82.73-.82a.13.13,0,0,1,.21,0l.71,1.4Z"/><path class="cls-1" d="M18.54,19.12a.13.13,0,0,1,.16-.18l1.34.49,1.47.55a.12.12,0,0,1,0,.2l-.72.82-.73.82a.13.13,0,0,1-.21,0l-.71-1.4Z"/><path class="cls-1" d="M80.23,40.33a.13.13,0,0,1,0,.24l-1.3.6-1.42.65a.12.12,0,0,1-.18-.11l-.07-1.09-.06-1.09a.13.13,0,0,1,.17-.13l1.49.49Z"/><path class="cls-1" d="M9.76,44.67a.13.13,0,0,1,0-.24l1.3-.6,1.42-.65a.13.13,0,0,1,.19.11l.06,1.09.06,1.09a.13.13,0,0,1-.17.13l-1.49-.49Z"/><path class="cls-1" d="M47.16,77.73a.13.13,0,0,1-.24,0l-.6-1.3L45.67,75a.14.14,0,0,1,.11-.19l1.09-.06L48,74.72a.13.13,0,0,1,.13.17l-.49,1.49Z"/><path class="cls-1" d="M42.82,7.27a.13.13,0,0,1,.24,0l.6,1.3L44.32,10a.14.14,0,0,1-.12.19l-1.09.06L42,10.28a.13.13,0,0,1-.13-.17l.49-1.49Z"/><circle class="cls-1" cx="44.99" cy="42.5" r="2.39"/></svg>