<?xml version="1.0" encoding="utf-8"?>
<!-- Generator: Adobe Illustrator 27.0.1, SVG Export Plug-In . SVG Version: 6.00 Build 0)  -->
<svg version="1.1" id="Layer_1" xmlns="http://www.w3.org/2000/svg" xmlns:xlink="http://www.w3.org/1999/xlink" x="0px" y="0px"
	 viewBox="0 0 259.2 259.2" style="enable-background:new 0 0 259.2 259.2;" xml:space="preserve">
<style type="text/css">
	.st0{fill:#2E1A47;}
</style>
<path class="st0" d="M165.7,219.9H93.5c-2.8,0-5-2.2-5-5c0-15.2-3.1-28.6-7.6-40.7c-4.6-12.5-10.6-23.7-16.2-34.3
	c-9.5-17.8-18-33.7-18-50.9v-1c0.2-26.5,10.7-47.7,26.3-62.2c15.5-14.6,36.1-22.4,56.8-22.4c0.2,0,0.4,0,0.5,0.1h0.3
	c21.7,0.2,43.4,9.2,59,25.5c14,14.6,23.1,35,23.1,60.1c0,17.2-8.5,33.2-18,50.9c-11.2,21-23.9,44.6-23.9,75
	C170.8,217.6,168.6,219.9,165.7,219.9z M96.6,237.9c-2.7,0-5-2.2-5-5c0-2.7,2.3-5,5-5h66c2.7,0,5,2.3,5,5c0,2.8-2.3,5-5,5H96.6z
	 M119.6,137.9h20v-7c0-2.8,2.2-5,5-5c2.8,0,5,2.2,5,5v79h11.3c1.3-30.4,13.8-53.8,24.9-74.7c8.8-16.5,16.8-31.4,16.8-46.2
	c0-22.3-8.1-40.3-20.3-53.1c-13.7-14.4-32.7-22.2-51.9-22.4h-0.7c-18.1,0-36.3,6.9-50,19.7C66,45.9,56.8,64.5,56.6,88v0.9
	c0,14.8,8,29.7,16.8,46.2c5.8,11,12,22.6,16.8,35.6c4.4,11.9,7.5,24.8,8.1,39.2h11.3v-79c0-2.8,2.2-5,5-5c2.7,0,5,2.2,5,5V137.9z
	 M139.6,209.9v-62h-20v62H139.6z M102.5,255.9c-2.8,0-5-2.3-5-5s2.2-5,5-5h53.7c2.8,0,5,2.3,5,5s-2.2,5-5,5H102.5z"/>
</svg>
