<?xml version="1.0" encoding="UTF-8"?><svg id="Layer_1" xmlns="http://www.w3.org/2000/svg" viewBox="0 0 1003.95 276.69"><defs><style>.cls-1{fill:#fff;}.cls-2{fill:#2e1a47;}</style></defs><g><path class="cls-2" d="M238.25,138.34c0,55.18-44.73,99.91-99.91,99.91s-99.91-44.73-99.91-99.91S83.17,38.44,138.34,38.44s99.91,44.73,99.91,99.91"/><path class="cls-1" d="M138.34,41.63c53.41,0,96.71,43.3,96.71,96.71s-43.3,96.71-96.71,96.71-96.71-43.3-96.71-96.71S84.93,41.63,138.34,41.63m0-3.19c-13.49,0-26.57,2.64-38.89,7.85-11.9,5.03-22.58,12.24-31.76,21.41-9.17,9.17-16.38,19.86-21.41,31.76-5.21,12.32-7.85,25.4-7.85,38.89s2.64,26.57,7.85,38.89c5.03,11.9,12.24,22.58,21.41,31.76,9.17,9.17,19.86,16.38,31.76,21.41,12.32,5.21,25.4,7.85,38.89,7.85s26.57-2.64,38.89-7.85c11.9-5.03,22.58-12.24,31.76-21.41,9.17-9.17,16.38-19.86,21.41-31.76,5.21-12.32,7.85-25.4,7.85-38.89s-2.64-26.57-7.85-38.89c-5.03-11.9-12.24-22.58-21.41-31.76-9.17-9.17-19.86-16.38-31.76-21.41-12.32-5.21-25.4-7.85-38.89-7.85m77.66,99.06l-35.95-5.28-19.82-2.91,12.08-16.24,21.79-29.29c1.92-2.58,1.38-3.12-1.2-1.2l-29.29,21.79-16.24,12.08-2.91-19.82-5.28-35.95c-.46-3.17-1.23-3.17-1.69,0l-5.28,35.95-2.91,19.82-16.24-12.08-29.29-21.79c-2.58-1.92-3.12-1.38-1.2,1.2l21.79,29.29,12.08,16.24-19.82,2.91-35.95,5.28c-3.17,.47-3.17,1.23,0,1.69l35.95,5.28,19.82,2.91-12.08,16.24-21.79,29.29c-1.92,2.58-1.38,3.12,1.2,1.2l29.29-21.79,16.24-12.08,2.91,19.82,5.28,35.95c.47,3.17,1.23,3.17,1.69,0l5.28-35.95,2.91-19.82,16.24,12.08,29.29,21.79c2.58,1.92,3.12,1.38,1.2-1.2l-21.79-29.29-12.08-16.24,19.82-2.91,35.95-5.28c3.17-.46,3.17-1.23,0-1.69m-77.66,20.06c-10.61,0-19.22-8.6-19.22-19.22s8.6-19.22,19.22-19.22,19.22,8.6,19.22,19.22-8.6,19.22-19.22,19.22m0-25.37c-3.4,0-6.15,2.75-6.15,6.15s2.75,6.15,6.15,6.15,6.15-2.75,6.15-6.15-2.75-6.15-6.15-6.15M100.41,53.43c-.02-.45,.52-.68,.84-.37l3.83,3.82,4.21,4.19c.25,.24,.17,.66-.15,.8l-3.79,1.66-3.79,1.66c-.32,.14-.68-.09-.69-.43l-.23-5.93-.21-5.4Zm75.87,169.83c.02,.45-.52,.68-.84,.37l-3.83-3.82-4.21-4.19c-.25-.24-.17-.66,.15-.8l3.79-1.66,3.79-1.66c.32-.14,.68,.08,.69,.43l.23,5.93,.21,5.4Zm46.98-122.85c.45-.02,.68,.52,.37,.84l-3.82,3.83-4.19,4.21c-.24,.25-.66,.17-.8-.15l-1.66-3.79-1.66-3.79c-.14-.32,.08-.68,.43-.69l5.93-.23,5.4-.21ZM53.43,176.28c-.45,.02-.68-.52-.37-.84l3.82-3.83,4.19-4.21c.24-.25,.66-.17,.8,.15l1.66,3.79,1.66,3.79c.14,.32-.09,.67-.43,.69l-5.93,.23-5.4,.21ZM171.56,51.47c.3-.33,.85-.11,.85,.33v5.41s.02,5.94,.02,5.94c0,.35-.35,.58-.67,.46l-3.86-1.51-3.86-1.51c-.32-.13-.42-.54-.18-.79l4.03-4.36,3.67-3.97ZM105.12,225.21c-.3,.33-.85,.11-.85-.33v-5.41s-.02-5.94-.02-5.94c0-.35,.35-.58,.67-.46l3.86,1.51,3.86,1.51c.32,.13,.42,.54,.18,.79l-4.03,4.36-3.67,3.97Zm120.09-53.65c.33,.3,.11,.85-.33,.85h-5.41s-5.94,.02-5.94,.02c-.35,0-.58-.35-.46-.67l1.51-3.86,1.51-3.86c.13-.32,.54-.42,.79-.18l4.36,4.03,3.97,3.67ZM51.47,105.12c-.33-.3-.11-.85,.33-.85h5.41s5.94-.02,5.94-.02c.35,0,.58,.35,.46,.67l-1.51,3.86-1.51,3.86c-.13,.32-.54,.42-.79,.18l-4.36-4.03-3.97-3.67Z"/></g><g><path class="cls-1" d="M276.69,90.12h42.28c11.03,0,19.43,3.28,24.82,9.19,5.25,5.65,8.27,12.74,8.27,21.4,0,18.38-11.69,30.33-32.3,30.33h-24.69v36.76h-18.38V90.12Zm18.38,46.35h21.8c11.16,0,16.94-6.04,16.94-15.49s-6.04-15.23-16.68-15.23h-22.06v30.72Z"/><path class="cls-1" d="M378.97,130.3h.39c4.46-9.06,11.16-13.66,20.09-13.66,1.97,0,3.28,.13,4.46,.66v14.97h-.52c-1.58-.39-2.89-.53-4.6-.53-11.03-.13-19.3,7.35-19.3,20.88v35.19h-16.68V117.69h16.15v12.6Z"/><path class="cls-1" d="M409.31,152.88c0-20.88,14.05-37.03,35.85-37.03s35.58,16.15,35.58,37.03-13.79,37.03-35.58,37.03-35.85-16.28-35.85-37.03Zm54.49,0c0-14.18-6.56-24.68-18.78-24.68s-18.78,10.5-18.78,24.68,6.43,24.42,18.78,24.42,18.78-10.37,18.78-24.42Z"/><path class="cls-1" d="M483.49,117.69h17.46l10.24,32.69c3.02,9.45,5.91,23.5,5.91,23.5h.39s2.76-14.05,5.78-23.5l10.63-32.69h16.94l-24.82,70.12h-18.25l-24.29-70.12Z"/><path class="cls-1" d="M558.86,90.12h17.07v16.15h-17.07v-16.15Zm.26,27.57h16.68v70.12h-16.68V117.69Z"/><path class="cls-1" d="M587.35,152.88c0-22.32,12.61-37.03,30.46-37.03,9.72,0,16.94,4.6,21.53,11.95h.26c-.26-3.81-.52-9.32-.52-14.57v-23.11h16.67v97.69h-16.15v-10.24h-.26c-4.33,8.14-11.95,12.47-21.53,12.47-18.51,0-30.46-14.31-30.46-37.16Zm52.39,0c0-14.05-6.17-24.03-18.51-24.03-11.29,0-16.94,10.11-16.94,23.9s5.65,23.63,16.94,23.63c12.34,0,18.51-9.72,18.51-23.5Z"/><path class="cls-1" d="M667.45,152.88c0-20.88,14.05-37.03,34.79-37.03,10.24,0,18.25,3.55,24.16,9.85,6.83,7.22,10.11,18.25,9.98,31.25h-52.39c1.18,12.08,7.62,20.22,19.3,20.22,8.01,0,13.26-3.41,15.49-9.19h16.28c-3.41,12.6-14.71,21.93-31.91,21.93-22.32,0-35.71-16.28-35.71-37.03Zm16.81-6.43h34.93c-.66-11.55-6.83-18.51-16.94-18.51-10.9,0-16.54,7.48-17.99,18.51Z"/><path class="cls-1" d="M764.35,127.94h.39c4.6-7.75,11.95-12.08,21.8-12.08,15.1,0,24.16,9.32,24.16,24.42v47.53h-16.67v-44.77c0-8.27-4.86-13.39-13.39-13.39-9.32,0-15.89,7.09-15.89,17.07v41.1h-16.68V117.69h16.28v10.24Z"/><path class="cls-1" d="M821.86,152.88c0-20.88,13.79-37.03,35.32-37.03,17.86,0,29.15,10.11,31.64,25.21h-16.28c-1.58-7.62-6.83-12.47-15.23-12.47-12.21,0-18.51,10.11-18.51,24.29s6.3,24.03,18.51,24.03c9.19,0,14.71-5.38,15.62-14.57h16.28c-1.05,16.28-13,27.57-31.77,27.57-21.67,0-35.58-16.28-35.58-37.03Z"/><path class="cls-1" d="M896.57,152.88c0-20.88,14.05-37.03,34.79-37.03,10.24,0,18.25,3.55,24.16,9.85,6.83,7.22,10.11,18.25,9.98,31.25h-52.39c1.18,12.08,7.62,20.22,19.3,20.22,8.01,0,13.26-3.41,15.49-9.19h16.28c-3.41,12.6-14.71,21.93-31.91,21.93-22.32,0-35.71-16.28-35.71-37.03Zm16.81-6.43h34.93c-.66-11.55-6.83-18.51-16.94-18.51-10.9,0-16.54,7.48-17.99,18.51Z"/></g></svg>