<?xml version="1.0" encoding="UTF-8" standalone="no"?>
<!-- Created with Inkscape (http://www.inkscape.org/) -->

<svg
   version="1.1"
   id="svg1"
   width="4000"
   height="2000"
   viewBox="0 0 4000 2000"
   sodipodi:docname="md_emr.svg"
   inkscape:version="1.3 (0e150ed6c4, 2023-07-21)"
   xmlns:inkscape="http://www.inkscape.org/namespaces/inkscape"
   xmlns:sodipodi="http://sodipodi.sourceforge.net/DTD/sodipodi-0.dtd"
   xmlns="http://www.w3.org/2000/svg"
   xmlns:svg="http://www.w3.org/2000/svg">
  <defs
     id="defs1" />
  <sodipodi:namedview
     id="namedview1"
     pagecolor="#505050"
     bordercolor="#eeeeee"
     borderopacity="1"
     inkscape:showpageshadow="0"
     inkscape:pageopacity="0"
     inkscape:pagecheckerboard="0"
     inkscape:deskcolor="#505050"
     inkscape:zoom="0.5685"
     inkscape:cx="1999.1205"
     inkscape:cy="1000"
     inkscape:window-width="3440"
     inkscape:window-height="1351"
     inkscape:window-x="1911"
     inkscape:window-y="-9"
     inkscape:window-maximized="1"
     inkscape:current-layer="group-R5">
    <inkscape:page
       x="0"
       y="0"
       inkscape:label="1"
       id="page1"
       width="4000"
       height="2000"
       margin="0"
       bleed="0" />
  </sodipodi:namedview>
  <g
     id="g1"
     inkscape:groupmode="layer"
     inkscape:label="1">
    <g
       id="group-R5">
      <path
         id="path2"
         d="M 0,0 H 30000 V 15000 H 0 Z"
         style="display:none;fill:#87d0ce;fill-opacity:1;fill-rule:nonzero;stroke:none"
         transform="matrix(0.13333333,0,0,-0.13333333,0,2000)" />
      <path
         id="path3"
         d="m 15627.5,12790.7 c -25.6,0 -50.6,12.8 -65.3,36.1 -22.8,36 -11.8,83.9 24.3,106.7 l 2.5,1.6 c 12.5,7.5 26.2,11 39.7,11 26.2,0 51.8,-13.4 66.3,-37.5 21.9,-36.6 10.1,-84 -26.5,-106 -12.8,-8.1 -27,-11.9 -41,-11.9"
         style="fill:#c3e8e7;fill-opacity:1;fill-rule:nonzero;stroke:none"
         transform="matrix(0.13333333,0,0,-0.13333333,0,2000)" />
      <path
         id="path4"
         d="m 15938.4,12967.6 c -28,0 -55.1,15.3 -68.8,42 -19.5,37.9 -4.5,84.5 33.4,104 l 35.3,-68.7 -35.1,68.8 c 11.7,6.3 24.2,9.3 36.5,9.3 27.4,0 53.9,-14.7 67.9,-40.6 20.3,-37.4 6.1,-84.5 -31.4,-104.9 l -2.6,-1.3 c -11.3,-5.8 -23.3,-8.6 -35.2,-8.6"
         style="fill:#c3e8e7;fill-opacity:1;fill-rule:nonzero;stroke:none"
         transform="matrix(0.13333333,0,0,-0.13333333,0,2000)" />
      <path
         id="path5"
         d="m 14784.1,12132.6 c -20,0 -40,7.7 -55,23 -29.9,30.4 -29.7,79.2 0.7,109.1 l 1.4,1.3 c 15,14.4 34.3,21.7 53.6,21.7 20.2,0 40.4,-7.9 55.6,-23.6 29.6,-30.7 28.8,-79.6 -1.9,-109.3 -15.1,-14.8 -34.8,-22.2 -54.4,-22.2"
         style="fill:#c3e8e7;fill-opacity:1;fill-rule:nonzero;stroke:none"
         transform="matrix(0.13333333,0,0,-0.13333333,0,2000)" />
      <path
         id="path6"
         d="m 15330.9,12592.1 c -24.1,0 -47.9,11.3 -63,32.5 -24.7,34.7 -16.6,83 18.1,107.7 l 44.8,-62.9 -44.6,63 c 13.8,10.4 29.9,15.4 45.9,15.4 23.4,0 46.6,-10.8 61.8,-31.1 25.6,-34.1 18.4,-82.8 -15.8,-108.4 l -2.5,-1.9 c -13.5,-9.6 -29.2,-14.3 -44.7,-14.3"
         style="fill:#c3e8e7;fill-opacity:1;fill-rule:nonzero;stroke:none"
         transform="matrix(0.13333333,0,0,-0.13333333,0,2000)" />
      <path
         id="path7"
         d="m 15049.1,12372.2 c -22,0 -43.9,9.4 -59.2,27.6 -27.4,32.7 -23.1,81.4 9.5,108.8 l 0.9,0.8 c 14.5,12.1 32.1,18 49.6,18 22.1,0 44,-9.4 59.3,-27.6 27.4,-32.7 23.1,-81.4 -9.6,-108.8 l -0.9,-0.7 c -14.5,-12.2 -32.1,-18.1 -49.6,-18.1"
         style="fill:#c3e8e7;fill-opacity:1;fill-rule:nonzero;stroke:none"
         transform="matrix(0.13333333,0,0,-0.13333333,0,2000)" />
      <path
         id="path8"
         d="m 22765.9,10402.2 c -31.3,0 -60.8,19.2 -72.4,50.3 -15.7,39.7 3.9,84.4 43.6,100.1 9.2,3.6 18.8,5.4 28.2,5.4 30.8,0 60,-18.6 72,-49 l 0.9,-2.5 c 15,-39.9 -5.3,-84.4 -45.3,-99.4 -8.9,-3.3 -18,-4.9 -27,-4.9"
         style="fill:#c3e8e7;fill-opacity:1;fill-rule:nonzero;stroke:none"
         transform="matrix(0.13333333,0,0,-0.13333333,0,2000)" />
      <path
         id="path9"
         d="m 22976.2,9719.42 c -35.3,0 -67.1,24.28 -75.3,60.1 l -0.3,1.16 c -9.4,41.59 16.6,82.99 58.2,92.46 5.8,1.31 11.5,1.94 17.2,1.94 35.2,0 67.1,-24.27 75.3,-60.09 l 0.2,-1.16 c 9.5,-41.59 -16.5,-82.99 -58.1,-92.46 -5.8,-1.32 -11.6,-1.95 -17.2,-1.95"
         style="fill:#c3e8e7;fill-opacity:1;fill-rule:nonzero;stroke:none"
         transform="matrix(0.13333333,0,0,-0.13333333,0,2000)" />
      <path
         id="path10"
         d="m 22883.6,10064.7 c -32.9,0 -63.4,21.2 -73.7,54.3 l -0.5,1.4 c -12.5,40.7 10.4,84 51.2,96.5 7.5,2.3 15.2,3.5 22.7,3.5 33,0 63.6,-21.4 73.8,-54.6 l 0.3,-0.9 c 12.7,-40.7 -10.1,-84 -50.8,-96.7 -7.6,-2.4 -15.4,-3.5 -23,-3.5"
         style="fill:#c3e8e7;fill-opacity:1;fill-rule:nonzero;stroke:none"
         transform="matrix(0.13333333,0,0,-0.13333333,0,2000)" />
      <path
         id="path11"
         d="m 16936.1,13355.3 c -34.2,0 -65.6,22.6 -74.9,57.1 -11.1,41.2 13,83.4 54.2,94.5 l 1.6,0.5 c 6.6,1.7 13.2,2.5 19.7,2.5 34.3,0 65.5,-23 74.6,-57.6 10.9,-41.3 -13.8,-83.5 -55.1,-94.4 -6.7,-1.8 -13.5,-2.6 -20.1,-2.6"
         style="fill:#c3e8e7;fill-opacity:1;fill-rule:nonzero;stroke:none"
         transform="matrix(0.13333333,0,0,-0.13333333,0,2000)" />
      <path
         id="path12"
         d="m 16593.4,13250.3 c -31.7,0 -61.4,19.8 -72.7,51.5 -14.3,40.1 6.9,84.4 47.1,98.6 l 2.6,0.9 c 8.1,2.7 16.3,4 24.4,4 32.3,0 62.5,-20.4 73.3,-52.8 13.5,-40.5 -8.4,-84.2 -48.9,-97.7 -8.5,-3.1 -17.2,-4.5 -25.8,-4.5"
         style="fill:#c3e8e7;fill-opacity:1;fill-rule:nonzero;stroke:none"
         transform="matrix(0.13333333,0,0,-0.13333333,0,2000)" />
      <path
         id="path13"
         d="m 16260.9,13121.1 c -29.9,0 -58.3,17.4 -71,46.6 -16.9,39.1 1.1,84.6 40.3,101.5 l 1.1,0.5 c 10,4.3 20.4,6.3 30.6,6.3 29.9,0 58.3,-17.4 70.9,-46.6 17,-39.1 -1,-84.6 -40.2,-101.5 l -1.1,-0.5 c -10,-4.3 -20.4,-6.3 -30.6,-6.3"
         style="fill:#c3e8e7;fill-opacity:1;fill-rule:nonzero;stroke:none"
         transform="matrix(0.13333333,0,0,-0.13333333,0,2000)" />
      <path
         id="path14"
         d="m 17284,13434.4 c -36.5,0 -68.9,25.9 -75.9,63 -7.8,41.9 19.8,82.3 61.7,90.2 l 1.2,0.2 c 4.8,0.9 9.6,1.3 14.3,1.3 36.5,0 68.9,-25.9 75.8,-63 7.9,-41.9 -19.7,-82.3 -61.6,-90.2 l -1.2,-0.2 c -4.8,-0.9 -9.6,-1.3 -14.3,-1.3"
         style="fill:#c3e8e7;fill-opacity:1;fill-rule:nonzero;stroke:none"
         transform="matrix(0.13333333,0,0,-0.13333333,0,2000)" />
      <path
         id="path15"
         d="m 23043.2,9368.31 c -37.6,0 -70.6,27.48 -76.3,65.79 l -0.2,1.17 c -6.3,42.19 22.7,81.52 64.9,87.84 3.9,0.59 7.8,0.87 11.6,0.87 37.5,0 70.5,-27.49 76.3,-65.79 l 0.1,-1.17 c 6.4,-42.19 -22.7,-81.52 -64.9,-87.85 -3.9,-0.58 -7.7,-0.86 -11.5,-0.86"
         style="fill:#c3e8e7;fill-opacity:1;fill-rule:nonzero;stroke:none"
         transform="matrix(0.13333333,0,0,-0.13333333,0,2000)" />
      <path
         id="path16"
         d="m 23084.5,9012.77 c -39.2,0 -72.9,30.17 -76.9,70.04 l -0.3,3.16 c -3.1,42.54 28.8,79.58 71.4,82.74 1.9,0.14 3.8,0.21 5.7,0.21 40,0 74,-30.93 77,-71.54 l -77,-5.7 77,5.52 c 4.3,-42.44 -26.8,-79.81 -69.2,-84.05 -2.6,-0.26 -5.1,-0.38 -7.7,-0.38"
         style="fill:#c3e8e7;fill-opacity:1;fill-rule:nonzero;stroke:none"
         transform="matrix(0.13333333,0,0,-0.13333333,0,2000)" />
      <path
         id="path17"
         d="m 13501.6,10013 c -7.5,0 -15.2,1.1 -22.7,3.4 -40.8,12.6 -63.7,55.8 -51.1,96.6 l 73.8,-22.7 -73.8,22.9 c 9.7,33.9 40.5,55.8 74,55.8 7.1,0 14.3,-1 21.4,-3 41.1,-11.8 64.7,-54.8 53,-95.8 l -0.8,-2.7 c -10.2,-33.2 -40.8,-54.5 -73.8,-54.5"
         style="fill:#c3e8e7;fill-opacity:1;fill-rule:nonzero;stroke:none"
         transform="matrix(0.13333333,0,0,-0.13333333,0,2000)" />
      <path
         id="path18"
         d="m 13754.2,10682.2 c -10.7,0 -21.6,2.2 -32,7 -38.8,17.8 -55.9,63.3 -38.1,102 l 0.7,1.5 c 13.1,28.1 40.9,44.6 70,44.6 11,0 22.1,-2.3 32.6,-7.2 38.7,-18 55.4,-64 37.4,-102.6 -13,-28.4 -41.2,-45.3 -70.6,-45.3"
         style="fill:#c3e8e7;fill-opacity:1;fill-rule:nonzero;stroke:none"
         transform="matrix(0.13333333,0,0,-0.13333333,0,2000)" />
      <path
         id="path19"
         d="m 13916.7,11000.5 c -12.8,0 -25.8,3.2 -37.8,10 -37.2,20.9 -50.3,68 -29.4,105.2 l 67.3,-37.9 -67.2,38.1 c 13.9,25.9 40.3,40.5 67.8,40.5 12.3,0 24.9,-2.9 36.6,-9.2 37.6,-20.1 51.6,-67.2 31.5,-104.8 l -1.4,-2.5 c -14.2,-25.2 -40.4,-39.4 -67.4,-39.4"
         style="fill:#c3e8e7;fill-opacity:1;fill-rule:nonzero;stroke:none"
         transform="matrix(0.13333333,0,0,-0.13333333,0,2000)" />
      <path
         id="path20"
         d="m 13615.6,10351.7 c -8.9,0 -17.9,1.6 -26.8,4.8 -40,14.8 -60.5,59.3 -45.7,99.3 l 0.9,2.5 c 11.9,30.5 41.1,49.2 72,49.2 9.3,0 18.8,-1.7 28,-5.3 39.8,-15.5 59.5,-60.3 44,-100 -11.5,-31.2 -41,-50.5 -72.4,-50.5"
         style="fill:#c3e8e7;fill-opacity:1;fill-rule:nonzero;stroke:none"
         transform="matrix(0.13333333,0,0,-0.13333333,0,2000)" />
      <path
         id="path21"
         d="m 14102,11306.3 c -14.4,0 -28.9,4 -42,12.4 -35.8,23.2 -45.9,71.2 -22.7,107 l 1.5,2.3 c 14.9,22.1 39.2,34 64,34 14.9,0 30,-4.3 43.3,-13.3 35.3,-23.9 44.5,-71.9 20.6,-107.3 -14.7,-22.7 -39.4,-35.1 -64.7,-35.1"
         style="fill:#c3e8e7;fill-opacity:1;fill-rule:nonzero;stroke:none"
         transform="matrix(0.13333333,0,0,-0.13333333,0,2000)" />
      <path
         id="path22"
         d="m 14309.2,11598.1 c -16.7,0 -33.4,5.3 -47.5,16.4 -33.6,26.2 -39.6,74.7 -13.4,108.3 15.2,20.1 38.3,30.7 61.7,30.7 15.9,0 32,-4.9 45.8,-15.1 34.3,-25.3 41.6,-73.7 16.3,-108 l -2,-2.6 c -15.2,-19.5 -38,-29.7 -60.9,-29.7"
         style="fill:#c3e8e7;fill-opacity:1;fill-rule:nonzero;stroke:none"
         transform="matrix(0.13333333,0,0,-0.13333333,0,2000)" />
      <path
         id="path23"
         d="m 14536.9,11874.2 c -18.1,0 -36.4,6.3 -51,19.3 -31.9,28.3 -35.1,76.9 -6.8,108.8 l 1.2,1.4 c 15.3,16.9 36.3,25.5 57.4,25.5 18.4,0 36.9,-6.5 51.7,-19.8 31.7,-28.5 34.3,-77.4 5.7,-109.1 -15.3,-17.3 -36.7,-26.1 -58.2,-26.1"
         style="fill:#c3e8e7;fill-opacity:1;fill-rule:nonzero;stroke:none"
         transform="matrix(0.13333333,0,0,-0.13333333,0,2000)" />
      <path
         id="path24"
         d="m 21829.5,11912.4 c -3.9,0 -7.9,0.3 -11.8,0.9 4.2,51.4 8.4,103 12.5,154.5 20.5,-0.5 40.8,-9.1 55.6,-25.6 l -57.4,-51.6 57.6,51.5 c 29.1,-31.2 27.3,-79.9 -3.9,-109 -14.8,-13.9 -33.7,-20.7 -52.6,-20.7"
         style="fill:#c3e8e7;fill-opacity:1;fill-rule:nonzero;stroke:none"
         transform="matrix(0.13333333,0,0,-0.13333333,0,2000)" />
      <path
         id="path25"
         d="m 21850.6,5352.1 c -18.2,0 -36.4,6.39 -51.1,19.41 -32,28.29 -34.9,77.06 -6.7,109 l 1.3,1.34 c 15.2,16.95 36.2,25.58 57.4,25.58 18.4,0 36.9,-6.54 51.6,-19.83 31.7,-28.53 34.3,-77.37 5.8,-109.08 l -0.4,-0.41 c -15.3,-17.22 -36.5,-26.01 -57.9,-26.01"
         style="fill:#c3e8e7;fill-opacity:1;fill-rule:nonzero;stroke:none"
         transform="matrix(0.13333333,0,0,-0.13333333,0,2000)" />
      <path
         id="path26"
         d="m 22079.4,5626.88 c -15.9,0 -32,4.93 -45.8,15.11 -34.3,25.36 -41.6,73.71 -16.3,108.03 l 2,2.6 c 15.3,19.5 38,29.7 61,29.7 16.6,0 33.3,-5.35 47.4,-16.38 33.6,-26.23 39.6,-74.68 13.5,-108.3 -15.2,-20.11 -38.3,-30.76 -61.8,-30.76 m 0.8,78.19 14.5,-11.4 2,-1.53 -16.5,12.93"
         style="fill:#c3e8e7;fill-opacity:1;fill-rule:nonzero;stroke:none"
         transform="matrix(0.13333333,0,0,-0.13333333,0,2000)" />
      <path
         id="path27"
         d="m 22287.7,5917.65 c -15.1,0 -30.3,4.4 -43.7,13.57 -34.9,23.99 -43.9,71.63 -20.4,106.74 14.9,22.65 39.6,35 64.9,35 14.4,0 28.9,-4.01 41.9,-12.4 35.7,-23.21 46,-70.85 22.9,-106.63 l -1.9,-2.75 c -14.9,-21.81 -39.1,-33.53 -63.7,-33.53"
         style="fill:#c3e8e7;fill-opacity:1;fill-rule:nonzero;stroke:none"
         transform="matrix(0.13333333,0,0,-0.13333333,0,2000)" />
      <path
         id="path28"
         d="m 22269.9,11350 c -25.2,0 -49.8,12.3 -64.7,34.9 -24.1,35.2 -15.1,83.1 20.1,107.2 13.3,9.2 28.5,13.5 43.5,13.5 24.7,0 49,-11.8 64,-33.6 l 1.5,-2.3 c 23.5,-35.7 13.5,-83.6 -22.1,-107 -13.1,-8.6 -27.8,-12.7 -42.3,-12.7"
         style="fill:#c3e8e7;fill-opacity:1;fill-rule:nonzero;stroke:none"
         transform="matrix(0.13333333,0,0,-0.13333333,0,2000)" />
      <path
         id="path29"
         d="m 21336.6,4855.8 c -22.1,0 -44,9.4 -59.3,27.6 -27.4,32.7 -23.1,81.4 9.6,108.8 l 0.9,0.8 c 14.5,12.13 32.1,18.06 49.6,18.06 22,0 43.9,-9.39 59.2,-27.66 27.4,-32.6 23.1,-81.3 -9.5,-108.8 l -1,-0.7 c -14.4,-12.2 -32,-18.1 -49.5,-18.1"
         style="fill:#c3e8e7;fill-opacity:1;fill-rule:nonzero;stroke:none"
         transform="matrix(0.13333333,0,0,-0.13333333,0,2000)" />
      <path
         id="path30"
         d="m 21312.2,12405.3 c -17.1,0 -34.2,5.5 -48.5,16.9 l -2.4,2 c -32.7,27.4 -37,76.2 -9.6,108.8 15.3,18.3 37.2,27.6 59.2,27.6 17.5,0 35.2,-5.9 49.6,-18 l -49.6,-59.2 49.8,59.1 c 33.3,-26.6 38.5,-74.9 11.9,-108.3 -15.2,-19.1 -37.7,-28.9 -60.4,-28.9"
         style="fill:#c3e8e7;fill-opacity:1;fill-rule:nonzero;stroke:none"
         transform="matrix(0.13333333,0,0,-0.13333333,0,2000)" />
      <path
         id="path31"
         d="m 21639.1,12196.1 c -39.7,0 -79.5,0 -119.2,0 -25.6,29.9 -24.8,75 3.2,103.9 15.1,15.7 35.3,23.6 55.5,23.6 19.4,0 38.7,-7.2 53.7,-21.7 l -53.7,-55.5 53.9,55.3 c 30.1,-28 32.6,-74.3 6.6,-105.6"
         style="fill:#c3e8e7;fill-opacity:1;fill-rule:nonzero;stroke:none"
         transform="matrix(0.13333333,0,0,-0.13333333,0,2000)" />
      <path
         id="path32"
         d="m 21602.6,5094.66 c -20,0 -40,7.73 -55.1,23.14 -29.9,30.43 -29.5,79.24 0.9,109.13 l 1.4,1.3 c 15,14.47 34.3,21.67 53.6,21.67 20.2,0 40.4,-7.9 55.6,-23.59 29.6,-30.69 28.8,-79.59 -1.9,-109.22 l -0.4,-0.36 c -15,-14.71 -34.6,-22.07 -54.1,-22.07"
         style="fill:#c3e8e7;fill-opacity:1;fill-rule:nonzero;stroke:none"
         transform="matrix(0.13333333,0,0,-0.13333333,0,2000)" />
      <path
         id="path33"
         d="m 21054,4637.1 c -23.9,0 -47.5,11.1 -62.6,31.9 -25,34.5 -17.4,82.7 17,107.7 l 1.6,1.2 c 13.6,9.6 29.3,14.3 44.8,14.3 24.1,0 47.9,-11.3 63,-32.5 24.7,-34.7 16.6,-82.9 -18.2,-107.7 l -44.8,62.9 44.5,-63.1 c -13.7,-9.9 -29.6,-14.7 -45.3,-14.7"
         style="fill:#c3e8e7;fill-opacity:1;fill-rule:nonzero;stroke:none"
         transform="matrix(0.13333333,0,0,-0.13333333,0,2000)" />
      <path
         id="path34"
         d="m 22983.9,7555.03 c -5,0 -10.1,0.49 -15.2,1.51 -41.8,8.38 -69,49.07 -60.6,90.89 l 0.7,3.18 c 8.2,35.83 40,60.09 75.3,60.09 5.6,0 11.4,-0.63 17.2,-1.94 41.5,-9.48 67.6,-50.85 58.1,-92.42 -7.6,-36.28 -39.7,-61.31 -75.5,-61.31 m 0.2,78.42 18.6,-4.29 2.6,-0.55 -21.2,4.84"
         style="fill:#c3e8e7;fill-opacity:1;fill-rule:nonzero;stroke:none"
         transform="matrix(0.13333333,0,0,-0.13333333,0,2000)" />
      <path
         id="path35"
         d="m 23048.5,7906.63 c -3.8,0 -7.6,0.28 -11.5,0.84 -42.1,6.25 -71.3,45.53 -65.1,87.73 l 0.2,1.31 c 5.8,38.33 38.8,65.79 76.4,65.79 3.8,0 7.6,-0.28 11.5,-0.86 42.2,-6.33 71.3,-45.66 64.9,-87.84 l -0.1,-1.04 c -5.7,-38.37 -38.7,-65.93 -76.3,-65.93"
         style="fill:#c3e8e7;fill-opacity:1;fill-rule:nonzero;stroke:none"
         transform="matrix(0.13333333,0,0,-0.13333333,0,2000)" />
      <path
         id="path36"
         d="m 22893.8,7208.66 c -7,0 -14.1,0.96 -21.2,2.95 -41.1,11.58 -64.8,54.66 -53.3,95.71 l 0.9,2.89 c 10.2,33.22 40.8,54.54 73.8,54.54 7.5,0 15.2,-1.1 22.7,-3.43 40.8,-12.55 63.7,-55.76 51.1,-96.54 l -73.8,22.71 73.8,-22.9 c -9.6,-33.98 -40.4,-55.92 -74,-55.93"
         style="fill:#c3e8e7;fill-opacity:1;fill-rule:nonzero;stroke:none"
         transform="matrix(0.13333333,0,0,-0.13333333,0,2000)" />
      <path
         id="path37"
         d="m 23087.1,8261.98 c -1.9,0 -3.8,0.07 -5.7,0.21 -42.6,3.16 -74.5,40.2 -71.4,82.74 l 0.1,1.19 c 3,40.62 36.8,71.53 77,71.53 1.9,0 3.8,-0.07 5.8,-0.21 42.5,-3.15 74.5,-40.19 71.3,-82.73 l -0.1,-1.19 c -3,-40.6 -36.9,-71.54 -77,-71.54"
         style="fill:#c3e8e7;fill-opacity:1;fill-rule:nonzero;stroke:none"
         transform="matrix(0.13333333,0,0,-0.13333333,0,2000)" />
      <path
         id="path38"
         d="m 23100,8619.2 c -42.7,0 -77.3,34.57 -77.3,77.24 v 1.18 c 0,6.05 0.7,11.93 2.1,17.58 -1.3,5.22 -2,10.65 -2.2,16.21 v 3.1 c 0,42.65 34.6,77.24 77.3,77.24 42.6,0 77.2,-34.59 77.2,-77.24 h -9.2 v -0.16 l 9.2,-0.03 c 0.2,-6.56 -0.5,-12.94 -1.9,-19.04 1.3,-5.68 2,-11.58 2,-17.66 v -1.18 c 0,-42.67 -34.6,-77.24 -77.2,-77.24"
         style="fill:#c3e8e7;fill-opacity:1;fill-rule:nonzero;stroke:none"
         transform="matrix(0.13333333,0,0,-0.13333333,0,2000)" />
      <path
         id="path39"
         d="m 22778.3,6869.85 c -9,0 -18.1,1.56 -27,4.84 -40,14.74 -60.4,59.51 -45.6,99.54 l 1.1,2.77 c 12,30.38 41.1,48.91 71.8,48.91 9.5,0 19.1,-1.75 28.4,-5.42 39.6,-15.66 59.1,-60.53 43.4,-100.2 l -71.8,28.35 71.8,-28.54 c -11.5,-31.15 -40.8,-50.25 -72.1,-50.25"
         style="fill:#c3e8e7;fill-opacity:1;fill-rule:nonzero;stroke:none"
         transform="matrix(0.13333333,0,0,-0.13333333,0,2000)" />
      <path
         id="path40"
         d="m 22474.3,6222.85 c -12.9,0 -25.9,3.22 -37.9,9.96 -37.2,20.95 -50.3,68.05 -29.4,105.21 l 0.6,1.04 c 14.2,25.19 40.4,39.35 67.4,39.35 12.8,0 25.8,-3.21 37.8,-9.97 37.2,-20.93 50.3,-68.04 29.4,-105.21 l -0.6,-1.03 c -14.2,-25.18 -40.4,-39.35 -67.3,-39.35"
         style="fill:#c3e8e7;fill-opacity:1;fill-rule:nonzero;stroke:none"
         transform="matrix(0.13333333,0,0,-0.13333333,0,2000)" />
      <path
         id="path41"
         d="m 22624.3,10729.6 c -28.6,0 -56.2,16 -69.7,43.4 l -1.3,2.6 c -18,38.7 -1.2,84.6 37.4,102.7 10.6,4.9 21.7,7.2 32.6,7.2 29.1,0 57,-16.5 70,-44.6 l -70,-32.7 70.1,32.5 c 18.9,-38.3 3,-84.3 -35.2,-103.1 -10.9,-5.4 -22.5,-8 -33.9,-8"
         style="fill:#c3e8e7;fill-opacity:1;fill-rule:nonzero;stroke:none"
         transform="matrix(0.13333333,0,0,-0.13333333,0,2000)" />
      <path
         id="path42"
         d="m 22458.2,11046.4 c -26.9,0 -53.1,14.2 -67.3,39.3 -21.2,37.1 -8.5,84.6 28.5,105.7 12.2,7 25.4,10.3 38.5,10.3 26.7,0 52.5,-13.8 66.7,-38.7 l 0.9,-1.4 c 20.9,-37.2 7.7,-84.3 -29.4,-105.2 -12,-6.8 -25,-10 -37.9,-10"
         style="fill:#c3e8e7;fill-opacity:1;fill-rule:nonzero;stroke:none"
         transform="matrix(0.13333333,0,0,-0.13333333,0,2000)" />
      <path
         id="path43"
         d="m 22638.1,6540.95 c -11.5,0 -23.2,2.57 -34.1,7.99 -38.1,18.74 -53.8,64.61 -35.5,102.74 13.1,28.09 41.1,44.69 70.2,44.69 10.8,0 21.8,-2.27 32.2,-7.08 38.7,-17.85 55.7,-63.52 37.9,-102.25 l -1.4,-3 c -13.5,-27.27 -40.8,-43.09 -69.3,-43.09"
         style="fill:#c3e8e7;fill-opacity:1;fill-rule:nonzero;stroke:none"
         transform="matrix(0.13333333,0,0,-0.13333333,0,2000)" />
      <path
         id="path44"
         d="m 22059.8,11639.2 c -22.8,0 -45.3,10 -60.5,29.2 l -1.2,1.5 c -26.2,33.6 -20.3,82.1 13.4,108.4 14.1,11 30.8,16.4 47.5,16.4 22.9,0 45.7,-10.3 60.9,-29.7 l 0.3,-0.5 c 26.6,-33.4 21,-82 -12.4,-108.5 -14.2,-11.3 -31.2,-16.8 -48,-16.8"
         style="fill:#c3e8e7;fill-opacity:1;fill-rule:nonzero;stroke:none"
         transform="matrix(0.13333333,0,0,-0.13333333,0,2000)" />
      <path
         id="path45"
         d="m 18352.6,13517.6 c -1,0 -2,0.1 -2.9,0.1 -42.7,1 -76.5,36.5 -75.5,79.1 1.1,42.1 35.6,75.4 77.4,75.4 0.5,0 1.1,-0.1 1.6,-0.1 h 2.2 c 42.7,-1.6 76,-37.5 74.3,-80.1 -1.5,-41.6 -35.8,-74.4 -77.1,-74.4"
         style="fill:#c3e8e7;fill-opacity:1;fill-rule:nonzero;stroke:none"
         transform="matrix(0.13333333,0,0,-0.13333333,0,2000)" />
      <path
         id="path46"
         d="m 19063.3,13444.2 c -4.4,0 -8.9,0.4 -13.4,1.2 l -1.2,0.2 c -42,7.3 -70.1,47.4 -62.8,89.4 6.6,37.5 39.3,63.9 76.1,63.9 4.4,0 8.8,-0.3 13.3,-1.1 l 1.2,-0.2 c 42,-7.4 70.1,-47.4 62.8,-89.4 -6.6,-37.5 -39.2,-64 -76,-64"
         style="fill:#c3e8e7;fill-opacity:1;fill-rule:nonzero;stroke:none"
         transform="matrix(0.13333333,0,0,-0.13333333,0,2000)" />
      <path
         id="path47"
         d="m 18709.3,13493.9 c -2.8,0 -5.7,0.1 -8.5,0.4 -42.5,4.3 -73.7,42.1 -69.4,84.6 4,39.8 37.4,69.6 76.5,69.6 2.6,0 5.2,-0.1 7.8,-0.4 l 1.9,-0.2 c 42.4,-4.7 73,-42.8 68.4,-85.2 -4.4,-39.6 -37.8,-68.8 -76.7,-68.8"
         style="fill:#c3e8e7;fill-opacity:1;fill-rule:nonzero;stroke:none"
         transform="matrix(0.13333333,0,0,-0.13333333,0,2000)" />
      <path
         id="path48"
         d="m 17637.4,13488 c -38.8,0 -72.3,29.1 -76.7,68.6 -4.8,42.4 25.7,80.6 68.1,85.4 h 0.5 c 3.1,0.4 6.2,0.6 9.2,0.6 38.6,0 72,-28.8 76.7,-68 5.1,-42.3 -24.9,-80.8 -67.2,-85.9 l -1.9,-0.3 c -2.9,-0.3 -5.9,-0.4 -8.7,-0.4"
         style="fill:#c3e8e7;fill-opacity:1;fill-rule:nonzero;stroke:none"
         transform="matrix(0.13333333,0,0,-0.13333333,0,2000)" />
      <path
         id="path49"
         d="m 17993.8,13515.7 c -41.4,0 -75.6,32.7 -77.2,74.3 -1.6,42.7 31.7,78.5 74.3,80.1 l 2.9,-77.2 -2.5,77.2 c 1.2,0.1 2.3,0.1 3.4,0.1 41.1,0 75.4,-32.3 77.3,-73.7 1.9,-42.5 -30.7,-78.6 -73.2,-80.7 l -2.1,-0.1 c -1,0 -1.9,0 -2.9,0"
         style="fill:#c3e8e7;fill-opacity:1;fill-rule:nonzero;stroke:none"
         transform="matrix(0.13333333,0,0,-0.13333333,0,2000)" />
      <path
         id="path50"
         d="m 20444.9,4264 c -28,0 -55,15.3 -68.7,41.9 -19.5,38 -4.6,84.5 33.4,104 l 1,0.6 c 11.3,5.8 23.4,8.5 35.3,8.5 28,0 55.1,-15.3 68.7,-41.9 19.5,-38 4.6,-84.5 -33.4,-104 l -1,-0.6 c -11.3,-5.8 -23.4,-8.5 -35.3,-8.5"
         style="fill:#c3e8e7;fill-opacity:1;fill-rule:nonzero;stroke:none"
         transform="matrix(0.13333333,0,0,-0.13333333,0,2000)" />
      <path
         id="path51"
         d="m 20415.6,12991.8 c -11.5,0 -23,2.5 -34,7.9 l -2.5,1.2 c -38,19.5 -52.9,66.1 -33.4,104 13.6,26.7 40.7,42 68.7,42 11.9,0 24,-2.7 35.3,-8.6 l -35.3,-68.7 35.5,68.7 c 38.3,-18.7 54,-64.8 35.3,-103.1 -13.3,-27.5 -41,-43.4 -69.6,-43.4"
         style="fill:#c3e8e7;fill-opacity:1;fill-rule:nonzero;stroke:none"
         transform="matrix(0.13333333,0,0,-0.13333333,0,2000)" />
      <path
         id="path52"
         d="m 20756.2,4439.4 c -25.9,0 -51.3,13 -65.9,36.8 -22.3,36.3 -10.9,83.9 25.4,106.2 12.7,7.9 26.9,11.6 40.9,11.6 25.9,0 51.3,-12.9 65.8,-36.4 22.5,-36.3 11.6,-83.7 -24.7,-106.1 l -1.1,-0.7 c -12.6,-7.7 -26.6,-11.4 -40.4,-11.4"
         style="fill:#c3e8e7;fill-opacity:1;fill-rule:nonzero;stroke:none"
         transform="matrix(0.13333333,0,0,-0.13333333,0,2000)" />
      <path
         id="path53"
         d="m 19412.7,13368.8 c -6.2,0 -12.5,0.8 -18.8,2.4 l -1.6,0.4 c -41.3,10.6 -66.2,52.6 -55.6,94 8.9,34.8 40.2,58 74.7,58 6.4,0 12.8,-0.7 19.3,-2.4 l 0.7,-0.2 c 41.3,-10.3 66.5,-52.3 56.2,-93.6 -8.8,-35.1 -40.3,-58.6 -74.9,-58.6"
         style="fill:#c3e8e7;fill-opacity:1;fill-rule:nonzero;stroke:none"
         transform="matrix(0.13333333,0,0,-0.13333333,0,2000)" />
      <path
         id="path54"
         d="m 20728.2,12818.3 c -13.8,0 -27.9,3.8 -40.5,11.6 -36.6,21.9 -48.5,69.4 -26.6,106 14.5,24.1 40.1,37.5 66.3,37.5 13.5,0 27.2,-3.5 39.6,-11 l 1.9,-1.1 c 36.3,-22.4 47.5,-70 25.1,-106.3 -14.6,-23.7 -39.9,-36.7 -65.8,-36.7"
         style="fill:#c3e8e7;fill-opacity:1;fill-rule:nonzero;stroke:none"
         transform="matrix(0.13333333,0,0,-0.13333333,0,2000)" />
      <path
         id="path55"
         d="m 19755.6,13268 c -8,0 -16.1,1.2 -24.1,3.9 l -1.5,0.4 c -40.4,13.5 -62.3,57.3 -48.8,97.7 10.8,32.4 40.9,52.9 73.3,52.9 8,0 16.3,-1.3 24.4,-4 l 0.8,-0.3 c 40.6,-13.3 62.6,-57 49.3,-97.5 -10.7,-32.5 -40.9,-53.1 -73.4,-53.1"
         style="fill:#c3e8e7;fill-opacity:1;fill-rule:nonzero;stroke:none"
         transform="matrix(0.13333333,0,0,-0.13333333,0,2000)" />
      <path
         id="path56"
         d="m 20090.6,13142 c -10.2,0 -20.6,2.1 -30.6,6.4 -39.5,16.1 -58.3,61.1 -42.2,100.6 12.2,29.9 41.2,48 71.7,48 9.7,0 19.6,-1.8 29.2,-5.7 l 2.6,-1.1 c 39.2,-16.9 57.2,-62.4 40.2,-101.6 -12.6,-29.1 -41,-46.6 -70.9,-46.6"
         style="fill:#c3e8e7;fill-opacity:1;fill-rule:nonzero;stroke:none"
         transform="matrix(0.13333333,0,0,-0.13333333,0,2000)" />
      <path
         id="path57"
         d="m 21027.5,12622.5 c -15.5,0 -31.1,4.6 -44.7,14.3 l -1,0.7 c -34.7,24.7 -42.8,73 -18.1,107.7 15.1,21.2 38.8,32.5 63,32.5 15.5,0 31.1,-4.7 44.7,-14.4 l 1,-0.7 c 34.7,-24.7 42.9,-72.9 18.1,-107.7 -15.1,-21.1 -38.8,-32.4 -63,-32.4"
         style="fill:#c3e8e7;fill-opacity:1;fill-rule:nonzero;stroke:none"
         transform="matrix(0.13333333,0,0,-0.13333333,0,2000)" />
      <path
         id="path58"
         d="m 14211.6,1653.5 h 1854.7 v 1733 h -1854.7 v -1733"
         style="fill:#2c5663;fill-opacity:1;fill-rule:nonzero;stroke:none"
         transform="matrix(0.13333333,0,0,-0.13333333,0,2000)" />
      <path
         id="path59"
         d="m 13429.2,1505.8 h 3419.4 V 1730 h -3419.4 v -224.2"
         style="fill:#397381;fill-opacity:1;fill-rule:nonzero;stroke:none"
         transform="matrix(0.13333333,0,0,-0.13333333,0,2000)" />
      <path
         id="path60"
         d="M 20608.7,9961.07 10253,9879.7 c -39.1,0 -71.6,-29.95 -74.9,-68.9 L 9494.16,3468.1 c -3.7,-43.9 34,-162.9 148.45,-162.9 H 20158.9 c 39,0 71.6,29.9 74.9,68.9 l 541.5,6424.07 c 15.3,143.67 -122.5,162.9 -166.6,162.9"
         style="fill:#22444e;fill-opacity:1;fill-rule:nonzero;stroke:none"
         transform="matrix(0.13333333,0,0,-0.13333333,0,2000)" />
      <path
         id="path61"
         d="M 20608.7,9961.07 H 10110.6 c -39.1,0 -71.7,-2.08 -75,-41.03 L 9494.16,3468.1 c -3.7,-43.9 30.92,-81.6 74.94,-81.6 h 10498.2 c 39,0 71.6,30 74.9,68.9 l 541.5,6424.14 c 3.7,43.87 -30.9,81.53 -75,81.53"
         style="fill:#242829;fill-opacity:1;fill-rule:nonzero;stroke:none"
         transform="matrix(0.13333333,0,0,-0.13333333,0,2000)" />
      <path
         id="path62"
         d="M 9860.84,3957.7 H 19898 l 460.6,5698.22 H 10330 L 9860.84,3957.7"
         style="fill:#e2e8eb;fill-opacity:1;fill-rule:nonzero;stroke:none"
         transform="matrix(0.13333333,0,0,-0.13333333,0,2000)" />
      <path
         id="path63"
         d="m 10146.5,7426.77 h 10031.9 l 161.5,1997.74 H 10311 l -164.5,-1997.74"
         style="fill:#00b3c4;fill-opacity:1;fill-rule:nonzero;stroke:none"
         transform="matrix(0.13333333,0,0,-0.13333333,0,2000)" />
      <path
         id="path64"
         d="m 9860.83,3957.7 h 1003.77 l 449.3,5466.81 H 10311 L 9860.83,3957.7"
         style="fill:#c8d7de;fill-opacity:1;fill-rule:nonzero;stroke:none"
         transform="matrix(0.13333333,0,0,-0.13333333,0,2000)" />
      <path
         id="path65"
         d="m 10310.2,9415.39 h 10029 l 19.4,240.53 H 10330 l -19.8,-240.53"
         style="fill:#005f78;fill-opacity:1;fill-rule:nonzero;stroke:none"
         transform="matrix(0.13333333,0,0,-0.13333333,0,2000)" />
      <path
         id="path66"
         d="m 10420,8428.25 h 620.9 l 49.3,599.94 h -620.8 l -49.4,-599.94"
         style="fill:#dce5eb;fill-opacity:1;fill-rule:nonzero;stroke:none"
         transform="matrix(0.13333333,0,0,-0.13333333,0,2000)" />
      <path
         id="path67"
         d="m 10353,7613.93 h 620.9 l 49.4,600.09 h -620.9 l -49.4,-600.09"
         style="fill:#dce5eb;fill-opacity:1;fill-rule:nonzero;stroke:none"
         transform="matrix(0.13333333,0,0,-0.13333333,0,2000)" />
      <path
         id="path68"
         d="m 10286,6799.4 h 621 l 49.3,600.24 h -620.9 L 10286,6799.4"
         style="fill:#dce5eb;fill-opacity:1;fill-rule:nonzero;stroke:none"
         transform="matrix(0.13333333,0,0,-0.13333333,0,2000)" />
      <path
         id="path69"
         d="m 10218.9,5984.68 h 621.1 l 49.3,600.39 h -621 l -49.4,-600.39"
         style="fill:#dce5eb;fill-opacity:1;fill-rule:nonzero;stroke:none"
         transform="matrix(0.13333333,0,0,-0.13333333,0,2000)" />
      <path
         id="path70"
         d="m 10151.8,5169.76 h 621.2 l 49.3,600.53 h -621 l -49.5,-600.53"
         style="fill:#dce5eb;fill-opacity:1;fill-rule:nonzero;stroke:none"
         transform="matrix(0.13333333,0,0,-0.13333333,0,2000)" />
      <path
         id="path71"
         d="m 10084.7,4354.6 h 621.3 l 49.3,600.7 h -621.1 l -49.5,-600.7"
         style="fill:#dce5eb;fill-opacity:1;fill-rule:nonzero;stroke:none"
         transform="matrix(0.13333333,0,0,-0.13333333,0,2000)" />
      <path
         id="path72"
         d="m 11478.2,7624 h 1659.3 l 131.3,1603.39 H 11609.9 L 11478.2,7624"
         style="fill:#ffffff;fill-opacity:1;fill-rule:nonzero;stroke:none"
         transform="matrix(0.13333333,0,0,-0.13333333,0,2000)" />
      <path
         id="path73"
         d="m 12304.4,8998.84 c -318.9,-83.04 -252.4,-390.77 -393.8,-540.54 -306.6,-324.79 -41.3,-595.67 -41.3,-595.67 0,0 819.2,39.97 879.9,84.42 295.5,216.16 33.1,733.14 26.7,818.7 -2.1,17.92 -58.5,340.65 -471.5,233.09"
         style="fill:#242927;fill-opacity:1;fill-rule:nonzero;stroke:none"
         transform="matrix(0.13333333,0,0,-0.13333333,0,2000)" />
      <path
         id="path74"
         d="m 12502.2,8278.61 c -26.8,-14.42 -90.4,-56.91 -119.9,-58.97 h -16.4 c -1,0.07 -2,0.24 -3,0.36 -1.1,-0.12 -2.1,-0.29 -3.2,-0.36 h -16.3 c -29.2,2.06 -87.3,26.88 -111.7,41.31 -1.2,-12.2 -15,-115.93 -49.5,-140.57 -3.8,-2.41 -92.2,-59.67 -170.3,-90.42 49.5,-52.52 203.5,-127.53 315.5,-125.86 0,0 3.4,-0.02 9.6,0.41 6.1,-0.43 9.5,-0.41 9.5,-0.41 111.7,-1.67 278,73.34 336.1,125.86 -73.1,30.75 -152,88.01 -155.4,90.42 -30.5,24.64 -25.8,146.05 -25,158.23"
         style="fill:#894835;fill-opacity:1;fill-rule:nonzero;stroke:none"
         transform="matrix(0.13333333,0,0,-0.13333333,0,2000)" />
      <path
         id="path75"
         d="m 12883.9,7964.42 -239.6,91.52 c 0,0 -61.8,-91.62 -303.8,-91.62 -216.4,0 -273,94.64 -273,94.64 l -237.3,-66.78 c -58.2,-17.51 -108.5,-56.18 -139.8,-107.48 -46.9,-77.09 -77,-170.23 -96.1,-260.7 h 1427.1 c -2.6,74.96 -8.8,157.74 -27.1,217.95 -16.7,54.99 -56.6,99.17 -110.4,122.47"
         style="fill:#f4b008;fill-opacity:1;fill-rule:nonzero;stroke:none"
         transform="matrix(0.13333333,0,0,-0.13333333,0,2000)" />
      <path
         id="path76"
         d="m 12533.1,8809.17 c -18.6,-9.37 -414.8,-265.99 -414.8,-265.99 0,0 -7.5,-116.94 52,-220.86 0,0 43.1,-70.73 107.8,-111.14 23,-14.42 48.8,-25.07 76.4,-27.13 h 15.5 c 38.4,2.83 76.1,21.79 108.6,44.75 57.2,40.48 98.3,93.52 98.3,93.52 75.3,100.5 79.7,238.45 76.3,307.63 -22.9,10.31 -96.1,149.43 -120.1,179.22"
         style="fill:#894835;fill-opacity:1;fill-rule:nonzero;stroke:none"
         transform="matrix(0.13333333,0,0,-0.13333333,0,2000)" />
      <path
         id="path77"
         d="m 12157.9,8465.33 23.6,89.56 -86.9,-18.33 c 0,0 -13.8,-135.11 63.3,-71.23"
         style="fill:#894835;fill-opacity:1;fill-rule:nonzero;stroke:none"
         transform="matrix(0.13333333,0,0,-0.13333333,0,2000)" />
      <path
         id="path78"
         d="m 12608.1,8465.33 c 66.6,-63.88 75,71.23 75,71.23 l -62.3,78.8 -12.7,-150.03"
         style="fill:#894835;fill-opacity:1;fill-rule:nonzero;stroke:none"
         transform="matrix(0.13333333,0,0,-0.13333333,0,2000)" />
      <path
         id="path79"
         d="m 12637.8,8827.88 c -48.9,21.72 -490.2,117.62 -585.8,-309.91 0,0 341.7,72.82 472.4,246.68 0,0 98.7,-215.48 198.2,-246.68 0,0 -35.9,288.19 -84.8,309.91"
         style="fill:#242927;fill-opacity:1;fill-rule:nonzero;stroke:none"
         transform="matrix(0.13333333,0,0,-0.13333333,0,2000)" />
      <path
         id="path80"
         d="m 13911.3,8841.95 h 3536.5 l 13.9,170.97 h -3536.4 l -14,-170.97"
         style="fill:#16c8d8;fill-opacity:1;fill-rule:nonzero;stroke:none"
         transform="matrix(0.13333333,0,0,-0.13333333,0,2000)" />
      <path
         id="path81"
         d="m 13878.6,8441.74 h 2525.5 l 13.9,170.97 h -2525.4 l -14,-170.97"
         style="fill:#16c8d8;fill-opacity:1;fill-rule:nonzero;stroke:none"
         transform="matrix(0.13333333,0,0,-0.13333333,0,2000)" />
      <path
         id="path82"
         d="m 13795.6,7426.77 h 1709.8 l 33.8,414.72 h -1709.7 l -33.9,-414.72"
         style="fill:#e2e8eb;fill-opacity:1;fill-rule:nonzero;stroke:none"
         transform="matrix(0.13333333,0,0,-0.13333333,0,2000)" />
      <path
         id="path83"
         d="M 15735.2,7426.77 H 17445 l 33.7,414.72 H 15769 l -33.8,-414.72"
         style="fill:#0098a7;fill-opacity:1;fill-rule:nonzero;stroke:none"
         transform="matrix(0.13333333,0,0,-0.13333333,0,2000)" />
      <path
         id="path84"
         d="m 17674.8,7426.77 h 1709.9 l 33.6,414.72 h -1709.8 l -33.7,-414.72"
         style="fill:#0098a7;fill-opacity:1;fill-rule:nonzero;stroke:none"
         transform="matrix(0.13333333,0,0,-0.13333333,0,2000)" />
      <path
         id="path85"
         d="m 11282.5,5241.05 h 5985 l 151.2,1861.27 h -5983.3 l -152.9,-1861.27"
         style="fill:#ffffff;fill-opacity:1;fill-rule:nonzero;stroke:none"
         transform="matrix(0.13333333,0,0,-0.13333333,0,2000)" />
      <path
         id="path86"
         d="m 12860.9,6198.17 -143,-238.97 -106.5,369.3 -99.6,-197.73 h -688.7 c 76.1,-159.4 234.8,-363.65 563,-566.28 h 0.1 c 361.3,202.63 553.5,406.88 655.8,566.28 h -152.9 l -28.2,67.4"
         style="fill:#ff5447;fill-opacity:1;fill-rule:nonzero;stroke:none"
         transform="matrix(0.13333333,0,0,-0.13333333,0,2000)" />
      <path
         id="path87"
         d="m 12836.2,6779.04 c -193.5,0 -362,-141.38 -376.4,-315.86 14.2,174.48 -131.1,315.86 -324.6,315.86 -193.5,0 -362,-141.51 -376.4,-316.06 0,0 -14.6,-97.08 42.6,-244.65 h 674.6 l 155.5,308.73 111,-384.86 132.9,222.24 61.2,-146.11 h 141.5 c 81.4,147.57 82.7,244.65 82.7,244.65 14.3,174.55 -131.1,316.06 -324.6,316.06"
         style="fill:#ff5447;fill-opacity:1;fill-rule:nonzero;stroke:none"
         transform="matrix(0.13333333,0,0,-0.13333333,0,2000)" />
      <path
         id="path88"
         d="m 13483.1,5535.34 h 3568.8 l 103.4,1272.83 h -3568.1 l -104.1,-1272.83"
         style="fill:#c8d7de;fill-opacity:1;fill-rule:nonzero;stroke:none"
         transform="matrix(0.13333333,0,0,-0.13333333,0,2000)" />
      <path
         id="path89"
         d="m 16604.6,6360.59 -219.9,-437.35 -99.8,708.74 -292.6,-529.22 h -361.7 l -82.3,257.83 -219.9,-437.35 -99.7,708.74 -292.7,-529.22 h -361.7 l -82.2,257.83 -220,-437.35 -99.6,708.74 -292.7,-529.22 h -365.4 l -5.2,-64.67 h 408.3 l 215.4,389.25 101.5,-722.72 241.8,480.79 47,-147.32 h 450.6 l 215.3,389.25 101.6,-722.72 241.8,480.79 47,-147.32 h 450.6 l 215.2,389.25 101.7,-722.72 241.7,480.79 47.1,-147.32 h 456.9 l 5.3,64.67 h -411.1 l -82.3,257.83"
         style="fill:#0098a7;fill-opacity:1;fill-rule:nonzero;stroke:none"
         transform="matrix(0.13333333,0,0,-0.13333333,0,2000)" />
      <path
         id="path90"
         d="m 11177.1,3957.7 h 2857.8 l 89.1,1090.25 h -2857.4 l -89.5,-1090.25"
         style="fill:#ffffff;fill-opacity:1;fill-rule:nonzero;stroke:none"
         transform="matrix(0.13333333,0,0,-0.13333333,0,2000)" />
      <path
         id="path91"
         d="m 11241.9,4747.6 h 2857.6 l 24.5,300.35 h -2857.4 l -24.7,-300.35"
         style="fill:#00b3c4;fill-opacity:1;fill-rule:nonzero;stroke:none"
         transform="matrix(0.13333333,0,0,-0.13333333,0,2000)" />
      <path
         id="path92"
         d="m 14305.3,3957.7 h 2857.9 l 88.6,1090.25 h -2857.4 l -89.1,-1090.25"
         style="fill:#ffffff;fill-opacity:1;fill-rule:nonzero;stroke:none"
         transform="matrix(0.13333333,0,0,-0.13333333,0,2000)" />
      <path
         id="path93"
         d="m 14369.9,4747.6 h 2857.5 l 24.4,300.35 h -2857.4 l -24.5,-300.35"
         style="fill:#00b3c4;fill-opacity:1;fill-rule:nonzero;stroke:none"
         transform="matrix(0.13333333,0,0,-0.13333333,0,2000)" />
      <path
         id="path94"
         d="m 11485.9,4490.7 h 2327.6 l 5.4,66.5 h -2327.6 l -5.4,-66.5"
         style="fill:#c8d7de;fill-opacity:1;fill-rule:nonzero;stroke:none"
         transform="matrix(0.13333333,0,0,-0.13333333,0,2000)" />
      <path
         id="path95"
         d="m 11472,4321.4 h 2327.6 l 5.5,66.5 h -2327.7 l -5.4,-66.5"
         style="fill:#c8d7de;fill-opacity:1;fill-rule:nonzero;stroke:none"
         transform="matrix(0.13333333,0,0,-0.13333333,0,2000)" />
      <path
         id="path96"
         d="m 11458.1,4152.1 h 1901.1 l 5.4,66.5 h -1901.1 l -5.4,-66.5"
         style="fill:#c8d7de;fill-opacity:1;fill-rule:nonzero;stroke:none"
         transform="matrix(0.13333333,0,0,-0.13333333,0,2000)" />
      <path
         id="path97"
         d="m 14613.9,4490.7 h 2327.6 l 5.4,66.5 h -2327.6 l -5.4,-66.5"
         style="fill:#c8d7de;fill-opacity:1;fill-rule:nonzero;stroke:none"
         transform="matrix(0.13333333,0,0,-0.13333333,0,2000)" />
      <path
         id="path98"
         d="m 14600.1,4321.4 h 2327.6 l 5.4,66.5 h -2327.6 l -5.4,-66.5"
         style="fill:#c8d7de;fill-opacity:1;fill-rule:nonzero;stroke:none"
         transform="matrix(0.13333333,0,0,-0.13333333,0,2000)" />
      <path
         id="path99"
         d="m 14586.3,4152.1 h 1901.1 l 5.4,66.5 h -1901.1 l -5.4,-66.5"
         style="fill:#c8d7de;fill-opacity:1;fill-rule:nonzero;stroke:none"
         transform="matrix(0.13333333,0,0,-0.13333333,0,2000)" />
      <path
         id="path100"
         d="M 8783.87,0 H 28020.6 V 1024.9 H 8783.87 V 0"
         style="fill:#4a2d24;fill-opacity:1;fill-rule:nonzero;stroke:none"
         transform="matrix(0.13333333,0,0,-0.13333333,0,2000)" />
      <path
         id="path101"
         d="m 8410.85,801.602 h 19982.8 V 1505.7 H 8410.85 Z"
         style="fill:#875443;fill-opacity:1;fill-rule:nonzero;stroke:none"
         transform="matrix(0.13333333,0,0,-0.13333333,0,2000)" />
      <path
         id="path102"
         d="M 3261.24,0 H 20717.6 V 1024.9 H 3261.24 V 0"
         style="fill:#623b31;fill-opacity:1;fill-rule:nonzero;stroke:none"
         transform="matrix(0.13333333,0,0,-0.13333333,0,2000)" />
      <path
         id="path103"
         d="M 2922.74,801.602 H 21056.1 V 1505.8 H 2922.74 V 801.602"
         style="fill:#99604c;fill-opacity:1;fill-rule:nonzero;stroke:none"
         transform="matrix(0.13333333,0,0,-0.13333333,0,2000)" />
      <path
         id="path104"
         d="m 9585.52,1505.5 h 3637.88 v 131.6 H 9585.52 v -131.6"
         style="fill:#949ea0;fill-opacity:1;fill-rule:nonzero;stroke:none"
         transform="matrix(0.13333333,0,0,-0.13333333,0,2000)" />
      <path
         id="path105"
         d="m 14631.9,2212.5 c -284.2,-30.5 -715.7,-688.3 -278.9,-713.3 h 1133.1 c 0,0 181.9,158.8 13.1,400.1 -169.1,241.6 -583.1,343.7 -867.3,313.2"
         style="fill:#243137;fill-opacity:1;fill-rule:nonzero;stroke:none"
         transform="matrix(0.13333333,0,0,-0.13333333,0,2000)" />
      <path
         id="path106"
         d="m 9385.26,1839.1 c -19.38,5.9 -30.27,6.3 -30.27,6.3 l 30.27,-6.3"
         style="fill:#be7358;fill-opacity:1;fill-rule:nonzero;stroke:none"
         transform="matrix(0.13333333,0,0,-0.13333333,0,2000)" />
      <path
         id="path107"
         d="m 9407.91,2303.5 -746.19,12.3 80.96,-816.6 753.73,0.5 c 0,0 87.89,61.5 -20.68,161.5 -67.59,62.2 -122.67,86.8 -154.63,96.5 l -30.27,6.3 c 0,0 10.88,-0.4 30.27,-6.3 l 324.5,-67.7 635.7,-59.7 c 0,0 303.6,11.8 179.6,219.8 l -1052.99,453.4"
         style="fill:#be7358;fill-opacity:1;fill-rule:nonzero;stroke:none"
         transform="matrix(0.13333333,0,0,-0.13333333,0,2000)" />
      <path
         id="path108"
         d="m 9760.34,2309.9 -1139.1,12.3 80.96,-816.7 1146.64,0.5 c 0,0 87.89,61.6 -20.68,161.5 -108.58,100 -184.9,102.9 -184.9,102.9 l 308.35,43.8 682.09,-177.5 c 0,0 303.7,11.8 179.6,219.7 l -1052.96,453.5"
         style="fill:#ef8864;fill-opacity:1;fill-rule:nonzero;stroke:none"
         transform="matrix(0.13333333,0,0,-0.13333333,0,2000)" />
      <path
         id="path109"
         d="m 9352.92,1767.4 -218.34,-3.3 c 0,0 214.88,-62.1 310.71,-46.2 274.22,45.8 381.24,-55.2 381.24,-55.2 l 138.1,133.6 -347.7,7.2 -264.01,-36.1"
         style="fill:#be7358;fill-opacity:1;fill-rule:nonzero;stroke:none"
         transform="matrix(0.13333333,0,0,-0.13333333,0,2000)" />
      <path
         id="path110"
         d="m 9281.88,9313.98 86.29,745.62 331.89,-33.2 11.06,-159.27 c 0,0 -123.9,-446.95 -171.47,-480.14 -47.58,-33.19 -257.77,-73.01 -257.77,-73.01"
         style="fill:#51a8b6;fill-opacity:1;fill-rule:nonzero;stroke:none"
         transform="matrix(0.13333333,0,0,-0.13333333,0,2000)" />
      <path
         id="path111"
         d="m 9448.2,10151.3 5.13,-131.2 219.16,-84.2 c 0,0 5.44,-57.71 -45.79,-273.44 -25.13,-105.85 -86.51,-239.49 -148.24,-279.89 -61.73,-40.4 -146.08,-44.71 -146.08,-44.71 l 2.59,-35.74 c 0,0 46.46,3.37 96.49,7 50.03,3.63 90.15,29.2 161.48,101.52 57.43,58.23 231.42,573.61 199.01,673.66 -32.4,100 -343.75,67 -343.75,67"
         style="fill:#005f78;fill-opacity:1;fill-rule:nonzero;stroke:none"
         transform="matrix(0.13333333,0,0,-0.13333333,0,2000)" />
      <path
         id="path112"
         d="m 9167.35,10899.6 c -403.23,369.1 -2389.28,449.5 -2632.77,243.9 -243.48,-205.5 -507.7,-772.8 -375.93,-1186.08 131.77,-413.27 321.33,-759.71 333.19,-923.28 11.87,-163.57 -119.38,-729.03 -119.38,-729.03 l 1835.3,-881.74 c 0,0 114.24,164.49 142.63,224.66 20.91,44.34 81.72,76.22 130.42,70.53 135.81,-15.86 385.3,-46.73 524.29,89.19 136.32,133.29 349.53,1052.26 348.23,1286.13 -1.3,233.86 8.17,410.75 19.23,474.2 11.06,63.44 92.24,254.24 100.66,355.71 14.22,171.51 -108.22,794.81 -305.87,975.81"
         style="fill:#ef8864;fill-opacity:1;fill-rule:nonzero;stroke:none"
         transform="matrix(0.13333333,0,0,-0.13333333,0,2000)" />
      <path
         id="path113"
         d="m 8590.07,11787.5 c -449.33,81.1 -562.36,251.3 -1445.65,124.9 -461.23,-66 -592.93,-462.3 -591.23,-485.6 1.69,-23.4 -421.38,-249.8 -484.02,-512.8 -62.63,-262.9 -102.77,-710.8 -7.83,-1018.45 354.54,-1149 292.39,-1329.06 359.85,-1337.19 0,0 234.96,66.43 429.44,63.32 118.93,-1.9 595.61,-76.88 683.42,7.79 87.82,84.68 460.23,375.1 504.51,709.47 21.92,165.5 216.86,426.05 321.94,488.48 105.1,62.43 135.13,96.17 378.82,96.17 126.96,0 120.84,-164.22 160.04,-325.39 37.47,11.87 131.22,64.83 200.17,154.68 0.57,0.74 104.08,431.12 105.56,531.22 1.47,98.8 -90.81,379 46.06,473 409.86,281.2 162.04,781.6 162.04,781.6 0,0 -459.46,183.2 -823.12,248.8"
         style="fill:#392824;fill-opacity:1;fill-rule:nonzero;stroke:none"
         transform="matrix(0.13333333,0,0,-0.13333333,0,2000)" />
      <path
         id="path114"
         d="m 9258.03,11576.2 c -3.95,8.4 -8.22,16.6 -12.35,24.9 -166.73,59.5 -429.65,145.6 -655.61,186.4 -449.33,81.1 -562.36,251.3 -1445.65,124.9 -461.22,-66 -592.93,-462.3 -591.23,-485.6 1.69,-23.4 -421.38,-249.8 -484.02,-512.8 -62.63,-262.9 -102.77,-710.8 -7.83,-1018.45 354.54,-1149 292.39,-1329.06 359.85,-1337.19 0,0 234.96,66.43 429.44,63.32 118.93,-1.9 595.61,-76.88 683.42,7.79 87.82,84.68 460.23,375.1 504.51,709.47 21.92,165.5 216.86,426.05 321.94,488.48 105.1,62.43 135.13,64.32 378.82,64.32 126.96,0 120.84,-132.37 160.04,-293.54 37.47,11.87 131.22,64.83 200.18,154.68 0.24,0.31 19.24,78.95 41.06,176.74 -1.27,5.2 -2.27,10.38 -2.98,15.53 -25.29,184.35 -101.71,365.95 -83.5,554.75 11.38,118.2 28.61,229.2 90.93,332.8 29.53,49.1 67.94,91.9 104.98,135.5 14.01,21.1 26.63,42.9 38.09,65.4 14.22,41 25.26,82.8 33.5,125.4 5.11,63.6 4.48,127.1 -1.2,190.6 -13.95,77.3 -34.83,152.9 -62.39,226.6"
         style="fill:#2b1f1b;fill-opacity:1;fill-rule:nonzero;stroke:none"
         transform="matrix(0.13333333,0,0,-0.13333333,0,2000)" />
      <path
         id="path115"
         d="m 8555.65,9889.06 c -219.5,-0.62 -227.62,-127.89 -287.26,-267.13 -15.98,-37.32 -25.09,-214.87 3.26,-408.99 24.49,-167.76 175.99,-320.5 200.87,-347.42 55.85,-60.44 236.49,39.26 240.89,197.4 1.98,71.08 38.59,345.55 46.85,383.04 0,0 8.44,330.92 -26.92,364.24 -35.35,33.3 -109.59,79.06 -177.69,78.86"
         style="fill:#de805e;fill-opacity:1;fill-rule:nonzero;stroke:none"
         transform="matrix(0.13333333,0,0,-0.13333333,0,2000)" />
      <path
         id="path116"
         d="m 8960.27,10072.5 c -168.85,-12.3 -455.4,-73.5 -519.14,-86.2 -63.74,-12.71 -514.66,-265.96 -514.66,-265.96 -67.68,-82.15 67.39,-143.72 121.25,-143.41 53.87,0.32 372.52,251.59 413.33,283.28 40.82,31.7 389.47,78.55 478.55,88.6 89.08,10.06 842.54,-16.57 842.54,-16.57 l 9.81,152.06 c 0,0 -662.83,0.4 -831.68,-11.8"
         style="fill:#005f78;fill-opacity:1;fill-rule:nonzero;stroke:none"
         transform="matrix(0.13333333,0,0,-0.13333333,0,2000)" />
      <path
         id="path117"
         d="m 8618.08,9961.07 c -208.8,0.45 -215.89,-129.22 -271.92,-270.85 -15.02,-37.95 -22.81,-218.87 5.12,-416.86 24.14,-171.11 160.44,-340.82 192.8,-355.1 32.36,-14.28 165.93,-16.5 169.33,144.66 1.53,72.44 93.83,407.35 101.5,445.52 0,0 6.38,337.24 -27.41,371.36 -33.8,34.13 -104.64,81.13 -169.42,81.27"
         style="fill:#ef8864;fill-opacity:1;fill-rule:nonzero;stroke:none"
         transform="matrix(0.13333333,0,0,-0.13333333,0,2000)" />
      <path
         id="path118"
         d="m 7096.35,8464.86 c -186.35,39.56 -411.37,-2.24 -574.09,-29.54 -142.26,-23.87 -267.18,-108.16 -343.12,-230.79 l -210.05,-332.62 c 1307.37,159.09 2500.6,-383.96 2500.6,-383.96 0,0 -140.54,304.75 -292.91,462.11 -152.37,157.37 -476.52,386.62 -1080.43,514.8"
         style="fill:#c8d7de;fill-opacity:1;fill-rule:nonzero;stroke:none"
         transform="matrix(0.13333333,0,0,-0.13333333,0,2000)" />
      <path
         id="path119"
         d="m 7096.35,8374.53 c -186.35,38.28 -411.37,-2.17 -574.09,-28.6 -142.26,-23.1 -372.2,-124.51 -448.15,-243.2 l -210.05,-321.91 c 1307.38,153.97 2664.31,-376.02 2664.31,-376.02 0,0 -199.22,319.19 -351.59,471.5 -152.37,152.3 -476.52,374.17 -1080.43,498.23"
         style="fill:#f6f6f6;fill-opacity:1;fill-rule:nonzero;stroke:none"
         transform="matrix(0.13333333,0,0,-0.13333333,0,2000)" />
      <path
         id="path120"
         d="m 7096.35,8374.53 c -88.53,18.18 -185.75,18.5 -280.91,11.09 265.39,-32.95 514.26,-93.76 753.19,-215.04 187.06,-94.96 358.01,-226.33 506.85,-370.8 108.4,-105.22 206.31,-219.25 301.96,-335.2 96.97,-36.1 150.93,-59.78 150.93,-59.78 0,0 -199.22,319.19 -351.59,471.5 -152.37,152.3 -476.52,374.17 -1080.43,498.23"
         style="fill:#ffffff;fill-opacity:1;fill-rule:nonzero;stroke:none"
         transform="matrix(0.13333333,0,0,-0.13333333,0,2000)" />
      <path
         id="path121"
         d="m 15435,2462 c -41.6,70.7 -142,53.7 -213.2,94.1 -67.1,38.1 -107.8,134.6 -168.9,144.2 -67.1,10.6 -192.5,-6.5 -335.1,-15.3 -88.2,-5.4 -176.4,92.5 -423.6,-54.2 -83.1,-49.2 -438.5,-489.4 -438.5,-489.4 0,0 -99.1,-427.4 64.1,-490.5 251.1,-96.9 735.2,-126.9 955.9,1.6 256.3,149.1 413.1,262.8 512.9,297.6 116.7,40.7 133.3,-39.9 133.3,-39.9 28.9,-5.4 129.7,135.1 -33,300.5 -27.8,28.2 10.7,141.4 -53.9,251.3"
         style="fill:#ef8864;fill-opacity:1;fill-rule:nonzero;stroke:none"
         transform="matrix(0.13333333,0,0,-0.13333333,0,2000)" />
      <path
         id="path122"
         d="m 13898.6,2256 c -123.5,-95.4 -178.8,-159.1 -178.8,-159.1 0,0 -0.4,-455.9 171.8,-525 98.5,-39.5 220.2,-140.1 354.2,-159 3.3,2.6 154.9,98.1 168.1,106.3 48.6,589.8 -498.8,736.9 -515.3,736.8"
         style="fill:#e2e8eb;fill-opacity:1;fill-rule:nonzero;stroke:none"
         transform="matrix(0.13333333,0,0,-0.13333333,0,2000)" />
      <path
         id="path123"
         d="M 9510.63,6903.97 C 8536.2,7402.63 8308.23,7631.45 6694.48,7879.75 6124.51,7967.45 5583.5,7784.04 4613.19,7313.37 3402.62,6726.14 3350.73,5916.95 3354.11,4700.4 3356.39,3877.7 3576.19,1079 3663.39,0 h 5810.95 c -74.74,844.801 -218.15,2110.9 89.82,2910.9 318.23,826.6 846.24,3532.64 -53.53,3993.07"
         style="fill:#ffffff;fill-opacity:1;fill-rule:nonzero;stroke:none"
         transform="matrix(0.13333333,0,0,-0.13333333,0,2000)" />
      <path
         id="path124"
         d="m 9600.09,6715.39 c -194.29,105.46 -381.96,222.29 -572.46,334.32 -166.38,97.86 -335.9,190.85 -510.75,272.82 -42.75,20.05 -85.94,39.03 -129.13,58.09 -1.8,0.81 -4.03,1.84 -6.33,2.93 -5.19,2.07 -10.39,4.09 -15.45,6.16 -18.83,7.71 -37.71,15.3 -56.63,22.77 -83.12,32.84 -167.14,63.38 -251.85,91.86 -348.38,117.11 -1157.03,310.94 -1186.73,347.43 -56.95,9.31 -115.52,18.63 -176.28,27.98 -569.97,87.7 -1110.98,-95.71 -2081.29,-566.38 C 3402.62,6726.14 3350.73,5916.95 3354.11,4700.4 3356.39,3877.7 3378.54,1079 3465.75,0 h 6008.59 c 2.37,97.1016 -359.02,1412.9 -189.82,3229.3 5.93,63.7 42.67,120.6 66.92,179.9 18.56,45.3 37.64,90.5 57.84,135.2 6.29,13.9 12.7,27.8 18.88,41.8 1.4,3.1 23.21,57.9 8.75,19.9 -13.87,-36.4 11.61,30.5 13.96,36.8 5.16,13.8 10.11,27.7 14.81,41.7 9.37,27.8 17.74,56 24.68,84.5 3.45,14.2 5.9,28.7 9.33,43 0.32,1.3 0.61,2.5 0.91,3.6 l 0.02,0.6 c 1.24,30.1 2.91,59.7 1.84,89.9 -4.86,136.8 114.34,238.8 242.57,246.7 210.38,912.06 340.77,2018.6 2.8,2532.27 -50.69,-4.13 -102.9,5.88 -147.74,30.22"
         style="fill:#f4f4f4;fill-opacity:1;fill-rule:nonzero;stroke:none"
         transform="matrix(0.13333333,0,0,-0.13333333,0,2000)" />
      <path
         id="path125"
         d="m 9748.4,5909.91 c -28.72,-162.15 -72.07,-320.9 -100.6,-483.04 -36.41,-206.88 -72.36,-413.85 -105.6,-621.27 -63.38,-395.4 -115.55,-787.5 -142.6,-1188.5 320.63,944.4 716.2,2401.66 358.97,3033.11 57.07,-240.05 32.2,-501.02 -10.17,-740.3"
         style="fill:#932a2f;fill-opacity:1;fill-rule:nonzero;stroke:none"
         transform="matrix(0.13333333,0,0,-0.13333333,0,2000)" />
      <path
         id="path126"
         d="m 5946.67,4666.4 c -580.47,75.7 -1931.46,34.1 -3138.88,-0.2 -859.24,-24.4 -731.91,-782.3 -731.91,-782.3 0,0 212.32,-2796.1 333.51,-3883.9 h 5461.03 c -181.23,1309.5 -800.49,3264.8 -1000.85,3857.7 -166.58,492.9 -342.43,733 -922.9,808.7"
         style="fill:#10161a;fill-opacity:1;fill-rule:nonzero;stroke:none"
         transform="matrix(0.13333333,0,0,-0.13333333,0,2000)" />
      <path
         id="path127"
         d="m 13794,2211.8 -85.1,-76.4 c 0,0 -596.3,6.1 -642,0 -588.9,-77.9 187.8,-1429.201 220.7,-1529.298 435.2,131.898 686.6,486.498 901,712.298 0,0 129.2,122.4 141.3,135.2 21,100.3 33.4,252 -104.4,496.2 -54.9,97.2 -289.1,293.7 -431.5,262"
         style="fill:#ffffff;fill-opacity:1;fill-rule:nonzero;stroke:none"
         transform="matrix(0.13333333,0,0,-0.13333333,0,2000)" />
      <path
         id="path128"
         d="m 5483.86,4666.4 c -580.47,75.7 -1931.45,34.1 -3138.88,-0.2 -859.23,-24.4 -731.9,-782.3 -731.9,-782.3 0,0 212.31,-2796.1 333.5,-3883.9 h 5461.04 c -181.24,1309.5 -800.5,3264.8 -1000.86,3857.7 -166.58,492.9 -342.43,733 -922.9,808.7"
         style="fill:#182024;fill-opacity:1;fill-rule:nonzero;stroke:none"
         transform="matrix(0.13333333,0,0,-0.13333333,0,2000)" />
      <path
         id="path129"
         d="m 13277.3,2109.9 c -402.1,196.6 -1471.6,1398 -1877.2,2046.4 -242.1,387 -390.6,869.1 -536.1,1181.98 -554.1,1191.24 -1389.66,1572.76 -1389.66,1572.76 -470.96,-69.25 -857.42,-618.5 -898.97,-1158.72 -41.56,-540.21 12.6,-1604.42 610.35,-2262.42 977.98,-1076.6 1984.08,-2343 2830.88,-2782.298 480.6,-249.301 738.2,-363.801 1441.8,-24.301 139.3,67.199 320.4,446.499 315.8,502.199 52,275.8 -42.5,702.1 -496.9,924.4"
         style="fill:#ffffff;fill-opacity:1;fill-rule:nonzero;stroke:none"
         transform="matrix(0.13333333,0,0,-0.13333333,0,2000)" />
      <path
         id="path130"
         d="m 13849.4,2026.5 c -33.6,22.7 -527.6,-31.4 -627.8,-20.1 -137.7,15.7 -255.6,45.2 -377.2,116.3 -83.4,48.8 -1448.6,1574.3 -1823.7,2382.8 -284.1,612.62 -556.7,1241.57 -964.4,1784.63 -113.77,142.63 -762.31,620.91 -858.62,620.91 -390.58,-158.45 -585.92,-685.59 -622.31,-1158.72 -41.56,-540.21 12.6,-1604.42 610.35,-2262.42 977.98,-1076.6 1984.08,-2343 2830.88,-2782.298 480.6,-249.301 738.2,-363.801 1441.8,-24.301 28.6,13.801 59.1,41 89.3,75.699 271.9,164.398 485,395.2 640.9,559.4 0,0 165,508.9 -339.2,708.1"
         style="fill:#f4f4f4;fill-opacity:1;fill-rule:nonzero;stroke:none"
         transform="matrix(0.13333333,0,0,-0.13333333,0,2000)" />
      <path
         id="path131"
         d="m 21743.2,12196.1 c -1451.2,0 -2902.4,0 -4353.6,0 -53.8,0 -100.7,-41.1 -104.8,-91.9 -81.9,-1012.3 -163.8,-2024.5 -245.7,-3036.78 -4.1,-50.76 36.1,-91.9 89.9,-91.9 1451.2,0 2902.4,0 4353.6,0 53.8,0 100.7,41.14 104.8,91.9 82,1012.28 163.9,2024.48 245.8,3036.78 4.1,50.8 -36.2,91.9 -90,91.9"
         style="fill:#dfeee7;fill-opacity:1;fill-rule:nonzero;stroke:none"
         transform="matrix(0.13333333,0,0,-0.13333333,0,2000)" />
      <path
         id="path132"
         d="m 21743.2,12196.1 c -1451.2,0 -2902.4,0 -4353.6,0 -53.8,0 -100.7,-41.1 -104.8,-91.9 -5.5,-67.8 -10.9,-135.5 -16.4,-203.3 1516.1,0 3032.2,0 4548.3,0 5.5,67.8 11,135.5 16.5,203.3 4.1,50.8 -36.2,91.9 -90,91.9"
         style="fill:#ff5447;fill-opacity:1;fill-rule:nonzero;stroke:none"
         transform="matrix(0.13333333,0,0,-0.13333333,0,2000)" />
      <path
         id="path133"
         d="m 20354.4,10742.6 c -55,293.9 -176.8,757.7 -421.4,860.7 -114,48 -451.9,154.4 -651.4,106.1 -313.8,-75.8 -473.3,-404.1 -580,-673.3 -27.3,-69 -66.8,-135.4 -124.8,-188.3 -120.3,-110 -183.6,-290 -128.2,-450.5 104.6,-303.1 395.3,-437.62 687.8,-485.34 189.6,-30.93 377.8,-41.07 563.3,-49.47 194.5,-8.8 381,47.8 528.6,186.91 168.2,158.6 243,419.9 145.5,637.6 -7.9,17.5 -16,37.4 -19.4,55.6"
         style="fill:#242927;fill-opacity:1;fill-rule:nonzero;stroke:none"
         transform="matrix(0.13333333,0,0,-0.13333333,0,2000)" />
      <path
         id="path134"
         d="m 19153.1,10417.6 c 0,0 5.6,-73 4.4,-148.9 30.1,-59.5 80.9,-110.6 139.2,-127.6 101.8,-29.8 263.6,39.3 359.6,90.1 9.8,87.4 33.4,186.4 33.4,186.4 -86.4,37.9 -172.7,75.8 -259.1,113.7 -92.5,-37.9 -185,-75.8 -277.5,-113.7"
         style="fill:#7b3f2d;fill-opacity:1;fill-rule:nonzero;stroke:none"
         transform="matrix(0.13333333,0,0,-0.13333333,0,2000)" />
      <path
         id="path135"
         d="m 19717,10160.4 c -45.7,55.3 -30.1,189.7 -25.7,277.2 -86.4,37.9 -172.7,75.8 -259.1,113.7 -92.5,-37.9 -185,-75.8 -277.5,-113.7 -5.4,-89.4 -5.4,-220.5 -58.5,-277.2 -45.9,-49 -144.8,-76.6 -219,-103.6 99.5,-182.82 343.4,-223.79 526.2,-227.73 183,-3.95 428.2,55.56 515.8,242.13 -69.6,20.5 -165.1,44.3 -202.2,89.2"
         style="fill:#894835;fill-opacity:1;fill-rule:nonzero;stroke:none"
         transform="matrix(0.13333333,0,0,-0.13333333,0,2000)" />
      <path
         id="path136"
         d="m 20498.6,9814.57 c -158.7,165.16 -502,241.93 -708.8,295.63 -125.6,32.6 -267.8,-9.2 -398.8,-14.4 -124.1,2.1 -250,-7.3 -372.4,-19.7 -274.1,-27.7 -606.5,-71.3 -823.2,-265.06 -211.6,-178.96 -370.5,-564.65 -395.4,-835.52 1003.9,0 2007.7,0 3011.6,0 -33,280.33 -88.5,637.96 -313,839.05"
         style="fill:#f4b008;fill-opacity:1;fill-rule:nonzero;stroke:none"
         transform="matrix(0.13333333,0,0,-0.13333333,0,2000)" />
      <path
         id="path137"
         d="m 19717,10160.4 c -45.7,55.3 -30.1,189.7 -25.7,277.2 -86.4,37.9 -172.7,75.8 -259.1,113.7 -92.5,-37.9 -185,-75.8 -277.5,-113.7 -5.4,-89.4 -5.4,-220.5 -58.5,-277.2 -45.9,-49 -144.8,-76.6 -219,-103.6 99.5,-182.82 343.4,-223.79 526.2,-227.73 183,-3.95 428.2,55.56 515.8,242.13 -69.6,20.5 -165.1,44.3 -202.2,89.2"
         style="fill:#894835;fill-opacity:1;fill-rule:nonzero;stroke:none"
         transform="matrix(0.13333333,0,0,-0.13333333,0,2000)" />
      <path
         id="path138"
         d="m 19432.2,10551.3 c -92.5,-37.9 -185,-75.8 -277.5,-113.7 0,0 -6.8,-73.1 -9.6,-103.7 41.5,-64.6 83.5,-139.7 147.5,-176.2 56.7,-32.3 157,-19.3 216.9,8.7 62.5,29.1 129.5,75.4 180.9,123.5 -3.3,72.8 0.9,147.7 0.9,147.7 -86.4,37.9 -172.7,75.8 -259.1,113.7"
         style="fill:#793f2f;fill-opacity:1;fill-rule:nonzero;stroke:none"
         transform="matrix(0.13333333,0,0,-0.13333333,0,2000)" />
      <path
         id="path139"
         d="m 19982.9,10833 c -37.2,-60.1 -92.8,-154.2 -65.8,-206 21.2,-40.5 60.8,5.3 91.2,50.8 32,47.7 69.4,129 51.8,190.2 -20.1,69.6 -77.2,-35 -77.2,-35"
         style="fill:#894835;fill-opacity:1;fill-rule:nonzero;stroke:none"
         transform="matrix(0.13333333,0,0,-0.13333333,0,2000)" />
      <path
         id="path140"
         d="m 19596.8,11368.2 c -134.9,-2.1 -492.4,-33.3 -520.4,-205.8 -29.2,-179.5 -98.5,-444.3 -30.1,-622.6 50.9,-132.5 173.3,-286.4 318.6,-325.8 18.8,-5.1 39.5,-7 59.4,-5.2 160.8,13.9 325.3,140.2 423.5,260.6 128.6,157.8 153.3,413.9 190.1,608.5 46.2,244.3 -267.3,293 -441.1,290.3"
         style="fill:#894835;fill-opacity:1;fill-rule:nonzero;stroke:none"
         transform="matrix(0.13333333,0,0,-0.13333333,0,2000)" />
      <path
         id="path141"
         d="m 18995,10981.7 c -43.7,-65.7 -32.5,-125 -27.4,-192.4 4,-54.4 40.6,-103.5 81,-65.9 45.3,42.2 23.7,147.2 8.8,211.1 0,0 -18.8,112.9 -62.4,47.2"
         style="fill:#894835;fill-opacity:1;fill-rule:nonzero;stroke:none"
         transform="matrix(0.13333333,0,0,-0.13333333,0,2000)" />
      <path
         id="path142"
         d="m 18965,11313.8 c -25,-171.2 -49.9,-342.4 -74.9,-513.7 336.7,44.3 952.6,412.5 952.6,412.5 20.4,-5.4 92.1,-371 220.9,-474.7 40.9,146.4 81.8,292.9 122.7,439.3 -153.8,130.1 -307.5,260.1 -461.3,390.2 -253.3,-84.5 -506.7,-169 -760,-253.6"
         style="fill:#242927;fill-opacity:1;fill-rule:nonzero;stroke:none"
         transform="matrix(0.13333333,0,0,-0.13333333,0,2000)" />
      <path
         id="path143"
         d="m 19425.4,10415.2 c -62.8,0 -119,36.4 -145.7,130.6 114.6,-10.1 229.3,-20.1 343.9,-30.2 -54.7,-57.9 -130.4,-100.4 -198.2,-100.4"
         style="fill:#b64e40;fill-opacity:1;fill-rule:nonzero;stroke:none"
         transform="matrix(0.13333333,0,0,-0.13333333,0,2000)" />
      <path
         id="path144"
         d="m 21583.4,9047.22 c 2.1,6.5 3.5,13.26 4,20.2 13.5,166.57 27,333.22 40.5,499.79 v 0 c -13.5,-166.59 -27,-333.19 -40.5,-499.79 -0.5,-6.94 -1.9,-13.7 -4,-20.2"
         style="fill:#477b83;fill-opacity:1;fill-rule:nonzero;stroke:none"
         transform="matrix(0.13333333,0,0,-0.13333333,0,2000)" />
      <path
         id="path145"
         d="m 17039.1,9067.42 c 9.4,115.99 18.8,231.98 28.1,347.97 v 0 c -9.3,-115.97 -18.7,-232 -28.1,-347.97"
         style="fill:#1f7280;fill-opacity:1;fill-rule:nonzero;stroke:none"
         transform="matrix(0.13333333,0,0,-0.13333333,0,2000)" />
      <path
         id="path146"
         d="m 17067.2,9415.39 v 0 c 4.1,50.61 8.2,101.22 12.3,151.82 v 0 c -4.1,-50.6 -8.2,-101.22 -12.3,-151.82"
         style="fill:#1f5969;fill-opacity:1;fill-rule:nonzero;stroke:none"
         transform="matrix(0.13333333,0,0,-0.13333333,0,2000)" />
      <path
         id="path147"
         d="M 17458.7,8975.52 H 17129 c -32.1,0 -59.5,14.71 -75.4,37.4 v 0 c 15.9,-22.69 43.3,-37.4 75.4,-37.4 109.9,0 219.7,0 329.7,0 v 0"
         style="fill:#257886;fill-opacity:1;fill-rule:nonzero;stroke:none"
         transform="matrix(0.13333333,0,0,-0.13333333,0,2000)" />
      <path
         id="path148"
         d="m 21482.6,8975.52 c -223.6,0 -447.4,0 -671,0 -21.9,185.97 -53.7,405.96 -138.2,591.69 h 954.5 c -13.5,-166.57 -27,-333.22 -40.5,-499.79 -0.5,-6.94 -1.9,-13.7 -4,-20.2 -13,-41.04 -54.3,-71.7 -100.8,-71.7 m -3682.6,0 c -113.7,0 -227.6,0 -341.3,0 -110,0 -219.8,0 -329.7,0 -32.1,0 -59.5,14.71 -75.4,37.4 -9.4,13.47 -14.8,29.75 -14.8,47.43 0,2.33 0.1,4.69 0.3,7.07 v 0 c 9.4,115.97 18.8,232 28.1,347.97 4.1,50.6 8.2,101.22 12.3,151.82 h 920.2 c -109,-185.95 -183.3,-413.63 -199.7,-591.69"
         style="fill:#62848b;fill-opacity:1;fill-rule:nonzero;stroke:none"
         transform="matrix(0.13333333,0,0,-0.13333333,0,2000)" />
      <path
         id="path149"
         d="m 20811.6,8975.52 c -1003.9,0 -2007.7,0 -3011.6,0 v 0 c 16.4,178.06 90.7,405.74 199.7,591.69 h 2673.7 c 84.5,-185.73 116.3,-405.72 138.2,-591.69 v 0"
         style="fill:#687148;fill-opacity:1;fill-rule:nonzero;stroke:none"
         transform="matrix(0.13333333,0,0,-0.13333333,0,2000)" />
      <path
         id="path150"
         d="m 18613,9401.79 c -78.7,0.39 -146.4,-56.95 -151,-127.95 -4.7,-70.86 55.1,-128.46 133.5,-128.79 78.4,-0.33 145.9,56.68 150.9,127.47 4.9,70.93 -54.8,128.87 -133.4,129.27"
         style="fill:#ffffff;fill-opacity:1;fill-rule:nonzero;stroke:none"
         transform="matrix(0.13333333,0,0,-0.13333333,0,2000)" />
      <path
         id="path151"
         d="m 19101.4,9399.31 c -78.4,0.39 -146.2,-56.85 -151.4,-127.73 -5.2,-70.75 54.1,-128.26 132.2,-128.59 78.2,-0.33 145.9,56.59 151.3,127.26 5.4,70.82 -53.7,128.66 -132.1,129.06"
         style="fill:#ffffff;fill-opacity:1;fill-rule:nonzero;stroke:none"
         transform="matrix(0.13333333,0,0,-0.13333333,0,2000)" />
      <path
         id="path152"
         d="m 19588.3,9396.83 c -78.2,0.4 -146.2,-56.75 -151.9,-127.52 -5.6,-70.63 53,-128.04 131,-128.37 77.8,-0.33 145.7,56.5 151.6,127.06 5.9,70.7 -52.6,128.44 -130.7,128.83"
         style="fill:#ffffff;fill-opacity:1;fill-rule:nonzero;stroke:none"
         transform="matrix(0.13333333,0,0,-0.13333333,0,2000)" />
      <path
         id="path153"
         d="m 20073.8,9396.83 c -78.2,0.4 -146.2,-56.75 -151.8,-127.52 -5.6,-70.63 53,-128.04 130.9,-128.37 77.9,-0.33 145.8,56.5 151.7,127.06 5.9,70.7 -52.6,128.44 -130.8,128.83"
         style="fill:#ff5447;fill-opacity:1;fill-rule:nonzero;stroke:none"
         transform="matrix(0.13333333,0,0,-0.13333333,0,2000)" />
      <path
         id="path154"
         d="m 23720.3,12576 c -928.2,0 -1856.3,0 -2784.5,0 -125.2,-0.6 -258.3,-100 -264.9,-232.2 -41.5,-512.7 -83,-1025.4 -124.4,-1538.1 -157.3,-138.6 -314.6,-277.2 -471.9,-415.8 1156.3,0 2312.5,0 3468.8,0 129.3,-4.2 253.2,103.8 264.9,232.2 46.4,573.9 92.8,1147.8 139.3,1721.7 10.2,126.5 -100.9,237.7 -227.3,232.2"
         style="fill:#ffffff;fill-opacity:1;fill-rule:nonzero;stroke:none"
         transform="matrix(0.13333333,0,0,-0.13333333,0,2000)" />
      <path
         id="path155"
         d="m 21017,11950.8 c 835.6,0 1671.2,0 2506.8,0 4,49.4 6,74.2 10,123.6 -835.6,0 -1671.2,0 -2506.8,0 -4,-49.4 -6,-74.2 -10,-123.6"
         style="fill:#c8d7de;fill-opacity:1;fill-rule:nonzero;stroke:none"
         transform="matrix(0.13333333,0,0,-0.13333333,0,2000)" />
      <path
         id="path156"
         d="m 20988.4,11597.7 c 835.7,0 1671.3,0 2506.9,0 4,49.5 6,74.2 10,123.7 -835.6,0 -1671.2,0 -2506.8,0 -4,-49.5 -6,-74.2 -10.1,-123.7"
         style="fill:#c8d7de;fill-opacity:1;fill-rule:nonzero;stroke:none"
         transform="matrix(0.13333333,0,0,-0.13333333,0,2000)" />
      <path
         id="path157"
         d="m 20959.9,11244.6 c 835.6,0 1671.2,0 2506.8,0 4,49.5 6,74.2 10,123.7 -835.6,0 -1671.2,0 -2506.8,0 -4,-49.5 -6,-74.2 -10,-123.7"
         style="fill:#c8d7de;fill-opacity:1;fill-rule:nonzero;stroke:none"
         transform="matrix(0.13333333,0,0,-0.13333333,0,2000)" />
      <path
         id="path158"
         d="m 20931.3,10891.5 c 582.5,0 1165,0 1747.4,0 4,49.5 6,74.2 10,123.7 -582.4,0 -1164.9,0 -1747.4,0 -4,-49.5 -6,-74.2 -10,-123.7"
         style="fill:#c8d7de;fill-opacity:1;fill-rule:nonzero;stroke:none"
         transform="matrix(0.13333333,0,0,-0.13333333,0,2000)" />
      <path
         id="path159"
         d="m 24443.3,9315.36 c -824.4,0 -1648.8,0 -2473.2,0 -87,0 -164.3,-70.55 -172.6,-157.58 -78.2,-824.42 -156.6,-1648.84 -234.8,-2473.26 -8.3,-87.03 55.5,-157.58 142.6,-157.58 824.4,0 1648.8,0 2473.2,0 87.1,0 164.3,70.55 172.6,157.58 78.3,824.42 156.6,1648.84 234.9,2473.26 8.2,87.03 -55.6,157.58 -142.7,157.58"
         style="fill:#005f78;fill-opacity:1;fill-rule:nonzero;stroke:none"
         transform="matrix(0.13333333,0,0,-0.13333333,0,2000)" />
      <path
         id="path160"
         d="m 23662.1,7658.12 c -7,-73.65 -72.6,-133.57 -146.2,-133.57 -73.7,0 -127.9,59.92 -120.9,133.57 7,73.67 72.6,133.59 146.2,133.59 73.7,0 127.9,-59.92 120.9,-133.59 z m -114.9,196.78 c -108.9,-0.97 -203.9,-88.32 -215.4,-196.78 -9.9,-93.34 50.4,-173.57 137.5,-192.46 -5.8,-61.62 -8.7,-92.43 -14.6,-154.05 -15.7,-152.38 -163.6,-286.41 -315.2,-287.85 -152.2,-1.45 -268.8,141.26 -260.5,287.85 13.3,139.7 26.5,279.4 39.8,419.1 247.6,26.73 473,238.73 493.9,490.74 1.2,14.44 -4.3,27.56 -14.2,35.92 13.8,144.63 27.5,289.25 41.3,433.88 9.9,108.98 -72.8,201.02 -182.5,201.54 -10.7,0 -16,0 -26.8,0 -7.2,10.36 -19.3,17.01 -33.6,17.01 -22.2,0 -33.3,0 -55.5,0 -25,0 -47.1,-20.19 -49.4,-45.09 -2.4,-24.91 15.9,-45.1 40.8,-45.1 22.2,0 33.3,0 55.5,0 14.3,0 27.7,6.65 36.9,17.02 10.7,0 16.1,0 26.8,0 80.2,0 139.2,-65.22 131.6,-145.38 -13.8,-144.63 -27.5,-289.25 -41.2,-433.88 -11.5,-8.36 -19.6,-21.35 -21,-35.92 -21.3,-220 -218,-400.89 -439.8,-401.66 -217.1,-0.74 -384.2,186.32 -363.5,401.66 1.4,14.58 -4.2,27.56 -14.1,35.92 13.7,144.63 27.4,289.25 41.2,433.88 7.6,80.16 79,145.38 159.2,145.38 10.7,0 16.1,0 26.8,0 7.3,-10.37 19.3,-17.02 33.6,-17.02 22.2,0 33.3,0 55.6,0 24.9,0 47,20.19 49.3,45.1 2.4,24.9 -15.9,45.09 -40.8,45.09 -22.2,0 -33.3,0 -55.5,0 -14.3,0 -27.6,-6.65 -36.9,-17.01 -10.7,0 -16.1,0 -26.8,0 -113,-2.55 -207.6,-89.38 -220.7,-201.54 -13.7,-144.63 -27.4,-289.25 -41.2,-433.88 -11.4,-8.36 -19.5,-21.34 -21,-35.92 -23.6,-245.81 152.8,-468.04 400.7,-490.74 -13.2,-139.7 -26.5,-279.4 -39.8,-419.1 -19.9,-203.55 138.4,-380 343.1,-379.12 208.9,0.9 394.3,171.38 415.2,379.12 5.9,62.52 8.9,93.78 14.8,156.3 81.5,18.17 158.1,107.7 164.5,190.21 8.2,105.15 -72.4,197.72 -178.1,196.78"
         style="fill:#ffffff;fill-opacity:1;fill-rule:nonzero;stroke:none"
         transform="matrix(0.13333333,0,0,-0.13333333,0,2000)" />
      <path
         id="path161"
         d="m 23536.2,7738.87 c -44.6,0 -84.2,-36.15 -88.4,-80.74 -4.2,-44.59 28.5,-80.74 73.1,-80.74 44.6,0 84.1,36.15 88.4,80.74 4.2,44.59 -28.5,80.74 -73.1,80.74"
         style="fill:#ffffff;fill-opacity:1;fill-rule:nonzero;stroke:none"
         transform="matrix(0.13333333,0,0,-0.13333333,0,2000)" />
      <path
         id="path162"
         d="m 26635.7,9942.98 c -572,0 -1144.1,0 -1716.2,0 -60.4,0 -114,-48.95 -119.7,-109.34 -54.4,-572.09 -108.7,-1144.17 -163,-1716.25 -5.8,-60.39 38.5,-109.35 98.9,-109.35 572.1,0 1144.2,0 1716.3,0 60.4,0 114,48.96 119.7,109.35 54.3,572.08 108.7,1144.16 163,1716.25 5.7,60.39 -38.6,109.34 -99,109.34"
         style="fill:#f4b008;fill-opacity:1;fill-rule:nonzero;stroke:none"
         transform="matrix(0.13333333,0,0,-0.13333333,0,2000)" />
      <path
         id="path163"
         d="m 25597,9355.88 c -29.1,-306.62 -58.2,-613.25 -87.3,-919.88 -1.3,-12.84 -12.7,-23.29 -25.5,-23.29 -153,0 -305.9,0 -458.9,0 -12.8,0 -22.3,10.45 -21.1,23.29 29.2,306.63 58.3,613.26 87.4,919.88 168.5,0 337,0 505.4,0 z M 24965.7,8436 c -3.3,-34.11 21.8,-61.86 56,-61.86 152.9,0 305.8,0 458.8,0 34.1,0 64.5,27.75 67.7,61.86 30.4,319.49 60.7,638.98 91.1,958.47 -194.2,0 -388.4,0 -582.6,0 -30.3,-319.49 -60.7,-638.98 -91,-958.47"
         style="fill:#ffffff;fill-opacity:1;fill-rule:nonzero;stroke:none"
         transform="matrix(0.13333333,0,0,-0.13333333,0,2000)" />
      <path
         id="path164"
         d="m 25652.1,9557.6 c -192.4,0 -384.8,0 -577.2,0 -14.1,0 -26.6,-11.43 -28,-25.52 -6,-63.24 -9,-94.86 -15,-158.1 -1.3,-14.1 9,-25.53 23.1,-25.53 192.4,0 384.8,0 577.2,0 14.1,0 26.6,11.43 28,25.53 6,63.24 9,94.86 15,158.1 1.3,14.09 -9,25.52 -23.1,25.52"
         style="fill:#ffffff;fill-opacity:1;fill-rule:nonzero;stroke:none"
         transform="matrix(0.13333333,0,0,-0.13333333,0,2000)" />
      <path
         id="path165"
         d="m 25148.5,8648.2 c 135.3,0 270.6,0 405.9,0 14.9,157.4 29.9,314.8 44.8,472.2 -135.3,0 -270.6,0 -405.9,0 -14.9,-157.4 -29.9,-314.8 -44.8,-472.2"
         style="fill:#ffffff;fill-opacity:1;fill-rule:nonzero;stroke:none"
         transform="matrix(0.13333333,0,0,-0.13333333,0,2000)" />
      <path
         id="path166"
         d="m 26214,9110.71 c -8.8,9.74 -16.9,20.24 -23.8,31.53 -6.9,11.16 -13.1,23.11 -17,37.11 -36.4,-33.21 -54.6,-49.81 -91,-83.02 -35,-31.96 -40,-83.97 -11,-115.94 29,-31.96 81,-31.96 116.1,0.01 36.4,33.2 54.6,49.81 91,83.01 -13.6,5.16 -24.8,12.48 -35.3,20.42 -10.5,8.03 -20.1,17.13 -29,26.88"
         style="fill:#ffffff;fill-opacity:1;fill-rule:nonzero;stroke:none"
         transform="matrix(0.13333333,0,0,-0.13333333,0,2000)" />
      <path
         id="path167"
         d="m 26264.6,9262.71 c -36.4,-33.21 -54.6,-49.81 -91,-83.02 13.5,-5.19 24.8,-12.51 35.2,-20.44 10.6,-8.03 20.2,-17.13 29,-26.85 8.9,-9.71 17,-20.21 23.9,-31.51 6.9,-11.15 13.1,-23.11 17,-37.13 36.4,33.21 54.6,49.81 91,83.02 35,31.97 39.9,83.97 11,115.93 -29,31.97 -81.1,31.97 -116.1,0"
         style="fill:#ffffff;fill-opacity:1;fill-rule:nonzero;stroke:none"
         transform="matrix(0.13333333,0,0,-0.13333333,0,2000)" />
      <path
         id="path168"
         d="m 25795.3,8970.63 c -35.1,-31.96 -40,-83.96 -11,-115.93 30.1,-33.21 45.1,-49.82 75.2,-83.03 6.5,14.03 15,25.97 24,37.14 9.1,11.31 19.2,21.8 29.9,31.51 10.7,9.72 22,18.8 34.1,26.84 11.9,7.94 24.6,15.26 39.1,20.45 -30.1,33.21 -45.2,49.81 -75.2,83.02 -29,31.97 -81.1,31.97 -116.1,0"
         style="fill:#ffffff;fill-opacity:1;fill-rule:nonzero;stroke:none"
         transform="matrix(0.13333333,0,0,-0.13333333,0,2000)" />
      <path
         id="path169"
         d="m 25986.9,8887.27 c -6.5,-14 -15,-25.94 -24,-37.11 -9.1,-11.31 -19.2,-21.79 -29.9,-31.54 -10.6,-9.74 -22,-18.83 -34.1,-26.87 -11.9,-7.94 -24.6,-15.26 -39.1,-20.42 30.1,-33.21 45.2,-49.81 75.3,-83.02 28.9,-31.96 81,-31.96 116,0 35.1,31.96 40,83.97 11,115.94 -30,33.21 -45.1,49.81 -75.2,83.02"
         style="fill:#ffffff;fill-opacity:1;fill-rule:nonzero;stroke:none"
         transform="matrix(0.13333333,0,0,-0.13333333,0,2000)" />
      <path
         id="path170"
         d="m 16200.2,12269.5 c 14.7,47.4 25.4,96.3 31.7,146.2 55.5,438.6 -291.3,823.6 -718.5,809.9 -181.7,-5.9 -337.6,-59.2 -500.3,-153.8 -156.1,188.6 -376.4,266 -608.2,274.6 -474.5,17.6 -929.4,-397 -990.9,-870.3 -9.5,-72.5 -9,-143.6 -0.4,-211.2 -313.2,-39.7 -595.3,-314.5 -635.7,-626.4 -43.2,-333.2 223.5,-632.5 559.5,-631.6 891.6,0 1783.2,0 2674.8,0 350.5,-6.7 674.4,288.5 718.3,631.6 41.2,322 -198.7,624.8 -530.3,631"
         style="fill:#ffffff;fill-opacity:1;fill-rule:nonzero;stroke:none"
         transform="matrix(0.13333333,0,0,-0.13333333,0,2000)" />
      <path
         id="path171"
         d="m 15563.8,12544.5 c -277.4,0 -554.7,0 -832.1,0 -43.9,58.4 -65.9,87.5 -109.8,145.9 -141.9,0 -283.8,0 -425.6,0 -69.1,4 -85.5,-56.6 -85.5,-56.6 -8.1,-64.5 -12.1,-96.7 -20.2,-161.2 -5.9,-46.9 -8.9,-70.3 -14.8,-117.2 -36.7,-291.8 -73.3,-583.6 -110,-875.4 -5,-39.7 23.5,-71.9 63.7,-71.9 463.8,0 927.6,0 1391.4,0 40.2,0 76.9,32.2 81.9,71.9 41.6,330.8 83.2,661.7 124.8,992.6 4.9,39.7 -23.6,71.9 -63.8,71.9"
         style="fill:#f4b008;fill-opacity:1;fill-rule:nonzero;stroke:none"
         transform="matrix(0.13333333,0,0,-0.13333333,0,2000)" />
      <path
         id="path172"
         d="m 14836.4,12292 c -167,-4.7 -337,-148.5 -359.5,-315.7 -22,-163 118.3,-313.8 280.1,-315.7 172.1,-2.1 337,146.9 359.5,315.7 21.7,163.3 -113,320.4 -280.1,315.7"
         style="fill:#ffffff;fill-opacity:1;fill-rule:nonzero;stroke:none"
         transform="matrix(0.13333333,0,0,-0.13333333,0,2000)" />
      <path
         id="path173"
         d="m 14940,12022.7 c -36.2,0 -54.3,0 -90.5,0 4.5,35.7 6.7,53.6 11.2,89.4 3.2,25.6 -15.2,46.3 -41.1,46.3 -26,0 -49.6,-20.7 -52.8,-46.3 -4.5,-35.8 -6.8,-53.7 -11.3,-89.4 -36.2,0 -54.3,0 -90.6,0 -25.9,0 -49.5,-20.8 -52.8,-46.4 -3.2,-25.6 15.2,-46.4 41.2,-46.4 36.2,0 54.3,0 90.6,0 -4.5,-35.8 -6.8,-53.6 -11.3,-89.4 -3.2,-25.6 15.2,-46.4 41.2,-46.4 25.9,0 49.5,20.8 52.8,46.4 4.5,35.8 6.7,53.6 11.2,89.4 36.2,0 54.3,0 90.6,0 25.9,0 49.6,20.8 52.8,46.4 3.2,25.6 -15.2,46.4 -41.2,46.4"
         style="fill:#005f78;fill-opacity:1;fill-rule:nonzero;stroke:none"
         transform="matrix(0.13333333,0,0,-0.13333333,0,2000)" />
      <path
         id="path174"
         d="m 17457.3,2628.2 c 1058.6,0 2117.2,0 3175.7,0 141.1,1484.9 282.1,2969.74 423.1,4454.63 -1058.6,0 -2117.1,0 -3175.7,0 -141,-1484.89 -282.1,-2969.73 -423.1,-4454.63"
         style="fill:#ffffff;fill-opacity:1;fill-rule:nonzero;stroke:none"
         transform="matrix(0.13333333,0,0,-0.13333333,0,2000)" />
      <path
         id="path175"
         d="m 17781.2,6038.8 c 1058.6,0 2117.2,0 3175.8,0 33,348.02 66.1,696.02 99.1,1044.03 -1058.6,0 -2117.1,0 -3175.7,0 -33.1,-348.01 -66.1,-696.01 -99.2,-1044.03"
         style="fill:#005f78;fill-opacity:1;fill-rule:nonzero;stroke:none"
         transform="matrix(0.13333333,0,0,-0.13333333,0,2000)" />
      <path
         id="path176"
         d="m 19220.3,6487.71 c 442.8,0 885.7,0 1328.6,0 5.5,58.5 8.3,87.74 13.9,146.24 -442.9,0 -885.8,0 -1328.6,0 -5.6,-58.5 -8.4,-87.74 -13.9,-146.24"
         style="fill:#c8d7de;fill-opacity:1;fill-rule:nonzero;stroke:none"
         transform="matrix(0.13333333,0,0,-0.13333333,0,2000)" />
      <path
         id="path177"
         d="m 18105.1,4703.7 c 758.1,0 1516.2,0 2274.3,0 5.6,58.4 8.4,87.7 13.9,146.2 -758.1,0 -1516.2,0 -2274.3,0 -5.5,-58.5 -8.3,-87.8 -13.9,-146.2"
         style="fill:#c8d7de;fill-opacity:1;fill-rule:nonzero;stroke:none"
         transform="matrix(0.13333333,0,0,-0.13333333,0,2000)" />
      <path
         id="path178"
         d="m 18145.4,5126.92 c 758,0 1516.1,0 2274.2,0 5.6,58.5 8.4,87.75 13.9,146.24 -758.1,0 -1516.2,0 -2274.3,0 -5.5,-58.49 -8.3,-87.74 -13.8,-146.24"
         style="fill:#c8d7de;fill-opacity:1;fill-rule:nonzero;stroke:none"
         transform="matrix(0.13333333,0,0,-0.13333333,0,2000)" />
      <path
         id="path179"
         d="m 18064.9,4280.4 c 758.1,0 1516.2,0 2274.3,0 5.6,58.5 8.4,87.7 13.9,146.2 -758.1,0 -1516.2,0 -2274.3,0 -5.5,-58.5 -8.3,-87.7 -13.9,-146.2"
         style="fill:#c8d7de;fill-opacity:1;fill-rule:nonzero;stroke:none"
         transform="matrix(0.13333333,0,0,-0.13333333,0,2000)" />
      <path
         id="path180"
         d="m 18024.7,3857.1 c 758.1,0 1516.2,0 2274.3,0 5.6,58.5 8.4,87.8 13.9,146.2 -758.1,0 -1516.2,0 -2274.3,0 -5.5,-58.4 -8.3,-87.7 -13.9,-146.2"
         style="fill:#c8d7de;fill-opacity:1;fill-rule:nonzero;stroke:none"
         transform="matrix(0.13333333,0,0,-0.13333333,0,2000)" />
      <path
         id="path181"
         d="m 17984.6,3433.9 c 490.5,0 981,0 1471.6,0 5.5,58.5 8.3,87.7 13.8,146.2 -490.5,0 -981,0 -1471.6,0 -5.5,-58.5 -8.3,-87.7 -13.8,-146.2"
         style="fill:#c8d7de;fill-opacity:1;fill-rule:nonzero;stroke:none"
         transform="matrix(0.13333333,0,0,-0.13333333,0,2000)" />
      <path
         id="path182"
         d="m 18249.6,6225.19 c 225.1,0 450.1,0 675.1,0 21.3,223.76 42.5,447.52 63.8,671.27 -225.1,0 -450.1,0 -675.1,0 -21.3,-223.75 -42.5,-447.51 -63.8,-671.27"
         style="fill:#ffffff;fill-opacity:1;fill-rule:nonzero;stroke:none"
         transform="matrix(0.13333333,0,0,-0.13333333,0,2000)" />
      <path
         id="path183"
         d="m 18795.6,6605.91 c -49,0 -89.2,0 -126.9,0 3.5,37.53 7.3,77.52 11.9,126.2 2.4,24.9 -16,45.08 -41,45.08 -25,0 -47.2,-20.18 -49.6,-45.08 -4.6,-48.68 -8.4,-88.67 -12,-126.2 -37.7,0 -78,0 -126.9,0 -25,0 -47.3,-20.19 -49.6,-45.08 -2.4,-24.9 16,-45.08 41,-45.08 49,0 89.2,0 126.9,0 -3.5,-37.53 -7.3,-77.52 -11.9,-126.21 -2.4,-24.89 16,-45.07 41,-45.07 25,0 47.2,20.18 49.6,45.07 4.6,48.69 8.4,88.68 12,126.21 37.8,0 78,0 126.9,0 25.1,0 47.3,20.18 49.6,45.08 2.4,24.89 -16,45.08 -41,45.08"
         style="fill:#005f78;fill-opacity:1;fill-rule:nonzero;stroke:none"
         transform="matrix(0.13333333,0,0,-0.13333333,0,2000)" />
      <path
         id="path184"
         d="m 25749.8,1505.7 h -403.4 c 140.9,0 255,114.2 255,255 v 1940.4 c 0,139.3 -111.8,252.5 -250.5,254.9 v 0 h 398.9 c 140.8,0 255,-114.1 255,-254.9 V 1760.7 c 0,-140.8 -114.2,-255 -255,-255"
         style="fill:#f35a50;fill-opacity:1;fill-rule:nonzero;stroke:none"
         transform="matrix(0.13333333,0,0,-0.13333333,0,2000)" />
      <path
         id="path185"
         d="m 22776.1,3956 h -411.7 c -0.3,2.3 -0.4,4.6 -0.4,6.9 0,36.9 30,66.9 66.9,66.9 h 278.7 c 36.9,0 66.8,-30 66.8,-66.9 0,-2.3 -0.1,-4.6 -0.3,-6.9 v 0"
         style="fill:#f3fafa;fill-opacity:1;fill-rule:nonzero;stroke:none"
         transform="matrix(0.13333333,0,0,-0.13333333,0,2000)" />
      <path
         id="path186"
         d="m 25350.9,3956 c -1.5,0 -3,0 -4.5,0 h -407.2 v 0 c -0.3,2.3 -0.4,4.6 -0.4,6.9 0,36.9 30,66.9 66.9,66.9 h 278.6 c 37,0 66.9,-30 66.9,-66.9 0,-2.3 -0.1,-4.6 -0.3,-6.9 v 0"
         style="fill:#f3fafa;fill-opacity:1;fill-rule:nonzero;stroke:none"
         transform="matrix(0.13333333,0,0,-0.13333333,0,2000)" />
      <path
         id="path187"
         d="M 24442.8,3956 H 24261 v 230 c 0,55.5 -41.9,100.6 -93.4,100.6 h -620 c -51.5,0 -93.4,-45.1 -93.4,-100.6 v -230 h -181.8 v 230 c 0,163.4 123.5,296.3 275.2,296.3 h 620 c 151.8,0 275.2,-132.9 275.2,-296.3 v -230"
         style="fill:#f3fafa;fill-opacity:1;fill-rule:nonzero;stroke:none"
         transform="matrix(0.13333333,0,0,-0.13333333,0,2000)" />
      <path
         id="path188"
         d="m 25346.4,1505.7 h -3197.6 c -140.8,0 -255,114.2 -255,255 v 1940.4 c 0,140.8 114.2,254.9 255,254.9 h 215.6 411.7 496.3 181.8 806.8 181.8 496.4 407.2 c 1.5,0 3,0 4.5,0 138.7,-2.4 250.5,-115.6 250.5,-254.9 V 1760.7 c 0,-140.8 -114.1,-255 -255,-255"
         style="fill:#f36155;fill-opacity:1;fill-rule:nonzero;stroke:none"
         transform="matrix(0.13333333,0,0,-0.13333333,0,2000)" />
      <path
         id="path189"
         d="m 25481.2,1505.8 h 1823.4 V 2947 H 25481.2 V 1505.8"
         style="fill:#dce5eb;fill-opacity:1;fill-rule:nonzero;stroke:none"
         transform="matrix(0.13333333,0,0,-0.13333333,0,2000)" />
      <path
         id="path190"
         d="m 25223.7,1505.8 h 1823.4 V 2947 H 25223.7 V 1505.8"
         style="fill:#00b3c4;fill-opacity:1;fill-rule:nonzero;stroke:none"
         transform="matrix(0.13333333,0,0,-0.13333333,0,2000)" />
      <path
         id="path191"
         d="m 25223.7,2331.6 h 1823.4 V 2588 h -1823.4 v -256.4"
         style="fill:#c8d7de;fill-opacity:1;fill-rule:nonzero;stroke:none"
         transform="matrix(0.13333333,0,0,-0.13333333,0,2000)" />
      <path
         id="path192"
         d="m 25223.7,2203.5 h 1823.4 v 256.3 h -1823.4 v -256.3"
         style="fill:#ffffff;fill-opacity:1;fill-rule:nonzero;stroke:none"
         transform="matrix(0.13333333,0,0,-0.13333333,0,2000)" />
      <path
         id="path193"
         d="m 23668.5,2499.4 h -576.9 c -102.8,0 -186.1,-71.2 -186.1,-159 v -675.7 c 0,-87.8 83.3,-158.9 186.1,-158.9 h 576.9 c 102.8,0 186.1,71.1 186.1,158.9 v 675.7 c 0,87.8 -83.3,159 -186.1,159"
         style="fill:#c8d7de;fill-opacity:1;fill-rule:nonzero;stroke:none"
         transform="matrix(0.13333333,0,0,-0.13333333,0,2000)" />
      <path
         id="path194"
         d="M 23687.1,2770.6 H 23073 c -25.7,0 -46.5,-17.8 -46.5,-39.8 v -190.7 c 0,-22 20.8,-39.8 46.5,-39.8 h 614.1 c 25.7,0 46.5,17.8 46.5,39.8 v 190.7 c 0,22 -20.8,39.8 -46.5,39.8"
         style="fill:#ffffff;fill-opacity:1;fill-rule:nonzero;stroke:none"
         transform="matrix(0.13333333,0,0,-0.13333333,0,2000)" />
      <path
         id="path195"
         d="m 23075.3,1706.4 h 779.3 v 592.2 h -779.3 v -592.2"
         style="fill:#ffffff;fill-opacity:1;fill-rule:nonzero;stroke:none"
         transform="matrix(0.13333333,0,0,-0.13333333,0,2000)" />
      <path
         id="path196"
         d="m 24695,3420.5 h -262.5 c -16.6,0 -30.4,-10.8 -31.8,-24.8 l -26.7,-256.1 h 159.9 59.3 159.9 l -26.3,256 c -1.5,14.1 -15.3,24.9 -31.8,24.9"
         style="fill:#ffffff;fill-opacity:1;fill-rule:nonzero;stroke:none"
         transform="matrix(0.13333333,0,0,-0.13333333,0,2000)" />
      <path
         id="path197"
         d="m 24775.5,3151.3 h -423.9 c -9.1,0 -16.5,-6.3 -16.5,-14 v -15.5 c 0,-7.8 7.4,-14.1 16.5,-14.1 h 423.9 c 9.1,0 16.5,6.3 16.5,14.1 v 15.5 c 0,7.7 -7.4,14 -16.5,14"
         style="fill:#ffffff;fill-opacity:1;fill-rule:nonzero;stroke:none"
         transform="matrix(0.13333333,0,0,-0.13333333,0,2000)" />
      <path
         id="path198"
         d="m 24383.3,3066.7 h 360.5 v 41 h -360.5 v -41"
         style="fill:#005f78;fill-opacity:1;fill-rule:nonzero;stroke:none"
         transform="matrix(0.13333333,0,0,-0.13333333,0,2000)" />
      <path
         id="path199"
         d="M 24782.1,3066.7 H 24345 c -94.6,0 -171.3,-65.5 -171.3,-146.3 V 1652.1 c 0,-80.9 76.7,-146.3 171.3,-146.3 h 437.1 c 94.6,0 171.3,65.4 171.3,146.3 v 1268.3 c 0,80.8 -76.7,146.3 -171.3,146.3"
         style="fill:#005f78;fill-opacity:1;fill-rule:nonzero;stroke:none"
         transform="matrix(0.13333333,0,0,-0.13333333,0,2000)" />
      <path
         id="path200"
         d="m 24173.7,1926.3 h 779.7 v 776.2 h -779.7 v -776.2"
         style="fill:#ffffff;fill-opacity:1;fill-rule:nonzero;stroke:none"
         transform="matrix(0.13333333,0,0,-0.13333333,0,2000)" />
      <path
         id="path201"
         d="m 24173.7,2506.6 h 779.7 v 195.9 h -779.7 v -195.9"
         style="fill:#c8d7de;fill-opacity:1;fill-rule:nonzero;stroke:none"
         transform="matrix(0.13333333,0,0,-0.13333333,0,2000)" />
    </g>
  </g>
</svg>
