<svg id="Layer_1" data-name="Layer 1" xmlns="http://www.w3.org/2000/svg" viewBox="0 0 2005.57 2005.57"><defs><style>.cls-1{fill:#2e1a47;}</style></defs><path class="cls-1" d="M1160.38,100.7c498.21,87,831.53,561.48,744.49,1059.68S1343.4,1991.91,845.19,1904.87,13.67,1343.4,100.7,845.19,662.18,13.67,1160.38,100.7m8-45.68c-127.92-22.35-256.43-19-381.94,10A965.32,965.32,0,0,0,194,481.3C124.12,589.54,77.37,709.28,55,837.21s-19,256.43,10,382A965.4,965.4,0,0,0,481.3,1811.61c108.24,69.85,228,116.6,355.91,139s256.43,19,382-10a965.43,965.43,0,0,0,592.45-416.23c69.85-108.24,116.6-228,139-355.92s19-256.43-10-381.94A965.36,965.36,0,0,0,1524.28,194C1416,124.12,1296.29,77.37,1168.36,55Z"/><path class="cls-1" d="M1398.47,364.54a6.25,6.25,0,0,1,9.84,6.2l-12.9,67.48-14.17,74.12a6.24,6.24,0,0,1-9.46,4.12l-44.54-28.09-44.53-28.09a6.25,6.25,0,0,1-.37-10.32l60.79-44.71Zm-92,214.77,60.79-44.71a6.26,6.26,0,0,0-.37-10.32l-44.53-28.09-44.54-28.08a6.25,6.25,0,0,0-9.47,4.11l-14.16,74.12-12.9,67.48a6.25,6.25,0,0,0,9.84,6.2Z"/><path class="cls-1" d="M607.11,1641a6.25,6.25,0,0,1-9.84-6.21l12.89-67.48,14.17-74.12a6.25,6.25,0,0,1,9.47-4.11l44.53,28.09,44.53,28.09a6.24,6.24,0,0,1,.37,10.31l-60.78,44.72Zm92-214.78L638.37,1471a6.25,6.25,0,0,0,.36,10.32l44.54,28.09,44.53,28.09a6.25,6.25,0,0,0,9.47-4.11l14.17-74.13,12.89-67.48a6.25,6.25,0,0,0-9.84-6.2Z"/><path class="cls-1" d="M364.54,607.11a6.24,6.24,0,0,1,6.2-9.84l67.48,12.89,74.12,14.17a6.25,6.25,0,0,1,4.12,9.47l-28.09,44.53-28.09,44.53a6.25,6.25,0,0,1-10.32.37l-44.71-60.78Zm214.77,92L534.6,638.37a6.25,6.25,0,0,0-10.32.36l-28.09,44.54L468.11,727.8a6.24,6.24,0,0,0,4.11,9.47l74.12,14.17,67.48,12.89a6.24,6.24,0,0,0,6.2-9.84Z"/><path class="cls-1" d="M1641,1398.47a6.25,6.25,0,0,1-6.21,9.84l-67.48-12.9-74.12-14.17a6.24,6.24,0,0,1-4.11-9.46l28.09-44.54,28.09-44.53a6.24,6.24,0,0,1,10.31-.37l44.72,60.79Zm-214.78-92,44.71,60.79a6.26,6.26,0,0,0,10.32-.37l28.09-44.53,28.09-44.54a6.25,6.25,0,0,0-4.11-9.47l-74.13-14.16-67.48-12.9a6.25,6.25,0,0,0-6.2,9.84Z"/><path class="cls-1" d="M831.27,271.69a6.24,6.24,0,0,1,11.34-2.57L881.21,326l42.39,62.43a6.24,6.24,0,0,1-3.79,9.6l-51.35,11.63-51.35,11.63a6.24,6.24,0,0,1-7.55-7l11.36-74.61Zm86.78,217L929.41,414a6.24,6.24,0,0,0-7.55-7l-51.35,11.63-51.36,11.63a6.24,6.24,0,0,0-3.78,9.6l42.39,62.43,38.6,56.83a6.24,6.24,0,0,0,11.34-2.57Z"/><path class="cls-1" d="M1174.31,1733.89a6.25,6.25,0,0,1-11.35,2.57l-38.59-56.84-42.4-62.43a6.25,6.25,0,0,1,3.79-9.6l51.35-11.63,51.35-11.63a6.25,6.25,0,0,1,7.56,7l-11.37,74.6Zm-86.78-217-11.37,74.6a6.24,6.24,0,0,0,7.56,7l51.35-11.62,51.35-11.63a6.26,6.26,0,0,0,3.79-9.61l-42.4-62.42-38.59-56.84a6.25,6.25,0,0,0-11.35,2.57Z"/><path class="cls-1" d="M271.69,1174.31a6.25,6.25,0,0,1-2.57-11.35L326,1124.37l62.43-42.4a6.25,6.25,0,0,1,9.6,3.79l11.63,51.35,11.63,51.35a6.25,6.25,0,0,1-7,7.56l-74.6-11.37Zm217-86.78L414,1076.16a6.25,6.25,0,0,0-7,7.56l11.63,51.35,11.63,51.35a6.25,6.25,0,0,0,9.6,3.79l62.43-42.4,56.83-38.59a6.25,6.25,0,0,0-2.57-11.35Z"/><path class="cls-1" d="M1733.89,831.27a6.25,6.25,0,0,1,2.57,11.34l-56.84,38.6-62.43,42.39a6.24,6.24,0,0,1-9.6-3.79L1596,868.46l-11.63-51.35a6.26,6.26,0,0,1,7-7.56l74.6,11.37Zm-217,86.78,74.6,11.36a6.24,6.24,0,0,0,7-7.55l-11.62-51.35-11.63-51.36a6.25,6.25,0,0,0-9.61-3.78l-62.42,42.39-56.84,38.6A6.25,6.25,0,0,0,1449,907.7Z"/><path class="cls-1" d="M1827.19,1137.58,1456,1015.1l-204.91-67.62,157.43-149.1L1692.9,529.07c25-23.71,20.32-30.42-10.48-14.9l-349.76,176.2L1139,787.91l5.86-215.7,10.61-390.7c.94-34.4-7.12-35.81-17.91-3.13L1015.1,549.54,947.48,754.45,798.38,597,529.07,312.68c-23.71-25-30.42-20.33-14.9,10.47l176.2,349.76,97.54,193.65-215.7-5.86-390.7-10.62c-34.4-.93-35.81,7.13-3.13,17.91L549.54,990.47l204.91,67.62L597,1207.19,312.68,1476.5c-25,23.71-20.33,30.42,10.47,14.91l349.76-176.2,193.65-97.55-5.86,215.7-10.62,390.7c-.93,34.4,7.13,35.81,17.91,3.13L990.47,1456l67.62-204.91,149.1,157.43L1476.5,1692.9c23.71,25,30.42,20.32,14.91-10.48l-176.2-349.76L1217.66,1139l215.7,5.86,390.7,10.61C1858.46,1156.43,1859.87,1148.37,1827.19,1137.58Zm-855.72,44.47c-99-17.3-165.24-111.58-148-210.58s111.58-165.24,210.58-148,165.25,111.58,148,210.58S1070.47,1199.35,971.47,1182.05Z"/><path class="cls-1" d="M1281.1,190.29a3.16,3.16,0,0,1,5.56,1.93l1.4,34.7,1.55,38.11a3.16,3.16,0,0,1-4.19,3.11l-25.15-8.71-25.15-8.71a3.16,3.16,0,0,1-1.37-5l24.79-29Z"/><path class="cls-1" d="M724.47,1815.28a3.16,3.16,0,0,1-5.56-1.92l-1.4-34.7L716,1740.54a3.16,3.16,0,0,1,4.19-3.11l25.15,8.71,25.14,8.71a3.16,3.16,0,0,1,1.37,5l-24.79,29Z"/><path class="cls-1" d="M1815.28,1281.1a3.16,3.16,0,0,1-1.92,5.56l-34.7,1.4-38.12,1.55a3.16,3.16,0,0,1-3.11-4.19l8.71-25.15,8.71-25.15a3.17,3.17,0,0,1,5-1.37l29,24.79Z"/><path class="cls-1" d="M190.29,724.47a3.16,3.16,0,0,1,1.93-5.56l34.7-1.4L265,716a3.15,3.15,0,0,1,3.11,4.19l-8.71,25.15-8.71,25.14a3.15,3.15,0,0,1-5,1.37l-29-24.79Z"/><path class="cls-1" d="M1774.11,625.07a3.16,3.16,0,0,1,2.56,5.29l-23.54,25.53-25.86,28a3.16,3.16,0,0,1-5.16-.76l-11.63-23.95-11.62-23.94a3.16,3.16,0,0,1,2.6-4.53l38-3Z"/><path class="cls-1" d="M231.47,1380.51a3.16,3.16,0,0,1-2.57-5.29l23.54-25.53,25.86-28a3.16,3.16,0,0,1,5.17.76l11.62,23.94,11.62,23.94a3.16,3.16,0,0,1-2.59,4.53l-38,3Z"/><path class="cls-1" d="M1380.51,1774.11a3.16,3.16,0,0,1-5.29,2.56l-25.53-23.54-28-25.86a3.15,3.15,0,0,1,.76-5.16l23.94-11.63,23.94-11.62a3.16,3.16,0,0,1,4.53,2.6l3,38Z"/><path class="cls-1" d="M625.07,231.47a3.16,3.16,0,0,1,5.29-2.57l25.53,23.54,28,25.86a3.17,3.17,0,0,1-.76,5.17l-23.95,11.62-23.94,11.62a3.16,3.16,0,0,1-4.53-2.59l-3-38Z"/><path class="cls-1" d="M1571.59,359.3a3.16,3.16,0,0,1,4.39,3.91l-12,32.58-13.2,35.79a3.16,3.16,0,0,1-5.07,1.27l-19.88-17.7-19.88-17.69a3.17,3.17,0,0,1,.67-5.18l34-17.26Z"/><path class="cls-1" d="M434,1646.27a3.16,3.16,0,0,1-4.39-3.91l12-32.58L454.82,1574a3.16,3.16,0,0,1,5.06-1.26l19.88,17.69,19.88,17.7a3.16,3.16,0,0,1-.67,5.17l-34,17.26Z"/><path class="cls-1" d="M1646.27,1571.59a3.16,3.16,0,0,1-3.91,4.39l-32.58-12-35.79-13.2a3.17,3.17,0,0,1-1.26-5.07l17.69-19.88,17.7-19.88a3.16,3.16,0,0,1,5.17.67l17.26,34Z"/><path class="cls-1" d="M359.3,434a3.16,3.16,0,0,1,3.91-4.39l32.58,12,35.79,13.21a3.16,3.16,0,0,1,1.27,5.06l-17.7,19.88-17.69,19.88a3.17,3.17,0,0,1-5.18-.67L375,465Z"/><path class="cls-1" d="M1860,950a3.16,3.16,0,0,1,.34,5.87l-31.53,14.54-34.65,16a3.16,3.16,0,0,1-4.47-2.69l-1.55-26.57-1.54-26.57a3.15,3.15,0,0,1,4.13-3.18L1827,939.19Z"/><path class="cls-1" d="M145.57,1055.6a3.16,3.16,0,0,1-.34-5.87l31.54-14.54,34.64-16a3.15,3.15,0,0,1,4.47,2.68l1.55,26.57L219,1075a3.17,3.17,0,0,1-4.14,3.19l-36.26-11.85Z"/><path class="cls-1" d="M1055.6,1860a3.16,3.16,0,0,1-5.87.34l-14.54-31.53-16-34.65a3.15,3.15,0,0,1,2.68-4.47l26.57-1.55,26.57-1.54a3.16,3.16,0,0,1,3.19,4.13L1066.38,1827Z"/><path class="cls-1" d="M950,145.57a3.16,3.16,0,0,1,5.87-.34l14.54,31.54,16,34.64a3.16,3.16,0,0,1-2.69,4.47l-26.57,1.55L930.53,219a3.16,3.16,0,0,1-3.18-4.14l11.84-36.26Z"/><circle class="cls-1" cx="1002.79" cy="1002.79" r="58.26"/></svg>