<?xml version="1.0" encoding="UTF-8"?><svg id="Layer_1" xmlns="http://www.w3.org/2000/svg" viewBox="0 0 400 400"><defs><style>.cls-1{fill:#fff;}</style></defs><path id="compass" class="cls-1" d="M200,6.39c106.93,0,193.61,86.68,193.61,193.61s-86.68,193.61-193.61,193.61S6.39,306.93,6.39,200,93.07,6.39,200,6.39M200,0C173,0,146.81,5.29,122.15,15.72c-23.82,10.07-45.2,24.49-63.57,42.86-18.37,18.37-32.79,39.75-42.86,63.57C5.29,146.81,0,173,0,200s5.29,53.19,15.72,77.85c10.07,23.82,24.49,45.2,42.86,63.57,18.37,18.37,39.75,32.79,63.57,42.86,24.66,10.43,50.85,15.72,77.85,15.72s53.19-5.29,77.85-15.72c23.82-10.07,45.2-24.49,63.57-42.86,18.37-18.37,32.79-39.75,42.86-63.57,10.43-24.66,15.72-50.85,15.72-77.85s-5.29-53.19-15.72-77.85c-10.07-23.82-24.49-45.2-42.86-63.57-18.37-18.37-39.75-32.79-63.57-42.86C253.19,5.29,227,0,200,0h0Zm176.6,198.08l-81.76-12-45.06-6.62,27.47-36.93,49.54-66.59c4.36-5.86,3.13-7.09-2.73-2.73l-66.59,49.54-36.93,27.47-6.62-45.06-12-81.76c-1.06-7.2-2.79-7.2-3.84,0l-12,81.76-6.62,45.06-36.93-27.47-66.59-49.54c-5.86-4.36-7.09-3.13-2.73,2.73l49.54,66.59,27.47,36.93-45.06,6.62-81.76,12c-7.2,1.06-7.2,2.79,0,3.84l81.76,12,45.06,6.62-27.47,36.93-49.54,66.59c-4.36,5.86-3.13,7.09,2.73,2.73l66.59-49.54,36.93-27.47,6.62,45.06,12,81.76c1.06,7.2,2.79,7.2,3.84,0l12-81.76,6.62-45.06,36.93,27.47,66.59,49.54c5.86,4.36,7.09,3.13,2.73-2.73l-49.54-66.59-27.47-36.93,45.06-6.62,81.76-12c7.2-1.06,7.2-2.79,0-3.84Zm-176.6,40.4c-21.25,0-38.47-17.23-38.47-38.47s17.23-38.47,38.47-38.47,38.47,17.23,38.47,38.47-17.23,38.47-38.47,38.47Zm0-50.79c-6.8,0-12.32,5.51-12.32,12.32s5.51,12.32,12.32,12.32,12.32-5.51,12.32-12.32-5.51-12.32-12.32-12.32ZM124.06,30.01c-.04-.89,1.04-1.37,1.68-.74l7.66,7.64,8.42,8.39c.49,.49,.34,1.32-.3,1.6l-7.6,3.33-7.6,3.33c-.64,.28-1.35-.17-1.38-.86l-.47-11.88-.42-10.81Zm151.88,339.99c.04,.89-1.04,1.37-1.68,.74l-7.66-7.64-8.42-8.39c-.49-.49-.34-1.32,.3-1.6l7.6-3.33,7.6-3.33c.64-.28,1.35,.17,1.38,.86l.47,11.88,.42,10.81Zm94.05-245.93c.89-.04,1.37,1.04,.74,1.68l-7.64,7.66-8.39,8.42c-.49,.49-1.32,.34-1.6-.3l-3.33-7.6-3.33-7.6c-.28-.64,.17-1.35,.86-1.38l11.88-.47,10.81-.42ZM30.01,275.94c-.89,.04-1.37-1.04-.74-1.68l7.64-7.66,8.39-8.42c.49-.49,1.32-.34,1.6,.3l3.33,7.6,3.33,7.6c.28,.64-.17,1.35-.86,1.38l-11.88,.47-10.81,.42ZM266.51,26.1c.61-.66,1.71-.23,1.71,.67l.02,10.82,.02,11.89c0,.69-.7,1.17-1.34,.92l-7.73-3.02-7.73-3.02c-.65-.25-.84-1.08-.36-1.58l8.07-8.73,7.35-7.95ZM133.49,373.9c-.61,.66-1.71,.23-1.71-.67l-.02-10.82-.02-11.89c0-.69,.7-1.17,1.34-.92l7.73,3.02,7.73,3.02c.65,.25,.84,1.08,.36,1.58l-8.07,8.73-7.35,7.95Zm240.41-107.4c.66,.61,.23,1.71-.67,1.71l-10.82,.02-11.89,.02c-.69,0-1.17-.7-.92-1.34l3.02-7.73,3.02-7.73c.25-.65,1.08-.84,1.58-.36l8.73,8.07,7.95,7.35ZM26.1,133.49c-.66-.61-.23-1.71,.67-1.71l10.82-.02,11.89-.02c.69,0,1.17,.7,.92,1.34l-3.02,7.73-3.02,7.73c-.25,.65-1.08,.84-1.58,.36l-8.73-8.07-7.95-7.35Z"/></svg>