<?xml version="1.0" encoding="utf-8"?>
<!-- Generator: Adobe Illustrator 27.2.0, SVG Export Plug-In . SVG Version: 6.00 Build 0)  -->
<svg version="1.1"
	 id="Layer_1" shape-rendering="geometricPrecision" image-rendering="optimizeQuality" text-rendering="geometricPrecision"
	 xmlns="http://www.w3.org/2000/svg" xmlns:xlink="http://www.w3.org/1999/xlink" x="0px" y="0px" viewBox="0 0 200 200"
	 style="enable-background:new 0 0 200 200;" xml:space="preserve">
<style type="text/css">
	.st0{fill-rule:evenodd;clip-rule:evenodd;fill:#2E1A47;stroke:#2E1A47;stroke-width:0.216;stroke-miterlimit:11.3386;}
</style>
<path class="st0" d="M84.1,142.1L84.1,142.1l-0.5,0.1l0,0c-12,3.7-24.1,5.3-35.7,4.4c-1.6-4.4-2.8-9-3.8-13.8
	c-0.9-4.7-1.5-9.4-1.8-14c3.6,1.1,7.5,1.8,11.7,2.3c6.6,0.7,13.4,0.5,20.2-0.5c2.5,7.6,6,14.8,10.1,21.4L84.1,142.1L84.1,142.1
	L84.1,142.1z M44.9,146.3c-12.1-1.5-22.1-5.8-29.7-12.1c7.4,7.9,17.9,13.3,31.1,15.3c4.4,9.6,10.3,18.3,17.3,25.8
	c-6-7.6-10.9-16.1-14.6-25.5l0.3,0c11.2,1.2,23.1-0.2,34.9-3.7l0,0.1c0.8-0.2,1.6-0.4,2.4-0.7c2.7,3.8,5.6,7.5,8.8,10.9
	c-2.8-3.5-5.4-7.3-7.7-11.2c8.4-2.7,16.4-7,23.7-13c10.7-8.8,18.2-20,22.3-32.2c-4.5,10.2-11.4,19.7-20.7,27.3
	c-8.3,6.8-17.6,11.6-27.3,14.2c-3.6-6.7-6.4-13.9-8.4-21.5c3.8-0.7,7.7-1.6,11.5-2.7l0,0.1c9.7-2.6,18.9-7.2,27.2-14
	c10.7-8.8,18.2-20,22.3-32.2c-4.5,10.2-11.4,19.7-20.7,27.3c-8.8,7.2-18.7,12.1-28.9,14.7v0l-0.1,0l-0.4,0.1l0,0
	c-3.9,1.2-7.8,2.2-11.7,2.9c-0.2-0.8-0.4-1.6-0.5-2.4c-1.5-7.6-2.1-15.1-2-22.5c4.5-0.7,9.1-1.7,13.6-3.1l0,0.1
	c9.7-2.6,18.9-7.2,27.2-14c10.7-8.8,18.2-20,22.3-32.2c-4.5,10.2-11.4,19.7-20.7,27.3c-8.8,7.2-18.7,12.1-28.9,14.7l0,0l-0.1,0
	l-0.4,0.1l0,0c-4.2,1.3-8.5,2.4-12.8,3.1c1.6-24.8,12.3-47.6,29.3-64.1c43.3,1.5,81.8,33.6,90.9,79.3c2.6,13,2.6,25.9,0.3,38.1
	c3.8-14.1,4.4-29.2,1.4-44.4c-8.3-41.4-41.5-71.4-80.9-77.6c0.3-0.1,0.6-0.2,1-0.2l0,0l-4.2-0.2l0,0l-2.5-0.1l-8.7-0.5l-1.5-0.1
	l-0.1,0l0,0l-0.4,0l-2.7,0.1c-5,0.2-10,0.8-15.1,1.8C27.7,30.2-6.7,81.8,3.9,134.8c3.7,18.5,12.4,34.7,24.4,47.5
	c-9.4-12-16.3-26.4-19.5-42.5C-1.9,86.8,31,35.5,82.3,25.3c0.8-0.2,1.5-0.3,2.3-0.4C61.8,38.6,45.6,61.2,39.8,87
	c-8.4-2.1-15.5-5.7-21.2-10.5c5.4,5.7,12.3,10.1,20.7,12.9c-1.7,8.3-2.3,16.9-1.7,25.7c-6.9-2.2-12.9-5.4-17.8-9.6
	c4.8,5.1,10.8,9.1,18,11.9c0.3,3.5,0.8,7,1.5,10.5C40.6,134.3,42.5,140.5,44.9,146.3L44.9,146.3z M73.1,117c-0.8-2.6-1.4-5.3-2-8.1
	c-1.1-5.6-1.7-11.3-1.9-16.8c-5.6,0.6-11.1,0.6-16.5,0c-2.8-0.3-5.5-0.7-8.2-1.3c-1.9,8.2-2.7,16.7-2.4,25.4
	c2.8,0.6,5.7,1.1,8.7,1.4C58.1,118.5,65.5,118.2,73.1,117L73.1,117z M69.2,88.4C69.4,66,77.4,44.9,91,28.1
	c-22.8,12.7-39.2,34.5-45.8,60c1.4,0.2,2.9,0.4,4.4,0.6C56,89.4,62.5,89.3,69.2,88.4L69.2,88.4z"/>
</svg>
