<svg id="Layer_1" data-name="Layer 1" xmlns="http://www.w3.org/2000/svg" viewBox="0 0 7446.33 963.56"><defs><style>.cls-1{fill:#2e1a47;}</style></defs><path class="cls-1" d="M1039.18,716.37V257.93h163.41q53.27,0,88.53,19.47t52.71,53.06q17.46,33.57,17.46,75.88t-17.57,76q-17.57,33.69-52.83,53.27t-88.53,19.59h-94V716.37Zm69.16-219.82h87.75q50.82,0,73.2-25.63t22.39-64.58q0-39-22.5-64t-74-25.07h-86.86Z"/><path class="cls-1" d="M1409.62,716.37V372.54h64.69v54.62h3.58a83.52,83.52,0,0,1,33.24-43.76q23.85-16,54.06-16,6.49,0,15,.45t13.43,1.12v64a130.83,130.83,0,0,0-14.21-2.58A147.94,147.94,0,0,0,1558.7,429q-35.6,0-58.87,21.82t-23.28,55.63v210Z"/><path class="cls-1" d="M1757,723.31q-48.35,0-84.39-22.16t-56-62.12q-19.92-40-19.92-93,0-53.49,19.92-93.57t56-62.23q36-22.16,84.39-22.16,48.57,0,84.51,22.16t55.85,62.23q19.92,40.08,19.92,93.57,0,53.06-19.92,93t-55.85,62.12Q1805.58,723.31,1757,723.31Zm.23-56.19q31.56,0,52-16.56t30.45-44.21q9.94-27.65,10-60.55t-10-60.66q-10-27.76-30.45-44.44t-52-16.68q-31.58,0-52.16,16.68t-30.67,44.44q-10.07,27.75-10.07,60.66t10.07,60.55q10.08,27.64,30.67,44.21T1757.24,667.12Z"/><path class="cls-1" d="M2246.78,372.54,2122.09,716.37h-71.63L1925.55,372.54h71.86l87.08,264.59h3.58l86.85-264.59Z"/><path class="cls-1" d="M2316.38,319.49a41.93,41.93,0,0,1-29.89-11.76q-12.42-11.75-12.42-28.09,0-16.56,12.42-28.32a43.74,43.74,0,0,1,59.66,0q12.53,11.76,12.53,28.32,0,16.35-12.53,28.09A42,42,0,0,1,2316.38,319.49Zm-33.81,396.88V372.54h66.94V716.37Z"/><path class="cls-1" d="M2541.1,723.09q-41.64,0-74.09-21.27t-51-61.22q-18.58-40-18.58-95.47,0-55.74,18.69-95.36t51.37-60.67q32.68-21,74.1-21,32,0,51.59,10.63t30.45,24.74a214.74,214.74,0,0,1,16.9,24.85h4V257.93h66.93V716.37h-65.37v-53.5h-5.59a181.68,181.68,0,0,1-17.35,25.07q-11.31,14.1-31,24.63T2541.1,723.09ZM2555.87,666q43.43,0,66.6-33.69t23.17-87.86q0-54-22.95-86.75t-66.82-32.79q-30.21,0-50.36,15.67t-30.33,42.64q-10.2,27-10.19,61.23,0,34.47,10.3,62T2505.84,650Q2526.1,666,2555.87,666Z"/><path class="cls-1" d="M2927.89,723.31q-50.59,0-87.31-21.94t-56.52-61.67q-19.82-39.72-19.81-93,0-52.82,19.81-93.12t55.52-62.9q35.7-22.6,83.61-22.61a163.22,163.22,0,0,1,73.75,17.35q34.82,17.35,56.64,55.29t21.82,100.17V564.6H2831q1.34,49.7,28,76.56T2928.56,668q28.65,0,49.47-12.31T3007.8,619l63.35,11.41q-11.42,41.87-49.25,67.38T2927.89,723.31Zm-96.71-208.85h178.63q-.22-39.39-23.72-65.25t-62.46-25.86q-27.09,0-47.34,12.65a92.59,92.59,0,0,0-32,33.35A101.47,101.47,0,0,0,2831.18,514.46Z"/><path class="cls-1" d="M3189.77,512.22V716.37h-66.93V372.54h64.24v56h4.26a98,98,0,0,1,37.27-43.87q25.39-16.58,64.13-16.57,52.83,0,85,32.91t32.12,96.7v218.7h-66.93V505.73q0-37.38-19.47-58.54T3269.91,426q-34.92,0-57.53,22.5T3189.77,512.22Z"/><path class="cls-1" d="M3617.07,723.31q-49.92,0-85.84-22.72t-55.18-62.79q-19.26-40.06-19.26-91.78,0-52.61,19.7-92.67t55.63-62.68q35.93-22.6,84.28-22.61,39.17,0,69.84,14.44t49.58,40.4q18.91,26,22.5,60.67h-65.14q-5.37-24.18-24.51-41.64t-51.15-17.46q-41.86,0-67.49,32.35t-25.63,87.64q0,56.19,25.29,89.2t67.83,33q28.65,0,49-15.67t26.64-43.43h65.14q-3.59,33.36-21.71,59.54t-48.47,41.19Q3657.81,723.31,3617.07,723.31Z"/><path class="cls-1" d="M3951.26,723.31q-50.6,0-87.3-21.94t-56.53-61.67q-19.8-39.72-19.81-93,0-52.82,19.81-93.12t55.52-62.9q35.7-22.6,83.61-22.61a163.22,163.22,0,0,1,73.75,17.35q34.82,17.35,56.64,55.29t21.82,100.17V564.6H3854.33q1.35,49.7,28,76.56T3951.93,668q28.65,0,49.47-12.31T4031.17,619l63.35,11.41q-11.42,41.87-49.25,67.38T3951.26,723.31Zm-96.7-208.85h178.63q-.22-39.39-23.73-65.25T3947,423.35q-27.08,0-47.34,12.65a92.59,92.59,0,0,0-32,33.35A101.33,101.33,0,0,0,3854.56,514.46Z"/><path class="cls-1" d="M4291.46,716.37V257.93h69.17V457.15h228.55V257.93h69.4V716.37h-69.4V516.47H4360.63v199.9Z"/><path class="cls-1" d="M4875,723.31q-50.6,0-87.3-21.94T4731.2,639.7q-19.81-39.72-19.81-93,0-52.82,19.81-93.12t55.51-62.9q35.7-22.6,83.61-22.61a163.29,163.29,0,0,1,73.76,17.35q34.8,17.35,56.63,55.29t21.83,100.17V564.6H4778.09q1.35,49.7,28,76.56T4875.69,668q28.65,0,49.47-12.31T4954.93,619l63.35,11.41q-11.41,41.87-49.24,67.38T4875,723.31Zm-96.7-208.85H4957q-.22-39.39-23.73-65.25t-62.45-25.86q-27.09,0-47.35,12.65a92.68,92.68,0,0,0-32,33.35A101.46,101.46,0,0,0,4778.32,514.46Z"/><path class="cls-1" d="M5170,724q-32.69,0-59-12.09a97.78,97.78,0,0,1-41.75-35.48q-15.45-23.38-15.45-57.19,0-29.33,11.31-48.13a83.8,83.8,0,0,1,30.22-29.77,153.77,153.77,0,0,1,42.42-16.45,441.24,441.24,0,0,1,47.9-8.4q30.9-3.57,50-5.93t28-7.72q8.85-5.37,8.85-17.46v-1.57q0-29.32-16.46-45.44t-48.91-16.12q-33.79,0-53.16,14.78t-26.75,33.13l-62.9-14.33q16.78-47,56.07-67.38t85.85-20.37a214.66,214.66,0,0,1,43.65,4.81,132.24,132.24,0,0,1,43.53,17.69q20.49,12.87,33.36,36.37t12.87,61.12V716.37h-65.36v-47h-2.69q-9.63,19.26-34.25,36.94T5170,724Zm14.55-53.72q28,0,47.68-11t30.11-28.77a74.3,74.3,0,0,0,10.41-38.16V548q-4.7,4.69-20.59,8.28t-33.58,6q-17.69,2.48-28.66,4-29.1,3.81-49.8,15.34t-20.71,38.39q0,24.84,18.36,37.49T5184.58,670.26Z"/><path class="cls-1" d="M5468.63,257.93V716.37h-66.94V257.93Z"/><path class="cls-1" d="M5692,372.54v53.72h-70.52V615.42q0,29.1,12.43,37.49t28.76,8.39a78.91,78.91,0,0,0,14.1-1.11q6-1.12,9.41-1.8l12.08,55.3a119.24,119.24,0,0,1-16.67,4.58,138,138,0,0,1-26.75,2.58,118.65,118.65,0,0,1-49.36-9.4A83.69,83.69,0,0,1,5568.55,681q-14-20.6-14-51.71v-203H5504.2V372.54h50.36V290.16h66.93v82.38Z"/><path class="cls-1" d="M5812.85,512.22V716.37h-66.93V257.93h66V428.5h4.25a97.94,97.94,0,0,1,36.94-44.21q24.84-16.23,64.91-16.23,53.05,0,85.4,32.68t32.35,96.93v218.7h-66.93V505.73q0-37.83-19.48-58.76T5895.23,426q-35.82,0-59.1,22.5T5812.85,512.22Z"/><path class="cls-1" d="M6052.36,317.47V257.93h354.8v59.54h-143v398.9h-68.95V317.47Z"/><path class="cls-1" d="M6550.84,723.31q-50.6,0-87.3-21.94T6407,639.7q-19.82-39.72-19.81-93,0-52.82,19.81-93.12t55.51-62.9q35.72-22.6,83.61-22.61a163.26,163.26,0,0,1,73.76,17.35q34.8,17.35,56.63,55.29t21.83,100.17V564.6H6453.92q1.34,49.7,28,76.56T6551.51,668q28.65,0,49.47-12.31T6630.76,619l63.35,11.41q-11.41,41.87-49.25,67.38T6550.84,723.31Zm-96.7-208.85h178.63q-.23-39.39-23.73-65.25t-62.45-25.86q-27.09,0-47.34,12.65a92.7,92.7,0,0,0-32,33.35A101.46,101.46,0,0,0,6454.14,514.46Z"/><path class="cls-1" d="M6890.63,723.31q-49.92,0-85.85-22.72T6749.6,637.8q-19.26-40.06-19.25-91.78,0-52.61,19.7-92.67t55.62-62.68q35.94-22.6,84.28-22.61,39.18,0,69.85,14.44t49.58,40.4q18.91,26,22.49,60.67h-65.14q-5.37-24.18-24.51-41.64t-51.15-17.46q-41.85,0-67.49,32.35T6798,544.46q0,56.19,25.3,89.2t67.82,33q28.65,0,49-15.67t26.63-43.43h65.14q-3.57,33.36-21.71,59.54t-48.46,41.19Q6931.36,723.31,6890.63,723.31Z"/><path class="cls-1" d="M7143.56,512.22V716.37h-66.94V257.93h66V428.5h4.25a97.94,97.94,0,0,1,36.94-44.21q24.84-16.23,64.91-16.23,53.06,0,85.4,32.68t32.35,96.93v218.7h-66.93V505.73q0-37.83-19.48-58.76T7225.93,426q-35.82,0-59.09,22.5T7143.56,512.22Z"/><path class="cls-1" d="M546.18,80.16c221.81,38.75,370.2,250,331.45,471.78s-250,370.21-471.78,331.46S35.65,633.42,74.4,411.61s250-370.2,471.78-331.45m3.55-20.34A428.45,428.45,0,0,0,243.84,841.87,428.46,428.46,0,0,0,708.19,121.68,425.65,425.65,0,0,0,549.73,59.82Z"/><path class="cls-1" d="M652.18,197.62a2.78,2.78,0,0,1,4.38,2.76l-5.74,30.05-6.31,33a2.79,2.79,0,0,1-4.22,1.83l-19.82-12.51-19.83-12.5a2.79,2.79,0,0,1-.16-4.6l27.06-19.9Zm-41,95.62,27.06-19.91a2.78,2.78,0,0,0-.16-4.59l-19.83-12.5-19.83-12.51a2.78,2.78,0,0,0-4.21,1.83l-6.31,33-5.74,30a2.78,2.78,0,0,0,4.38,2.77Z"/><path class="cls-1" d="M299.85,765.93a2.78,2.78,0,0,1-4.38-2.76l5.75-30,6.3-33a2.78,2.78,0,0,1,4.22-1.83l19.82,12.5,19.83,12.51a2.78,2.78,0,0,1,.17,4.59l-27.07,19.91Zm41-95.62-27.06,19.91a2.78,2.78,0,0,0,.17,4.59l19.82,12.51,19.83,12.5a2.78,2.78,0,0,0,4.22-1.83l6.3-33,5.74-30a2.78,2.78,0,0,0-4.38-2.76Z"/><path class="cls-1" d="M191.86,305.62a2.78,2.78,0,0,1,2.76-4.38l30,5.74,33,6.3a2.79,2.79,0,0,1,1.83,4.22L247,337.33l-12.51,19.82a2.78,2.78,0,0,1-4.59.17L210,330.25Zm95.62,41-19.91-27.07a2.78,2.78,0,0,0-4.59.17l-12.5,19.82L238,359.35a2.79,2.79,0,0,0,1.83,4.22l33,6.3,30,5.74a2.78,2.78,0,0,0,2.77-4.37Z"/><path class="cls-1" d="M760.17,657.94a2.78,2.78,0,0,1-2.76,4.38l-30-5.74-33-6.31a2.77,2.77,0,0,1-1.83-4.21L705,626.23l12.51-19.83a2.78,2.78,0,0,1,4.59-.16l19.91,27.06Zm-95.62-41L684.46,644a2.78,2.78,0,0,0,4.59-.16L701.56,624l12.5-19.83a2.77,2.77,0,0,0-1.83-4.21l-33-6.31-30-5.74a2.78,2.78,0,0,0-2.76,4.38Z"/><path class="cls-1" d="M399.65,156.28a2.78,2.78,0,0,1,5.05-1.14l17.19,25.3,18.87,27.8a2.78,2.78,0,0,1-1.68,4.27l-22.87,5.18-22.86,5.18a2.78,2.78,0,0,1-3.36-3.13l5.06-33.22Zm38.64,96.6,5.06-33.22a2.78,2.78,0,0,0-3.36-3.13l-22.87,5.18-22.86,5.18a2.78,2.78,0,0,0-1.69,4.27L411.45,259l17.18,25.31a2.78,2.78,0,0,0,5.05-1.15Z"/><path class="cls-1" d="M552.38,807.27a2.78,2.78,0,0,1-5,1.15l-17.18-25.31-18.88-27.79A2.79,2.79,0,0,1,513,751l22.86-5.17,22.86-5.18a2.79,2.79,0,0,1,3.37,3.13L557,777Zm-38.64-96.59-5.06,33.21a2.78,2.78,0,0,0,3.37,3.13l22.86-5.17,22.86-5.18a2.78,2.78,0,0,0,1.69-4.27l-18.88-27.8L523.4,679.3a2.78,2.78,0,0,0-5,1.14Z"/><path class="cls-1" d="M150.52,558.14a2.78,2.78,0,0,1-1.14-5l25.3-17.18L202.48,517a2.78,2.78,0,0,1,4.27,1.69l5.18,22.86,5.17,22.86a2.78,2.78,0,0,1-3.13,3.37l-33.21-5.06Zm96.59-38.64-33.21-5.06a2.79,2.79,0,0,0-3.13,3.37L216,540.67l5.17,22.86a2.79,2.79,0,0,0,4.28,1.69l27.79-18.88,25.31-17.18a2.78,2.78,0,0,0-1.15-5Z"/><path class="cls-1" d="M801.51,405.41a2.78,2.78,0,0,1,1.14,5l-25.3,17.19-27.79,18.87a2.78,2.78,0,0,1-4.28-1.68L740.1,422l-5.17-22.86a2.77,2.77,0,0,1,3.13-3.36l33.21,5.06Zm-96.59,38.64,33.21,5.06a2.77,2.77,0,0,0,3.13-3.36l-5.17-22.87L730.91,400a2.78,2.78,0,0,0-4.28-1.68l-27.79,18.87-25.3,17.18a2.78,2.78,0,0,0,1.14,5.05Z"/><path class="cls-1" d="M843.05,541.79,677.81,487.26l-91.23-30.11,70.09-66.38L783.26,270.88c11.15-10.56,9-13.55-4.66-6.64L622.88,342.68l-86.21,43.43,2.61-96L544,116.14c.42-15.32-3.17-16-8-1.4L481.5,280l-30.11,91.23L385,301.13l-119.9-126.6c-10.55-11.14-13.54-9.05-6.63,4.67l78.44,155.71,43.43,86.22-96-2.61-173.95-4.73c-15.31-.41-15.94,3.17-1.39,8L274.22,476.3l91.23,30.1-70.08,66.38-126.6,119.9c-11.15,10.56-9.05,13.54,4.66,6.64l155.72-78.45,86.22-43.43-2.61,96L408,847.42c-.42,15.32,3.17,15.94,8,1.39l54.53-165.24,30.11-91.23L567,662.43,686.92,789c10.56,11.15,13.54,9.05,6.63-4.66L615.11,628.64l-43.43-86.21,96,2.61,173.95,4.72C857,550.18,857.6,546.59,843.05,541.79Zm-381,19.8a81,81,0,1,1,93.76-65.87A81,81,0,0,1,462.07,561.59Z"/><path class="cls-1" d="M599.93,120.05a1.4,1.4,0,0,1,2.47.85l.62,15.45.69,17a1.41,1.41,0,0,1-1.86,1.39l-11.2-3.88L579.45,147a1.41,1.41,0,0,1-.61-2.24l11-12.91Z"/><path class="cls-1" d="M352.11,843.51a1.41,1.41,0,0,1-2.48-.86L349,827.2l-.69-17a1.41,1.41,0,0,1,1.87-1.38l11.19,3.88,11.2,3.88a1.4,1.4,0,0,1,.61,2.24l-11,12.91Z"/><path class="cls-1" d="M837.75,605.69a1.4,1.4,0,0,1-.86,2.47l-15.45.63-17,.68a1.4,1.4,0,0,1-1.38-1.86l3.88-11.2,3.87-11.2a1.41,1.41,0,0,1,2.25-.6l12.91,11Z"/><path class="cls-1" d="M114.28,357.87a1.41,1.41,0,0,1,.86-2.48l15.45-.62,17-.69a1.4,1.4,0,0,1,1.38,1.87l-3.87,11.19-3.88,11.2A1.41,1.41,0,0,1,139,379l-12.91-11Z"/><path class="cls-1" d="M819.42,313.61a1.41,1.41,0,0,1,1.14,2.36l-10.48,11.36-11.52,12.49a1.4,1.4,0,0,1-2.29-.34l-5.18-10.66-5.17-10.66a1.4,1.4,0,0,1,1.15-2L804,314.82Z"/><path class="cls-1" d="M132.62,649.94a1.41,1.41,0,0,1-1.15-2.35L142,636.22l11.52-12.48a1.41,1.41,0,0,1,2.3.34l5.17,10.66,5.18,10.66a1.4,1.4,0,0,1-1.16,2L148,648.74Z"/><path class="cls-1" d="M644.18,825.18a1.4,1.4,0,0,1-2.35,1.14l-11.37-10.48L618,804.33a1.4,1.4,0,0,1,.34-2.3L629,796.85l10.66-5.17a1.41,1.41,0,0,1,2,1.15L643,809.76Z"/><path class="cls-1" d="M307.85,138.38a1.41,1.41,0,0,1,2.36-1.15l11.36,10.49,12.49,11.51a1.41,1.41,0,0,1-.34,2.3l-10.66,5.17-10.66,5.18a1.41,1.41,0,0,1-2-1.16l-1.32-16.93Z"/><path class="cls-1" d="M729.25,195.29a1.41,1.41,0,0,1,2,1.74l-5.35,14.51L720,227.47a1.41,1.41,0,0,1-2.26.56l-8.85-7.87L700,212.28a1.41,1.41,0,0,1,.3-2.31l15.15-7.68Z"/><path class="cls-1" d="M222.78,768.26a1.41,1.41,0,0,1-2-1.74l5.36-14.5,5.87-15.93a1.41,1.41,0,0,1,2.26-.57l8.85,7.88,8.85,7.88a1.4,1.4,0,0,1-.3,2.3l-15.14,7.69Z"/><path class="cls-1" d="M762.5,735a1.41,1.41,0,0,1-1.74,2l-14.5-5.35-15.94-5.88a1.4,1.4,0,0,1-.56-2.25l7.88-8.85,7.88-8.86a1.4,1.4,0,0,1,2.3.3l7.69,15.15Z"/><path class="cls-1" d="M189.53,228.54a1.4,1.4,0,0,1,1.74-1.95l14.51,5.35,15.93,5.88a1.4,1.4,0,0,1,.56,2.25l-7.88,8.85-7.87,8.85a1.41,1.41,0,0,1-2.31-.3l-7.68-15.14Z"/><path class="cls-1" d="M857.66,458.27a1.4,1.4,0,0,1,.15,2.61l-14,6.47-15.42,7.11a1.41,1.41,0,0,1-2-1.19l-.68-11.83L825,449.61a1.41,1.41,0,0,1,1.84-1.42L843,453.47Z"/><path class="cls-1" d="M94.37,505.29a1.4,1.4,0,0,1-.15-2.61l14-6.48,15.43-7.11a1.41,1.41,0,0,1,2,1.2l.69,11.83.68,11.83a1.4,1.4,0,0,1-1.84,1.41l-16.14-5.27Z"/><path class="cls-1" d="M499.53,863.42a1.41,1.41,0,0,1-2.62.15l-6.47-14-7.11-15.42a1.41,1.41,0,0,1,1.2-2l11.83-.69,11.82-.69a1.41,1.41,0,0,1,1.42,1.84l-5.27,16.14Z"/><path class="cls-1" d="M452.5,100.14a1.41,1.41,0,0,1,2.62-.16l6.47,14,7.11,15.43a1.4,1.4,0,0,1-1.19,2l-11.83.69-11.83.69a1.41,1.41,0,0,1-1.42-1.84l5.27-16.15Z"/><circle class="cls-1" cx="476.02" cy="481.78" r="25.94"/></svg>