<svg id="Layer_1" data-name="Layer 1" xmlns="http://www.w3.org/2000/svg" viewBox="0 0 324 24"><defs><style>.cls-1{fill:#2e1a47;}</style></defs><path class="cls-1" d="M7.74,2.26C12.93,2.26,15,4.45,15,8.41v1.71c0,3.87-2.13,6.13-7.28,6.13H4.09v7.61H0V2.26ZM4.09,12.83H7.54c2.32,0,3.39-.9,3.39-2.84V8.54c0-2-1-2.87-3.39-2.87H4.09Z"/><path class="cls-1" d="M30.4,12.7v1.55H26.76v-1c0-1.64-.68-2.61-2.22-2.61s-2.2,1-2.2,2.61V23.86H18.41V7.51h3.93V9.22h.58a3.75,3.75,0,0,1,3.55-2C29,7.22,30.4,8.64,30.4,12.7Z"/><path class="cls-1" d="M40,7.22c4.06,0,7,2.32,7,6.8v3.32c0,4.52-3,6.81-7,6.81h-.35c-4.1,0-7.06-2.29-7.06-6.81V14c0-4.48,3-6.8,7.06-6.8ZM36.53,14v3.45c0,2.29,1.1,3.54,3.13,3.54H40c2,0,3.1-1.25,3.1-3.54V14c0-2.29-1.1-3.51-3.1-3.51h-.35C37.63,10.45,36.53,11.67,36.53,14Z"/><path class="cls-1" d="M52.55,7.51l3.55,11.8h.84l3.48-11.8H64L59.13,23.86H53.62L48.69,7.51Z"/><path class="cls-1" d="M68.42.74a1.9,1.9,0,0,1,2.09,1.77v.2a1.9,1.9,0,0,1-2.09,1.8h-.29A1.92,1.92,0,0,1,66,2.71v-.2A1.92,1.92,0,0,1,68.13.74Zm1.83,6.77V23.86H66.32V7.51Z"/><path class="cls-1" d="M88.18,0V23.86H84.25V22.08h-.62a4.88,4.88,0,0,1-4.19,2.07h-.35c-3.32,0-5.35-2.23-5.35-6.81V14c0-4.57,2-6.8,5.35-6.8h.35a5.08,5.08,0,0,1,4.19,2h.62V0ZM77.67,14v3.45c0,2.29,1.19,3.54,3.13,3.54h.35c1.94,0,3.1-1.25,3.1-3.54V14c0-2.26-1.16-3.51-3.1-3.51H80.8C78.86,10.45,77.67,11.7,77.67,14Z"/><path class="cls-1" d="M99,7.22c4.22,0,6.9,2.32,6.9,6.84V16.6H95.44v1c0,2.52,1.25,3.65,3.19,3.65H99c1.9,0,2.93-.94,3.13-2.94h3.67c-.19,3.68-2.54,5.81-6.8,5.81h-.35c-4.19,0-7-2.29-7-6.81V14.06c0-4.52,2.78-6.84,7-6.84Zm-3.54,6.32v.35h6.67v-.35c0-2.26-1.26-3.42-3.16-3.42h-.36C96.6,10.12,95.44,11.28,95.44,13.54Z"/><path class="cls-1" d="M113.3,7.51V9.38h.61a4.64,4.64,0,0,1,4.16-2.16h.35c2.87,0,4.77,1.71,4.77,5.9V23.86h-4V13.93c0-2.19-1-3.26-2.74-3.26h-.36c-1.7,0-2.83,1.07-2.83,3.26v9.93h-3.94V7.51Z"/><path class="cls-1" d="M133.71,7.22c4.09,0,6.64,2.26,6.64,6.32v.55h-3.81v-.55c0-1.87-.9-3.09-2.83-3.09h-.36c-1.93,0-2.93,1.22-2.93,3.44v3.62c0,2.16,1,3.44,2.93,3.44h.36a2.74,2.74,0,0,0,2.9-3v-.45h3.8v.45c0,3.94-2.58,6.23-6.7,6.23h-.36c-4.12,0-6.86-2.36-6.86-6.81V14.06c0-4.52,2.74-6.84,6.86-6.84Z"/><path class="cls-1" d="M150.57,7.22c4.22,0,6.9,2.32,6.9,6.84V16.6H147v1c0,2.52,1.26,3.65,3.19,3.65h.36c1.9,0,2.93-.94,3.13-2.94h3.67c-.19,3.68-2.55,5.81-6.8,5.81h-.36c-4.19,0-7-2.29-7-6.81V14.06c0-4.52,2.77-6.84,7-6.84ZM147,13.54v.35h6.68v-.35c0-2.26-1.26-3.42-3.16-3.42h-.36C148.18,10.12,147,11.28,147,13.54Z"/><path class="cls-1" d="M170.91,2.26v8.89h7.58V2.26h4.09v21.6h-4.09V14.57h-7.58v9.29h-4.09V2.26Z"/><path class="cls-1" d="M193.45,7.22c4.22,0,6.9,2.32,6.9,6.84V16.6H189.9v1c0,2.52,1.26,3.65,3.2,3.65h.35c1.9,0,2.93-.94,3.13-2.94h3.67c-.19,3.68-2.54,5.81-6.8,5.81h-.35c-4.19,0-7-2.29-7-6.81V14.06c0-4.52,2.78-6.84,7-6.84Zm-3.55,6.32v.35h6.68v-.35c0-2.26-1.26-3.42-3.16-3.42h-.36C191.07,10.12,189.9,11.28,189.9,13.54Z"/><path class="cls-1" d="M210.06,7.22c4.32,0,6.47,2,6.47,5.64v11H212.6V22H212a4.57,4.57,0,0,1-4.26,2.2c-2.64,0-4.73-1.39-4.73-4.78,0-3.09,1.77-5.12,6.35-5.12h3.25V12.86c0-1.87-1-2.64-2.54-2.64h-.36a2.31,2.31,0,0,0-2.51,2.61v.26h-3.84v-.26c0-3.64,2.39-5.61,6.35-5.61ZM206.8,19c0,1.41.9,2.16,2.45,2.16s3.35-.81,3.35-3.68v-.77h-2.83C207.61,16.67,206.8,17.54,206.8,19Z"/><path class="cls-1" d="M224.11,0V23.86h-3.93V0Z"/><path class="cls-1" d="M232.53,3V7.51h6.64v3h-6.64v8.57c0,1.32.58,2,1.61,2h.36c1.06,0,1.58-.68,1.58-2v-1.9h3.51v1.9c0,3.74-2.19,5.1-5.16,5.1h-.35c-3,0-5.52-1.36-5.52-5.1V10.48h-2.09v-3h2.09V3Z"/><path class="cls-1" d="M246.49,0V9.38h.61a4.58,4.58,0,0,1,4.16-2.16h.36c2.86,0,4.77,1.71,4.77,5.9V23.86h-4V13.93c0-2.19-1-3.26-2.74-3.26h-.35c-1.71,0-2.84,1.07-2.84,3.26v9.93h-3.93V0Z"/><path class="cls-1" d="M275.18,2.26V5.67h-6.25V23.86h-4.09V5.67h-6.23V2.26Z"/><path class="cls-1" d="M282.76,7.22c4.23,0,6.9,2.32,6.9,6.84V16.6H279.22v1c0,2.52,1.25,3.65,3.19,3.65h.35c1.9,0,2.94-.94,3.13-2.94h3.67c-.19,3.68-2.54,5.81-6.8,5.81h-.35c-4.19,0-7-2.29-7-6.81V14.06c0-4.52,2.78-6.84,7-6.84Zm-3.54,6.32v.35h6.67v-.35c0-2.26-1.26-3.42-3.16-3.42h-.35C280.38,10.12,279.22,11.28,279.22,13.54Z"/><path class="cls-1" d="M300,7.22c4.09,0,6.64,2.26,6.64,6.32v.55h-3.8v-.55c0-1.87-.91-3.09-2.84-3.09h-.35c-1.94,0-2.94,1.22-2.94,3.44v3.62c0,2.16,1,3.44,2.94,3.44H300a2.74,2.74,0,0,0,2.9-3v-.45h3.81v.45c0,3.94-2.58,6.23-6.71,6.23h-.35c-4.13,0-6.87-2.36-6.87-6.81V14.06c0-4.52,2.74-6.84,6.87-6.84Z"/><path class="cls-1" d="M314.1,0V9.38h.62a4.57,4.57,0,0,1,4.15-2.16h.36c2.87,0,4.77,1.71,4.77,5.9V23.86h-4V13.93c0-2.19-1-3.26-2.74-3.26h-.35c-1.71,0-2.84,1.07-2.84,3.26v9.93h-3.93V0Z"/></svg>