<?xml version="1.0" encoding="UTF-8"?><svg id="Layer_1" xmlns="http://www.w3.org/2000/svg" viewBox="0 0 300 76.53"><defs><style>.cls-1{fill:#fff;}.cls-2{fill:#2e1a47;}</style></defs><g><path class="cls-2" d="M64.71,38.27c0,17.87-14.49,32.36-32.36,32.36S0,56.14,0,38.27,14.49,5.91,32.36,5.91s32.36,14.49,32.36,32.36"/><path class="cls-1" d="M32.36,6.94c17.3,0,31.32,14.02,31.32,31.32s-14.02,31.32-31.32,31.32S1.03,55.56,1.03,38.27,15.06,6.94,32.36,6.94m0-1.03c-4.37,0-8.61,.86-12.59,2.54-3.85,1.63-7.31,3.96-10.28,6.93-2.97,2.97-5.3,6.43-6.93,10.28C.86,29.66,0,33.9,0,38.27s.86,8.61,2.54,12.59c1.63,3.85,3.96,7.31,6.93,10.28,2.97,2.97,6.43,5.3,10.28,6.93,3.99,1.69,8.23,2.54,12.59,2.54s8.61-.86,12.59-2.54c3.85-1.63,7.31-3.96,10.28-6.93,2.97-2.97,5.3-6.43,6.93-10.28,1.69-3.99,2.54-8.23,2.54-12.59s-.86-8.61-2.54-12.59c-1.63-3.85-3.96-7.31-6.93-10.28s-6.43-5.3-10.28-6.93c-3.99-1.69-8.23-2.54-12.59-2.54m28.57,32.05l-13.23-1.94-7.29-1.07,4.44-5.97,8.01-10.77c.71-.95,.51-1.15-.44-.44l-10.77,8.02-5.97,4.44-1.07-7.29-1.94-13.23c-.17-1.16-.45-1.16-.62,0l-1.94,13.23-1.07,7.29-5.97-4.44-10.77-8.02c-.95-.71-1.15-.51-.44,.44l8.01,10.77,4.44,5.97-7.29,1.07-13.23,1.94c-1.16,.17-1.16,.45,0,.62l13.23,1.94,7.29,1.07-4.44,5.97-8.01,10.77c-.71,.95-.51,1.15,.44,.44l10.77-8.01,5.97-4.44,1.07,7.29,1.94,13.23c.17,1.16,.45,1.16,.62,0l1.94-13.23,1.07-7.29,5.97,4.44,10.77,8.01c.95,.71,1.15,.51,.44-.44l-8.01-10.77-4.44-5.97,7.29-1.07,13.23-1.94c1.16-.17,1.16-.45,0-.62m-28.57,6.54c-3.44,0-6.22-2.79-6.22-6.22s2.79-6.22,6.22-6.22,6.22,2.79,6.22,6.22-2.79,6.22-6.22,6.22m0-8.22c-1.1,0-1.99,.89-1.99,1.99s.89,1.99,1.99,1.99,1.99-.89,1.99-1.99-.89-1.99-1.99-1.99M20.07,10.76c0-.14,.17-.22,.27-.12l1.24,1.24,1.36,1.36c.08,.08,.05,.21-.05,.26l-1.23,.54-1.23,.54c-.1,.04-.22-.03-.22-.14l-.08-1.92-.07-1.75Zm24.57,55c0,.14-.17,.22-.27,.12l-1.24-1.24-1.36-1.36c-.08-.08-.05-.21,.05-.26l1.23-.54,1.23-.54c.1-.05,.22,.03,.22,.14l.08,1.92,.07,1.75Zm15.22-39.79c.14,0,.22,.17,.12,.27l-1.24,1.24-1.36,1.36c-.08,.08-.21,.05-.26-.05l-.54-1.23-.54-1.23c-.05-.1,.03-.22,.14-.22l1.92-.08,1.75-.07ZM4.85,50.55c-.14,0-.22-.17-.12-.27l1.24-1.24,1.36-1.36c.08-.08,.21-.05,.26,.05l.54,1.23,.54,1.23c.04,.1-.03,.22-.14,.22l-1.92,.08-1.75,.07ZM43.12,10.13c.1-.11,.28-.04,.28,.11v1.75s0,1.92,0,1.92c0,.11-.11,.19-.22,.15l-1.25-.49-1.25-.49c-.1-.04-.14-.17-.06-.26l1.31-1.41,1.19-1.29Zm-21.52,56.27c-.1,.11-.28,.04-.28-.11v-1.75s0-1.92,0-1.92c0-.11,.11-.19,.22-.15l1.25,.49,1.25,.49c.1,.04,.14,.17,.06,.26l-1.31,1.41-1.19,1.29Zm38.89-17.37c.11,.1,.04,.28-.11,.28h-1.75s-1.92,0-1.92,0c-.11,0-.19-.11-.15-.22l.49-1.25,.49-1.25c.04-.1,.17-.14,.26-.06l1.41,1.31,1.29,1.19ZM4.22,27.51c-.11-.1-.04-.28,.11-.28h1.75s1.92,0,1.92,0c.11,0,.19,.11,.15,.22l-.49,1.25-.49,1.25c-.04,.1-.17,.14-.26,.06l-1.41-1.31-1.29-1.19Z"/></g><g><path class="cls-1" d="M76.91,22.03h13.69c3.57,0,6.29,1.06,8.04,2.98,1.7,1.83,2.68,4.13,2.68,6.93,0,5.95-3.79,9.82-10.46,9.82h-7.99v11.91h-5.95V22.03Zm5.95,15.01h7.06c3.61,0,5.49-1.96,5.49-5.02s-1.96-4.93-5.4-4.93h-7.14v9.95Z"/><path class="cls-1" d="M110.04,35.05h.13c1.45-2.93,3.61-4.42,6.51-4.42,.64,0,1.06,.04,1.45,.21v4.85h-.17c-.51-.13-.94-.17-1.49-.17-3.57-.04-6.25,2.38-6.25,6.76v11.4h-5.4V30.97h5.23v4.08Z"/><path class="cls-1" d="M119.86,42.36c0-6.76,4.55-11.99,11.61-11.99s11.53,5.23,11.53,11.99-4.47,11.99-11.53,11.99-11.61-5.27-11.61-11.99Zm17.65,0c0-4.59-2.13-8-6.08-8s-6.08,3.4-6.08,8,2.08,7.91,6.08,7.91,6.08-3.36,6.08-7.91Z"/><path class="cls-1" d="M143.89,30.97h5.66l3.32,10.59c.98,3.06,1.91,7.61,1.91,7.61h.13s.89-4.55,1.87-7.61l3.44-10.59h5.49l-8.04,22.71h-5.91l-7.87-22.71Z"/><path class="cls-1" d="M168.3,22.03h5.53v5.23h-5.53v-5.23Zm.09,8.93h5.4v22.71h-5.4V30.97Z"/><path class="cls-1" d="M177.52,42.36c0-7.23,4.08-11.99,9.87-11.99,3.15,0,5.49,1.49,6.98,3.87h.09c-.09-1.23-.17-3.02-.17-4.72v-7.48h5.4v31.64h-5.23v-3.32h-.09c-1.4,2.64-3.87,4.04-6.98,4.04-6,0-9.87-4.63-9.87-12.04Zm16.97,0c0-4.55-2-7.78-6-7.78-3.66,0-5.49,3.27-5.49,7.74s1.83,7.66,5.49,7.66c4,0,6-3.15,6-7.61Z"/><path class="cls-1" d="M203.46,42.36c0-6.76,4.55-11.99,11.27-11.99,3.32,0,5.91,1.15,7.83,3.19,2.21,2.34,3.27,5.91,3.23,10.12h-16.97c.38,3.91,2.47,6.55,6.25,6.55,2.59,0,4.29-1.11,5.02-2.98h5.27c-1.11,4.08-4.76,7.1-10.33,7.1-7.23,0-11.57-5.27-11.57-11.99Zm5.44-2.08h11.31c-.21-3.74-2.21-6-5.49-6-3.53,0-5.36,2.42-5.83,6Z"/><path class="cls-1" d="M234.85,34.28h.13c1.49-2.51,3.87-3.91,7.06-3.91,4.89,0,7.83,3.02,7.83,7.91v15.4h-5.4v-14.5c0-2.68-1.57-4.34-4.34-4.34-3.02,0-5.15,2.3-5.15,5.53v13.31h-5.4V30.97h5.27v3.32Z"/><path class="cls-1" d="M253.47,42.36c0-6.76,4.47-11.99,11.44-11.99,5.78,0,9.44,3.27,10.25,8.17h-5.27c-.51-2.47-2.21-4.04-4.93-4.04-3.96,0-6,3.27-6,7.87s2.04,7.78,6,7.78c2.98,0,4.76-1.74,5.06-4.72h5.27c-.34,5.27-4.21,8.93-10.29,8.93-7.02,0-11.53-5.27-11.53-11.99Z"/><path class="cls-1" d="M277.67,42.36c0-6.76,4.55-11.99,11.27-11.99,3.32,0,5.91,1.15,7.82,3.19,2.21,2.34,3.28,5.91,3.23,10.12h-16.97c.38,3.91,2.47,6.55,6.25,6.55,2.59,0,4.29-1.11,5.02-2.98h5.27c-1.11,4.08-4.76,7.1-10.33,7.1-7.23,0-11.57-5.27-11.57-11.99Zm5.44-2.08h11.31c-.21-3.74-2.21-6-5.49-6-3.53,0-5.36,2.42-5.83,6Z"/></g></svg>